SplineFontDB: 3.0
FontName: Amatic
FullName: Amatic
FamilyName: Amatic
Weight: Regular
Copyright: Digitized data Copyright (c) 2011-2013, vernon adams.
Version: 2.000
ItalicAngle: 0
UnderlinePosition: 0
UnderlineWidth: 0
Ascent: 1536
Descent: 512
UFOAscent: 1536
UFODescent: -512
LayerCount: 2
Layer: 0 0 "Back"  1
Layer: 1 0 "Fore"  0
FSType: 0
OS2Version: 0
OS2_WeightWidthSlopeOnly: 0
OS2_UseTypoMetrics: 1
CreationTime: 1392065291
ModificationTime: 1392065483
PfmFamily: 17
TTFWeight: 400
TTFWidth: 3
LineGap: 0
VLineGap: 0
OS2TypoAscent: 2384
OS2TypoAOffset: 0
OS2TypoDescent: -505
OS2TypoDOffset: 0
OS2TypoLinegap: 0
OS2WinAscent: 2384
OS2WinAOffset: 0
OS2WinDescent: 505
OS2WinDOffset: 0
HheadAscent: 2384
HheadAOffset: 0
HheadDescent: -505
HheadDOffset: 0
OS2Vendor: 'NeWT'
Lookup: 4 0 1 "ligaStandardLigatureslookup0"  {"ligaStandardLigatureslookup0 subtable"  } ['liga' ('latn' <'dflt' > 'grek' <'dflt' > 'DFLT' <'dflt' > ) ]
Lookup: 258 0 0 "kernHorizontalKerninglookup0"  {"kernHorizontalKerninglookup0 subtable"  } ['kern' ('latn' <'dflt' > 'grek' <'dflt' > 'DFLT' <'dflt' > ) ]
MarkAttachClasses: 1
DEI: 91125
LangName: 1033 "" "" "" "" "" "Version 2.000" "" "Amatic is a trademark of Vernon Adams and may be registered in certain jurisdictions." "newtypography" "Vernon Adams" "" "newtypography.co.uk" "newtypography.co.uk" "Copyright (c) 2013, vernon adams.+AAoACgAA-This Font Software is licensed under the SIL Open Font License, Version 1.1.+AAoA-This license is copied below, and is also available with a FAQ at:+AAoA-http://scripts.sil.org/OFL+AAoA" "http://scripts.sil.org/OFL" "" "Amatic" "Regular" 
PickledData: "(dp1
S'public.glyphOrder'
p2
(S'A'
S'Agrave'
p3
S'Aacute'
p4
S'Acircumflex'
p5
S'Atilde'
p6
S'Adieresis'
p7
S'Aring'
p8
S'Amacron'
p9
S'Abreve'
p10
S'Aogonek'
p11
S'uni01CD'
p12
S'B'
S'uni1E02'
p13
S'C'
S'Ccedilla'
p14
S'Cacute'
p15
S'Ccircumflex'
p16
S'Cdotaccent'
p17
S'Ccaron'
p18
S'D'
S'Dcaron'
p19
S'uni1E0A'
p20
S'E'
S'Egrave'
p21
S'Eacute'
p22

StartChar: A
Encoding: 65 65 0
Width: 800
VWidth: 0
GlyphClass: 2
Flags: HW
PickledData: "(dp1
S'org.pippin.gimp.org.kernagic'
p2
(dp3
S'lstem'
p4
I0
sS'rstem'
p5
I0
ssS'com.fontlab.hintData'
p6
(dp7
S'vhints'
p8
((dp9
S'position'
p10
I77
sS'width'
p11
I64
s(dp12
g10
I506
sg11
I84
s(dp13
g10
I506
sg11
I61
stp14
sS'hhints'
p15
((dp16
g10
I0
sg11
I21
stp17
ss."
HStem: 0 21<581 612.5>
VStem: 77 64 506 84 506 61
AnchorPoint: "top" 478 1536 basechar 0
LayerCount: 2
Fore
SplineSet
277 426 m 1
 336 406 421 397 484 397 c 0
 491 397 501 396 510 396 c 0
 530 396 550 399 550 416 c 0
 550 723 494 1272 481 1389 c 0
 479 1405 473 1420 473 1436 c 1
 454 1382 438 1298 429 1253 c 0
 416 1178 370 859 325 664 c 0
 309 590 277 514 277 438 c 2
 277 426 l 1
552 35 m 2
 552 303 l 2
 552 344 315 369 276 369 c 0
 260 369 196 54 187 20 c 0
 184 9 175 5 165 5 c 0
 146 5 123 20 123 39 c 0
 123 41 124 43 124 45 c 0
 134 84 200 383 220 471 c 0
 281 737 313 1008 372 1274 c 0
 380 1313 431 1536 468 1536 c 0
 488 1536 503 1532 515 1516 c 0
 535 1485 579 1010 585 940 c 2
 613 600 l 1
 613 422 636 244 636 66 c 2
 636 57 l 2
 636 24 634 0 591 0 c 0
 571 0 552 15 552 35 c 2
EndSplineSet
EndChar

StartChar: AE
Encoding: 198 198 1
Width: 940
VWidth: 0
GlyphClass: 2
Flags: HW
PickledData: "(dp1
S'org.pippin.gimp.org.kernagic'
p2
(dp3
S'lstem'
p4
I0
sS'rstem'
p5
I0
ssS'com.fontlab.hintData'
p6
(dp7
S'vhints'
p8
((dp9
S'position'
p10
I502
sS'width'
p11
I47
stp12
sS'hhints'
p13
((dp14
g10
I-41
sg11
I21
s(dp15
g10
I-14
sg11
I71
s(dp16
g10
I641
sg11
I49
s(dp17
g10
I1497
sg11
I57
stp18
ss."
HStem: -41 21<533 533> -14 71 641 49<568 595.5 568 612 558 595.5> 1497 57<674.5 752>
VStem: 502 47
LayerCount: 2
Fore
SplineSet
504 1393 m 1
 479 1362 310 727 304 664 c 1
 363 666 454 674 509 688 c 1
 511 844 517 997 517 1153 c 0
 517 1235 514 1315 504 1393 c 1
504 -12 m 1
 516 68 521 147 521 229 c 0
 521 360 511 492 511 621 c 1
 500 635 l 1
 469 629 295 625 289 600 c 2
 187 209 l 2
 177 174 152 2 115 2 c 0
 105 2 99 19 99 27 c 0
 101 121 156 336 181 432 c 0
 263 756 351 1076 449 1393 c 0
 461 1434 488 1544 543 1544 c 0
 594 1544 648 1554 701 1554 c 0
 721 1554 765 1551 765 1522 c 1
 752 1497 l 1
 684 1497 618 1493 550 1485 c 1
 550 1385 564 1282 564 1180 c 0
 564 1020 558 862 558 702 c 1
 568 690 l 1
 623 690 675 711 730 711 c 1
 758 676 l 1
 758 644 679 641 612 641 c 2
 558 641 l 1
 558 479 566 318 566 154 c 0
 566 125 564 99 564 70 c 0
 564 60 564 35 582 35 c 0
 660 35 736 57 814 57 c 0
 828 57 859 51 859 31 c 0
 859 -18 615 2 580 -14 c 0
 562 -24 553 -39 533 -41 c 1
 504 -12 l 1
EndSplineSet
EndChar

StartChar: B
Encoding: 66 66 13
Width: 740
VWidth: 0
GlyphClass: 2
Flags: HW
PickledData: "(dp1
S'org.pippin.gimp.org.kernagic'
p2
(dp3
S'lstem'
p4
I0
sS'rstem'
p5
I0
ssS'com.fontlab.hintData'
p6
(dp7
S'vhints'
p8
((dp9
S'position'
p10
I109
sS'width'
p11
I63
s(dp12
g10
I113
sg11
I77
s(dp13
g10
I395
sg11
I54
s(dp14
g10
I457
sg11
I57
stp15
sS'hhints'
p16
((dp17
g10
I-12
sg11
I80
s(dp18
g10
I1466
sg11
I70
stp19
ss."
HStem: -12 80<247.5 343.5 259 343.5> 1466 70<271.5 329.5 205.5 342>
VStem: 109 63 113 77 395 54 457 57
AnchorPoint: "top" 376 1536 basechar 0
LayerCount: 2
Fore
SplineSet
250 887 m 1
 252 887 256 885 256 885 c 1
 387 885 465 1133 465 1268 c 0
 465 1356 389 1466 295 1466 c 0
 248 1466 242 1413 242 1378 c 0
 242 1214 250 1051 250 887 c 1
260 70 m 1
 264 70 269 68 273 68 c 0
 414 68 527 211 527 371 c 0
 527 518 511 745 351 811 c 1
 316 809 285 794 250 788 c 1
 258 548 260 310 260 70 c 1
183 16 m 0
 183 188 193 363 193 535 c 0
 193 820 179 1104 179 1389 c 0
 179 1424 179 1536 232 1536 c 0
 427 1536 519 1394 519 1214 c 0
 519 1087 461 974 387 874 c 1
 532 731 584 617 584 433 c 0
 584 187 554 100 344 8 c 1
 315 6 292 -12 263 -12 c 2
 259 -12 l 2
 236 -12 183 -11 183 16 c 0
EndSplineSet
EndChar

StartChar: C
Encoding: 67 67 14
Width: 780
VWidth: 0
GlyphClass: 2
Flags: HW
PickledData: "(dp1
S'org.pippin.gimp.org.kernagic'
p2
(dp3
S'lstem'
p4
I0
sS'rstem'
p5
I389
ssS'com.fontlab.hintData'
p6
(dp7
S'vhints'
p8
((dp9
S'position'
p10
I94
sS'width'
p11
I54
stp12
sS'hhints'
p13
((dp14
g10
I-33
sg11
I80
s(dp15
g10
I1495
sg11
I70
stp16
ss."
HStem: -33 80<455.5 501> 1495 70<360 484.5>
VStem: 94 54
AnchorPoint: "top" 448 1536 basechar 0
LayerCount: 2
Fore
SplineSet
173 877 m 0
 173 950 171 1022 171 1090 c 0
 171 1355 200 1565 483 1565 c 0
 522 1565 601 1536 601 1489 c 0
 601 1471 583 1466 569 1466 c 0
 543 1466 503 1495 466 1495 c 0
 254 1495 225 1289 225 1081 c 0
 225 1004 229 927 229 860 c 0
 229 747 268 197 313 127 c 0
 350 70 424 47 487 47 c 0
 540 47 595 65 630 106 c 0
 640 121 655 132 668 132 c 0
 679 132 687 124 687 102 c 0
 687 -2 542 -33 460 -33 c 0
 378 -33 282 43 249 115 c 0
 210 199 173 756 173 877 c 0
EndSplineSet
EndChar

StartChar: D
Encoding: 68 68 20
Width: 820
VWidth: 0
GlyphClass: 2
Flags: HW
PickledData: "(dp1
S'org.pippin.gimp.org.kernagic'
p2
(dp3
S'lstem'
p4
I0
sS'rstem'
p5
I0
ssS'com.fontlab.hintData'
p6
(dp7
S'vhints'
p8
((dp9
S'position'
p10
I82
sS'width'
p11
I80
s(dp12
g10
I111
sg11
I51
s(dp13
g10
I127
sg11
I53
s(dp14
g10
I147
sg11
I64
s(dp15
g10
I535
sg11
I62
stp16
sS'hhints'
p17
((dp18
g10
I-4
sg11
I104
s(dp19
g10
I1473
sg11
I73
stp20
ss."
HStem: -4 104<234.5 278> 1473 73<293 303 303 405.5>
VStem: 82 80 111 51 127 53 147 64 535 62
AnchorPoint: "top" 377 1536 basechar 0
LayerCount: 2
Fore
SplineSet
268 100 m 1
 278 100 l 1
 548 243 592 681 592 874 c 0
 592 1132 549 1473 262 1473 c 0
 246 1473 219 1473 219 1450 c 0
 219 1335 237 1223 237 1110 c 0
 237 848 268 588 268 330 c 2
 268 100 l 1
172 37 m 0
 172 66 205 90 204 119 c 2
 198 299 l 1
 184 858 l 1
 179 896 181 1305 168 1391 c 0
 163 1426 139 1460 139 1497 c 0
 139 1546 256 1546 293 1546 c 2
 303 1546 l 2
 644 1546 654 988 654 837 c 0
 654 592 545 218 389 90 c 0
 350 59 270 -4 247 -4 c 0
 222 -4 172 8 172 37 c 0
EndSplineSet
EndChar

StartChar: Delta
Encoding: 8710 8710 23
Width: 800
VWidth: 0
GlyphClass: 2
Flags: HW
AnchorPoint: "top" 478 1536 basechar 0
LayerCount: 2
Fore
SplineSet
213 105 m 1
 239 96 442 94 505 94 c 0
 512 94 522 93 531 93 c 0
 551 93 571 96 571 113 c 0
 571 420 494 1272 481 1389 c 0
 479 1405 473 1420 473 1436 c 1
 454 1382 438 1298 429 1253 c 0
 416 1178 370 859 325 664 c 0
 309 590 213 144 213 117 c 2
 213 105 l 1
573 0 m 2
 522 0 234 5 195 5 c 2
 165 5 l 2
 146 5 123 20 123 39 c 0
 123 41 124 43 124 45 c 0
 134 84 200 383 220 471 c 0
 281 737 313 1008 372 1274 c 0
 380 1313 431 1536 468 1536 c 0
 488 1536 503 1532 515 1516 c 0
 535 1485 579 1010 585 940 c 2
 613 600 l 1
 613 422 636 244 636 66 c 2
 636 57 l 2
 636 24 634 0 591 0 c 2
 573 0 l 2
EndSplineSet
EndChar

StartChar: E
Encoding: 69 69 24
Width: 620
VWidth: 0
GlyphClass: 2
Flags: HW
PickledData: "(dp1
S'org.pippin.gimp.org.kernagic'
p2
(dp3
S'lstem'
p4
I0
sS'rstem'
p5
I205
ssS'com.fontlab.hintData'
p6
(dp7
S'vhints'
p8
((dp9
S'position'
p10
I119
sS'width'
p11
I227
s(dp12
g10
I123
sg11
I60
stp13
sS'hhints'
p14
((dp15
g10
I-12
sg11
I74
s(dp16
g10
I776
sg11
I60
s(dp17
g10
I1464
sg11
I78
stp18
ss."
HStem: -12 74<280 448> 776 60<253.5 259 256 259 256 373> 1464 78<331 351 351 354.5>
VStem: 119 227 123 60
AnchorPoint: "top" 326 1536 basechar 0
LayerCount: 2
Fore
SplineSet
192 33 m 0
 192 60 191 82 191 109 c 2
 191 113 l 1
 193 412 l 1
 191 1257 l 2
 191 1329 189 1413 187 1485 c 0
 187 1514 199 1542 224 1542 c 2
 351 1542 l 2
 380 1542 414 1542 414 1503 c 0
 414 1464 369 1464 340 1464 c 0
 322 1464 292 1468 274 1468 c 0
 258 1468 250 1467 250 1444 c 0
 250 1327 251 1213 251 1096 c 2
 251 840 l 2
 251 834 253 836 259 836 c 0
 298 838 331 840 370 840 c 0
 396 840 404 826 404 810 c 0
 404 785 396 776 373 776 c 2
 256 776 l 2
 251 776 248 775 248 766 c 0
 248 571 256 358 256 137 c 2
 256 61 l 1
 297 61 389 62 430 62 c 2
 448 62 l 2
 466 62 486 59 486 35 c 0
 486 -9 471 -12 367 -12 c 2
 280 -12 l 2
 232 -12 192 -9 192 33 c 0
EndSplineSet
EndChar

StartChar: Eng
Encoding: 330 330 33
Width: 920
VWidth: 0
GlyphClass: 2
Flags: HW
PickledData: "(dp1
S'org.pippin.gimp.org.kernagic'
p2
(dp3
S'lstem'
p4
I0
sS'rstem'
p5
I0
ssS'com.fontlab.hintData'
p6
(dp7
S'vhints'
p8
((dp9
S'position'
p10
I104
sS'width'
p11
I58
s(dp12
g10
I119
sg11
I100
s(dp13
g10
I123
sg11
I67
s(dp14
g10
I563
sg11
I53
s(dp15
g10
I586
sg11
I76
s(dp16
g10
I586
sg11
I51
stp17
sS'hhints'
p18
((dp19
g10
I0
sg11
I21
s(dp20
g10
I1532
sg11
I20
stp21
ss."
HStem: 0 21<204 251 204 204> 1532 20<230.5 256>
VStem: 104 58 119 100 123 67 563 53 586 76 586 51
LayerCount: 2
Fore
SplineSet
691 -131 m 0
 691 -284 608 -401 517 -467 c 1
 490 -467 474 -455 474 -428 c 0
 476 -401 530 -378 548 -360 c 0
 630 -278 638 -133 638 -47 c 2
 638 -29 l 1
 630 -17 622 3 616 23 c 0
 520 326 398 703 341 1016 c 0
 335 1045 342 1079 319 1102 c 1
 323 1112 l 1
 305 1208 290 1309 253 1401 c 1
 251 1381 247 1361 247 1341 c 0
 247 1329 247 1315 251 1303 c 1
 239 1262 237 1204 237 1161 c 2
 237 600 l 2
 237 403 265 213 265 16 c 1
 251 0 l 1
 204 0 l 1
 198 16 l 1
 202 32 202 80 202 98 c 0
 202 336 179 573 179 811 c 2
 179 1079 l 2
 179 1208 194 1337 194 1466 c 0
 194 1480 192 1495 192 1509 c 0
 192 1546 214 1552 247 1552 c 0
 265 1552 294 1533 294 1513 c 0
 294 1423 329 1385 354 1303 c 0
 374 1235 372 1164 386 1096 c 0
 425 908 485 723 534 539 c 0
 548 482 567 368 585 313 c 0
 603 258 644 115 644 115 c 1
 644 115 653 219 653 248 c 0
 653 486 661 723 661 961 c 0
 661 1067 655 1172 655 1278 c 0
 655 1305 661 1331 661 1356 c 0
 661 1362 661 1378 655 1382 c 1
 661 1399 l 1
 661 1446 l 2
 661 1487 661 1528 653 1567 c 1
 659 1587 684 1595 704 1595 c 0
 735 1595 737 1551 737 1528 c 1
 727 1508 724 1483 724 1460 c 0
 724 1437 726 1414 726 1391 c 0
 726 1371 726 1347 718 1329 c 1
 718 1114 712 897 712 682 c 0
 712 664 714 645 716 627 c 1
 712 618 l 1
 712 360 l 2
 712 256 702 143 702 37 c 0
 702 -14 691 -59 691 -131 c 0
EndSplineSet
EndChar

StartChar: Eth
Encoding: 208 208 35
Width: 880
VWidth: 0
GlyphClass: 2
Flags: HW
PickledData: "(dp1
S'org.pippin.gimp.org.kernagic'
p2
(dp3
S'lstem'
p4
I0
sS'rstem'
p5
I0
ssS'com.fontlab.hintData'
p6
(dp7
S'vhints'
p8
((dp9
S'position'
p10
I182
sS'width'
p11
I70
s(dp12
g10
I242
sg11
I67
s(dp13
g10
I260
sg11
I70
s(dp14
g10
I659
sg11
I74
stp15
sS'hhints'
p16
((dp17
g10
I741
sg11
I72
s(dp18
g10
I770
sg11
I74
stp19
ss."
HStem: 741 72 770 74<416.5 433.5 397.5 444>
VStem: 182 70 242 67 260 70 659 74
LayerCount: 2
Fore
SplineSet
290 451 m 1
 288 449 l 1
 288 302 309 153 309 6 c 1
 342 12 359 36 382 59 c 0
 513 188 638 430 638 616 c 0
 638 778 638 927 595 1087 c 1
 554 1286 438 1477 235 1538 c 1
 231 1534 l 1
 231 1438 249 864 280 821 c 1
 327 821 374 844 421 844 c 0
 446 844 462 815 464 795 c 1
 444 770 l 1
 389 770 331 768 276 756 c 1
 276 719 286 469 290 451 c 1
241 -49 m 1
 239 -49 l 1
 239 166 231 391 221 602 c 0
 217 651 216 707 204 754 c 1
 161 754 120 741 79 741 c 0
 54 741 51 756 51 776 c 0
 51 810 139 813 178 813 c 2
 196 813 l 1
 204 817 l 1
 204 819 206 825 206 827 c 0
 206 950 178 1073 178 1196 c 0
 178 1319 161 1440 161 1563 c 0
 161 1573 182 1606 194 1606 c 0
 374 1606 540 1384 616 1241 c 1
 616 1237 l 1
 688 1034 712 848 712 649 c 0
 712 387 551 23 301 -88 c 1
 272 -74 257 -82 241 -49 c 1
EndSplineSet
EndChar

StartChar: Euro
Encoding: 8364 8364 36
Width: 820
VWidth: 0
GlyphClass: 2
Flags: HW
PickledData: "(dp1
S'org.pippin.gimp.org.kernagic'
p2
(dp3
S'lstem'
p4
I0
sS'rstem'
p5
I0
ssS'com.fontlab.hintData'
p6
(dp7
S'vhints'
p8
((dp9
S'position'
p10
I96
sS'width'
p11
I56
stp12
sS'hhints'
p13
((dp14
g10
I-33
sg11
I80
s(dp15
g10
I647
sg11
I68
s(dp16
g10
I804
sg11
I55
s(dp17
g10
I1466
sg11
I99
stp18
ss."
HStem: -33 80<484.5 530> 647 68 804 55 1466 99<475 531.5 370.5 605>
VStem: 96 56
LayerCount: 2
Fore
SplineSet
203 805 m 1
 152 804 118 804 92 804 c 0
 57 804 43 823 43 839 c 0
 43 848 47 856 55 859 c 0
 59 860 119 866 202 869 c 1
 202 877 l 2
 202 950 200 1022 200 1090 c 0
 200 1355 229 1565 512 1565 c 0
 551 1565 630 1536 630 1489 c 0
 630 1471 612 1466 598 1466 c 0
 352 1466 270 1449 270 1153 c 0
 270 1051 263 962 258 871 c 1
 385 875 534 877 579 877 c 0
 597 877 624 842 624 822 c 0
 624 815 417 809 259 806 c 1
 260 773 270 660 273 607 c 1
 404 611 563 613 610 613 c 0
 628 613 655 575 655 555 c 0
 655 548 436 542 276 539 c 1
 291 336 311 175 342 127 c 0
 379 70 453 47 516 47 c 0
 569 47 624 65 659 106 c 1
 675 106 690 109 706 113 c 1
 716 102 l 1
 716 -2 571 -33 489 -33 c 0
 407 -33 311 43 278 115 c 0
 252 171 234 330 220 538 c 1
 180 537 147 537 129 537 c 0
 111 537 86 572 86 595 c 0
 86 599 142 602 217 605 c 1
 214 657 204 769 203 805 c 1
EndSplineSet
EndChar

StartChar: F
Encoding: 70 70 37
Width: 580
VWidth: 0
GlyphClass: 2
Flags: HW
PickledData: "(dp1
S'org.pippin.gimp.org.kernagic'
p2
(dp3
S'lstem'
p4
I0
sS'rstem'
p5
I197
ssS'com.fontlab.hintData'
p6
(dp7
S'vhints'
p8
((dp9
S'position'
p10
I92
sS'width'
p11
I64
s(dp12
g10
I121
sg11
I65
s(dp13
g10
I147
sg11
I78
stp14
sS'hhints'
p15
((dp16
g10
I-4
sg11
I21
s(dp17
g10
I1483
sg11
I66
stp18
ss."
HStem: -4 21<235.5 265.5> 1483 66<242.5 261>
VStem: 92 64 121 65 147 78
AnchorPoint: "top" 306 1536 basechar 0
LayerCount: 2
Fore
SplineSet
251 -4 m 0
 220 -4 218 26 218 49 c 2
 218 201 l 2
 218 240 192 612 192 819 c 0
 192 915 163 1498 163 1512 c 2
 163 1525 l 2
 163 1546 189 1549 254 1549 c 0
 281 1549 315 1548 356 1548 c 0
 381 1548 390 1521 390 1501 c 0
 390 1481 364 1481 352 1481 c 0
 340 1481 270 1483 252 1483 c 0
 233 1483 227 1482 227 1443 c 0
 227 1398 257 892 257 844 c 1
 304 844 348 868 395 868 c 0
 413 868 427 843 427 827 c 0
 427 768 257 811 257 762 c 0
 257 531 296 303 296 72 c 1
 290 61 l 1
 294 51 296 42 296 34 c 0
 296 11 280 -4 251 -4 c 0
EndSplineSet
EndChar

StartChar: G
Encoding: 71 71 38
Width: 920
VWidth: 0
GlyphClass: 2
Flags: HW
PickledData: "(dp1
S'org.pippin.gimp.org.kernagic'
p2
(dp3
S'lstem'
p4
I0
sS'rstem'
p5
I0
ssS'com.fontlab.hintData'
p6
(dp7
S'vhints'
p8
((dp9
S'position'
p10
I94
sS'width'
p11
I69
s(dp12
g10
I600
sg11
I76
stp13
sS'hhints'
p14
((dp15
g10
I-33
sg11
I58
s(dp16
g10
I391
sg11
I72
s(dp17
g10
I1522
sg11
I49
stp18
ss."
HStem: -33 58<393 502.5> 391 72<635.5 647.5> 1522 49<349 480>
VStem: 94 69 600 76
AnchorPoint: "top" 497 1536 basechar 0
LayerCount: 2
Fore
SplineSet
171 877 m 0
 171 1100 180 1571 497 1571 c 0
 520 1571 558 1567 558 1536 c 0
 558 1516 546 1511 528 1511 c 0
 508 1511 490 1522 470 1522 c 0
 228 1522 245 989 241 827 c 0
 240 794 240 756 240 715 c 0
 240 436 283 25 503 25 c 0
 583 25 634 61 677 127 c 1
 677 166 671 391 624 391 c 0
 597 391 571 383 542 383 c 0
 519 383 495 389 495 418 c 0
 495 447 623 463 648 463 c 0
 697 463 712 418 712 377 c 0
 712 254 753 135 753 12 c 0
 753 -4 746 -20 726 -20 c 0
 697 -20 677 -6 677 25 c 0
 677 27 679 33 679 35 c 1
 601 -10 532 -33 473 -33 c 0
 264 -33 171 255 171 877 c 0
EndSplineSet
EndChar

StartChar: H
Encoding: 72 72 44
Width: 740
VWidth: 0
GlyphClass: 2
Flags: HW
PickledData: "(dp1
S'org.pippin.gimp.org.kernagic'
p2
(dp3
S'lstem'
p4
I0
sS'rstem'
p5
I0
ssS'com.fontlab.hintData'
p6
(dp7
S'vhints'
p8
((dp9
S'position'
p10
I94
sS'width'
p11
I51
s(dp12
g10
I154
sg11
I53
s(dp13
g10
I391
sg11
I62
s(dp14
g10
I426
sg11
I57
stp15
sS'hhints'
p16
((dp17
g10
I-8
sg11
I9
s(dp18
g10
I770
sg11
I35
s(dp19
g10
I771
sg11
I50
s(dp20
g10
I1533
sg11
I20
stp21
ss."
HStem: -8 9 770 35 771 50<451.5 464 464 477> 1533 20<182.5 195.5>
VStem: 94 51 154 53 391 62 426 57
AnchorPoint: "top" 356 1536 basechar 0
LayerCount: 2
Fore
SplineSet
524 -20 m 0
 497 -20 495 -6 495 12 c 0
 495 28 497 43 497 59 c 0
 497 292 489 538 477 771 c 1
 464 771 l 2
 439 771 411 770 386 770 c 0
 337 770 266 769 241 763 c 1
 241 525 276 261 276 23 c 0
 276 7 275 -8 255 -8 c 0
 237 -8 223 1 223 20 c 0
 223 66 208 494 200 598 c 0
 177 909 163 1221 163 1532 c 0
 163 1546 176 1553 189 1553 c 0
 202 1553 216 1545 214 1526 c 1
 214 1374 l 2
 214 1235 231 1097 231 958 c 2
 231 858 l 2
 231 833 233 805 242 805 c 0
 322 805 397 821 477 821 c 1
 479 825 l 1
 479 1056 460 1289 460 1520 c 0
 460 1537 473 1545 487 1545 c 0
 504 1545 522 1535 522 1518 c 0
 522 885 552 293 552 49 c 2
 552 20 l 2
 552 4 544 -20 524 -20 c 0
EndSplineSet
EndChar

StartChar: Hbar
Encoding: 294 294 45
Width: 760
VWidth: 0
GlyphClass: 2
Flags: HW
PickledData: "(dp1
S'org.pippin.gimp.org.kernagic'
p2
(dp3
S'lstem'
p4
I0
sS'rstem'
p5
I0
ssS'com.fontlab.hintData'
p6
(dp7
S'vhints'
p8
((dp9
S'position'
p10
I99
sS'width'
p11
I61
s(dp12
g10
I131
sg11
I41
s(dp13
g10
I397
sg11
I56
s(dp14
g10
I426
sg11
I66
stp15
sS'hhints'
p16
((dp17
g10
I-33
sg11
I21
s(dp18
g10
I760
sg11
I61
s(dp19
g10
I1206
sg11
I39
s(dp20
g10
I1528
sg11
I20
stp21
ss."
HStem: -33 21<519.5 543> 760 61<460.5 475> 1206 39<177 177> 1528 20<205 205 473 499.5>
VStem: 99 61 131 41 397 56 426 66
LayerCount: 2
Fore
SplineSet
533 -33 m 0
 506 -33 504 -6 504 12 c 0
 504 28 506 43 506 59 c 0
 506 292 498 529 486 762 c 0
 482 762 477 760 473 760 c 0
 448 760 420 770 395 770 c 0
 346 770 293 770 250 745 c 1
 250 507 285 275 285 37 c 0
 285 21 284 6 264 6 c 0
 246 6 238 9 232 27 c 0
 212 86 217 494 209 598 c 0
 194 800 183 1003 177 1206 c 1
 174 1206 l 2
 156 1206 131 1218 131 1241 c 0
 131 1242 148 1244 176 1245 c 1
 173 1341 172 1436 172 1532 c 1
 205 1548 l 1
 232 1526 l 1
 226 1475 223 1425 223 1374 c 0
 223 1331 225 1289 227 1247 c 1
 302 1249 404 1250 475 1251 c 1
 472 1341 469 1430 469 1520 c 0
 469 1530 471 1538 473 1548 c 1
 526 1548 531 1462 531 1382 c 2
 531 1251 l 1
 544 1249 559 1233 559 1212 c 1
 532 1212 l 1
 537 667 561 271 561 49 c 1
 565 41 570 30 570 20 c 0
 570 4 553 -33 533 -33 c 0
229 1207 m 1
 234 1124 240 1041 240 958 c 0
 240 931 238 904 238 877 c 0
 238 852 240 828 246 805 c 1
 326 805 406 821 486 821 c 1
 488 825 l 1
 488 953 482 1083 477 1212 c 1
 406 1211 303 1208 229 1207 c 1
EndSplineSet
EndChar

StartChar: I
Encoding: 73 73 47
Width: 660
VWidth: 0
GlyphClass: 2
Flags: HW
PickledData: "(dp1
S'org.pippin.gimp.org.kernagic'
p2
(dp3
S'lstem'
p4
I0
sS'rstem'
p5
I0
ssS'com.fontlab.hintData'
p6
(dp7
S'vhints'
p8
((dp9
S'position'
p10
I172
sS'width'
p11
I47
s(dp12
g10
I202
sg11
I68
stp13
sS'hhints'
p14
((dp15
g10
I10
sg11
I60
s(dp16
g10
I1484
sg11
I64
stp17
ss."
HStem: 10 60<209 261> 1484 64<176 272.5 216.5 255>
VStem: 172 47 202 68
AnchorPoint: "top" 296 1536 basechar 0
LayerCount: 2
Fore
SplineSet
289 70 m 1
 289 429 268 765 259 1114 c 0
 259 1159 261 1266 261 1354 c 0
 261 1407 261 1464 255 1484 c 1
 185 1484 l 2
 167 1484 163 1499 163 1513 c 0
 163 1543 177 1548 256 1548 c 0
 289 1548 333 1547 392 1547 c 0
 410 1547 429 1538 429 1518 c 0
 429 1504 422 1485 404 1485 c 0
 386 1485 369 1487 355 1487 c 0
 322 1487 306 1487 306 1474 c 0
 306 1083 357 577 357 184 c 0
 357 149 355 106 355 71 c 1
 429 71 l 2
 463 71 475 57 475 42 c 0
 475 26 461 8 447 8 c 0
 361 8 311 10 211 10 c 0
 189 10 175 28 175 44 c 0
 175 58 185 70 209 70 c 2
 289 70 l 1
EndSplineSet
EndChar

StartChar: J
Encoding: 74 74 58
Width: 620
VWidth: 0
GlyphClass: 2
Flags: HW
PickledData: "(dp1
S'org.pippin.gimp.org.kernagic'
p2
(dp3
S'lstem'
p4
I69
sS'rstem'
p5
I0
ssS'com.fontlab.hintData'
p6
(dp7
S'vhints'
p8
((dp9
S'position'
p10
I223
sS'width'
p11
I62
s(dp12
g10
I266
sg11
I64
stp13
sS'hhints'
p14
((dp15
g10
I1489
sg11
I65
stp16
ss."
HStem: 1489 65<213.5 309>
VStem: 223 62 266 64
AnchorPoint: "top" 346 1536 basechar 0
LayerCount: 2
Fore
SplineSet
188 -160 m 0
 190 -133 244 -110 262 -92 c 0
 344 -10 352 135 352 221 c 0
 352 414 334 608 330 801 c 0
 325 1026 309 1261 309 1489 c 1
 272 1489 223 1485 186 1485 c 0
 170 1485 158 1500 158 1516 c 0
 158 1548 174 1554 253 1554 c 0
 295 1554 355 1552 440 1552 c 0
 458 1552 473 1538 473 1520 c 0
 473 1492 457 1489 417 1489 c 2
 371 1489 l 1
 371 1077 416 451 416 305 c 0
 416 75 404 -79 231 -199 c 1
 204 -199 188 -187 188 -160 c 0
EndSplineSet
EndChar

StartChar: K
Encoding: 75 75 60
Width: 820
VWidth: 0
GlyphClass: 2
Flags: HW
PickledData: "(dp1
S'org.pippin.gimp.org.kernagic'
p2
(dp3
S'lstem'
p4
I0
sS'rstem'
p5
I0
ssS'com.fontlab.hintData'
p6
(dp7
S'vhints'
p8
((dp9
S'position'
p10
I105
sS'width'
p11
I67
stp12
sS'hhints'
p13
((dp14
g10
I-26
sg11
I21
stp15
ss."
HStem: -26 21<205.5 236>
VStem: 105 67
AnchorPoint: "top" 416 1536 basechar 0
LayerCount: 2
Fore
SplineSet
361 884 m 1
 347 919 l 1
 338 902 271 792 254 763 c 1
 254 34 l 2
 254 -4 251 -26 221 -26 c 0
 190 -26 187 -5 187 38 c 2
 187 657 l 2
 187 901 196 1199 196 1443 c 0
 196 1496 198 1540 223 1540 c 0
 264 1540 267 1526 267 1453 c 0
 267 1281 260 911 260 864 c 1
 262 864 l 1
 332 1011 386 1163 449 1313 c 0
 465 1354 561 1597 594 1597 c 0
 612 1597 629 1587 629 1567 c 0
 623 1518 594 1489 576 1448 c 0
 537 1364 423 1082 385 993 c 0
 381 983 381 978 387 969 c 0
 514 647 633 190 684 12 c 0
 686 7 687 2 687 -2 c 0
 687 -22 668 -32 651 -32 c 0
 640 -32 630 -28 627 -19 c 0
 590 100 412 737 361 884 c 1
EndSplineSet
EndChar

StartChar: L
Encoding: 76 76 62
Width: 580
VWidth: 0
GlyphClass: 2
Flags: HW
PickledData: "(dp1
S'org.pippin.gimp.org.kernagic'
p2
(dp3
S'lstem'
p4
I0
sS'rstem'
p5
I189
ssS'com.fontlab.hintData'
p6
(dp7
S'vhints'
p8
((dp9
S'position'
p10
I98
sS'width'
p11
I66
s(dp12
g10
I119
sg11
I63
s(dp13
g10
I139
sg11
I66
stp14
sS'hhints'
p15
((dp16
g10
I-11
sg11
I79
s(dp17
g10
I1554
sg11
I20
stp18
ss."
HStem: -11 79<410 416> 1554 20<194 212.5>
VStem: 98 66 119 63 139 66
AnchorPoint: "top" 326 1536 basechar 0
AnchorPoint: "slash" 221 839 basechar 0
LayerCount: 2
Fore
SplineSet
211 31 m 0
 211 49 212 72 212 113 c 0
 212 306 192 499 192 694 c 0
 192 979 171 1265 171 1550 c 0
 171 1566 187 1574 201 1574 c 0
 224 1574 237 1568 237 1545 c 0
 237 1359 237 1163 245 977 c 1
 255 610 l 1
 255 454 274 231 278 75 c 0
 278 68 283 68 312 68 c 2
 438 68 l 2
 461 68 466 49 466 31 c 0
 466 15 459 -9 441 -9 c 0
 433 -9 422 -11 410 -11 c 0
 346 -12 260 -12 245 -12 c 0
 225 -12 211 8 211 31 c 0
EndSplineSet
EndChar

StartChar: Lslash
Encoding: 321 321 67
Width: 740
VWidth: 0
GlyphClass: 2
Flags: HW
PickledData: "(dp1
S'org.pippin.gimp.org.kernagic'
p2
(dp3
S'lstem'
p4
I0
sS'rstem'
p5
I0
ssS'com.fontlab.hintData'
p6
(dp7
S'vhints'
p8
((dp9
S'position'
p10
I98
sS'width'
p11
I66
s(dp12
g10
I119
sg11
I65
s(dp13
g10
I139
sg11
I58
stp14
sS'hhints'
p15
((dp16
g10
I-23
sg11
I21
s(dp17
g10
I2
sg11
I53
s(dp18
g10
I680
sg11
I65
s(dp19
g10
I1551
sg11
I20
stp20
ss."
HStem: -23 21 2 53 680 65 1551 20
VStem: 98 66 119 65 139 58
LayerCount: 2
Fore
SplineSet
46 727 m 0
 36 727 13 733 13 748 c 0
 13 780 314 919 389 952 c 0
 394 954 402 956 409 956 c 0
 421 956 444 950 444 936 c 0
 444 904 148 768 66 731 c 0
 60 729 53 727 46 727 c 0
EndSplineSet
Refer: 62 76 N 1 0 0 1 0 0 2
EndChar

StartChar: M
Encoding: 77 77 68
Width: 980
VWidth: 0
GlyphClass: 2
Flags: HW
PickledData: "(dp1
S'org.pippin.gimp.org.kernagic'
p2
(dp3
S'lstem'
p4
I0
sS'rstem'
p5
I0
ssS'com.fontlab.hintData'
p6
(dp7
S'vhints'
p8
((dp9
S'position'
p10
I106
sS'width'
p11
I64
s(dp12
g10
I637
sg11
I63
s(dp13
g10
I653
sg11
I47
s(dp14
g10
I668
sg11
I75
stp15
sS'hhints'
p16
((dp17
g10
I-47
sg11
I21
s(dp18
g10
I1541
sg11
I20
stp19
ss."
HStem: -47 21<764.5 794.5> 1541 20<211 222.5>
VStem: 106 64 637 63 653 47 668 75
AnchorPoint: "top" 486 1536 basechar 0
LayerCount: 2
Fore
SplineSet
741 10 m 2
 741 197 l 2
 741 422 726 645 726 870 c 0
 726 946 730 1024 730 1100 c 0
 730 1161 724 1221 722 1282 c 1
 718 1278 719 1274 718 1268 c 0
 678 1011 593 570 575 483 c 0
 568 450 545 338 538 296 c 0
 532 260 511 238 491 238 c 0
 472 238 453 258 448 302 c 0
 436 392 263 1292 245 1317 c 1
 239 1178 237 1040 237 903 c 0
 237 686 243 469 243 252 c 0
 243 186 253 123 253 57 c 0
 253 34 253 20 237 4 c 1
 186 4 179 62 179 111 c 2
 179 453 l 2
 179 590 182 729 182 868 c 0
 182 1030 188 1192 188 1354 c 2
 188 1533 l 2
 188 1548 204 1561 218 1561 c 0
 227 1561 235 1556 239 1544 c 0
 259 1479 387 971 442 717 c 0
 456 654 496 413 502 376 c 1
 514 438 555 692 565 739 c 0
 600 907 628 1073 659 1241 c 0
 677 1341 705 1490 710 1523 c 0
 715 1552 730 1566 745 1566 c 0
 759 1566 773 1553 773 1528 c 2
 773 1325 l 2
 773 1016 806 706 806 399 c 0
 806 273 816 198 816 24 c 0
 816 -42 803 -47 786 -47 c 0
 743 -47 741 -20 741 10 c 2
EndSplineSet
EndChar

StartChar: N
Encoding: 78 78 69
Width: 900
VWidth: 0
GlyphClass: 2
Flags: HW
PickledData: "(dp1
S'org.pippin.gimp.org.kernagic'
p2
(dp3
S'lstem'
p4
I0
sS'rstem'
p5
I0
ssS'com.fontlab.hintData'
p6
(dp7
S'vhints'
p8
((dp9
S'position'
p10
I122
sS'width'
p11
I58
s(dp12
g10
I586
sg11
I56
stp13
sS'hhints'
p14
((dp15
g10
I0
sg11
I21
s(dp16
g10
I1532
sg11
I20
stp17
ss."
HStem: 0 21<191 238 191 191> 1532 20<217.5 243>
VStem: 122 58 586 56
AnchorPoint: "top" 466 1536 basechar 0
LayerCount: 2
Fore
SplineSet
244 1426 m 1
 242 1406 242 1361 242 1341 c 2
 242 600 l 2
 242 403 252 213 252 16 c 1
 238 0 l 1
 191 0 l 1
 185 16 l 1
 189 32 189 80 189 98 c 0
 189 336 184 573 184 811 c 2
 184 1079 l 2
 184 1208 181 1337 181 1466 c 0
 181 1480 179 1495 179 1509 c 0
 179 1546 201 1552 234 1552 c 0
 252 1552 276 1532 281 1513 c 0
 308 1404 340 1232 373 1096 c 0
 403 972 472 723 521 539 c 0
 542 452 587 272 627 150 c 1
 639 177 640 219 640 248 c 0
 640 486 648 723 648 961 c 0
 648 1067 651 1172 651 1278 c 2
 649 1567 l 1
 655 1587 671 1595 691 1595 c 0
 704 1595 707 1566 707 1535 c 0
 707 1506 704 1475 704 1460 c 2
 704 1329 l 2
 704 1000 699 685 699 360 c 0
 699 255 689 142 689 37 c 0
 689 2 676 -23 637 -23 c 0
 590 -23 589 63 580 94 c 0
 535 256 369 846 328 1016 c 0
 300 1133 257 1361 244 1426 c 1
EndSplineSet
EndChar

StartChar: O
Encoding: 79 79 74
Width: 840
VWidth: 0
GlyphClass: 2
Flags: HW
PickledData: "(dp1
S'org.pippin.gimp.org.kernagic'
p2
(dp3
S'lstem'
p4
I0
sS'rstem'
p5
I0
ssS'com.fontlab.hintData'
p6
(dp7
S'vhints'
p8
((dp9
S'position'
p10
I91
sS'width'
p11
I61
s(dp12
g10
I526
sg11
I60
stp13
sS'hhints'
p14
((dp15
g10
I-43
sg11
I57
s(dp16
g10
I1518
sg11
I53
stp17
ss."
HStem: -43 57<366 530.5 366 560> 1518 53<309.5 463.5 283.5 493.5>
VStem: 91 61 526 60
AnchorPoint: "top" 386 1536 basechar 0
LayerCount: 2
Fore
SplineSet
383 1518 m 0
 236 1518 232 1059 232 931 c 2
 232 831 l 2
 232 690 273 14 459 14 c 0
 602 14 606 540 606 653 c 2
 606 662 l 2
 606 834 604 1518 383 1518 c 0
171 1025 m 2
 171 1272 194 1571 373 1571 c 0
 554 1571 595 1399 617 1239 c 0
 646 1032 666 827 666 618 c 2
 666 612 l 2
 666 403 665 -43 455 -43 c 0
 184 -43 171 637 171 942 c 2
 171 1025 l 2
EndSplineSet
EndChar

StartChar: OE
Encoding: 338 338 75
Width: 1200
VWidth: 0
GlyphClass: 2
Flags: HW
PickledData: "(dp1
S'org.pippin.gimp.org.kernagic'
p2
(dp3
S'lstem'
p4
I0
sS'rstem'
p5
I0
ssS'com.fontlab.hintData'
p6
(dp7
S'vhints'
p8
((dp9
S'position'
p10
I94
sS'width'
p11
I49
s(dp12
g10
I692
sg11
I47
s(dp13
g10
I705
sg11
I63
s(dp14
g10
I733
sg11
I39
stp15
sS'hhints'
p16
((dp17
g10
I-20
sg11
I55
s(dp18
g10
I10
sg11
I62
s(dp19
g10
I778
sg11
I58
s(dp20
g10
I1470
sg11
I56
s(dp21
g10
I1497
sg11
I55
stp22
ss."
HStem: -20 55 10 62<555 632.5 555 681.5> 778 58<985.5 994 975 1013.5> 1470 56<1018 1019 1019 1026 868 1065> 1497 55<377 514 345 548>
VStem: 94 49 692 47 705 63 733 39
LayerCount: 2
Fore
SplineSet
345 197 m 1
 415 121 503 72 607 72 c 0
 658 72 810 80 810 154 c 0
 810 488 782 819 782 1153 c 0
 782 1235 769 1319 769 1401 c 1
 712 1477 593 1497 503 1497 c 0
 251 1497 220 1153 220 967 c 0
 220 918 222 868 222 821 c 0
 222 796 222 773 220 748 c 1
 224 741 l 1
 224 653 249 211 345 197 c 1
790 10 m 1
 802 43 l 1
 753 37 706 10 657 10 c 0
 342 10 181 250 181 545 c 0
 181 684 171 826 171 965 c 0
 171 1147 222 1552 468 1552 c 0
 560 1552 697 1545 763 1473 c 1
 757 1495 l 1
 788 1538 l 1
 815 1538 841 1526 868 1526 c 2
 1019 1526 l 2
 1033 1526 1050 1530 1064 1530 c 1
 1074 1524 1095 1505 1095 1493 c 0
 1095 1473 1072 1470 1058 1470 c 0
 978 1470 896 1479 816 1479 c 1
 816 1327 845 1176 845 1024 c 0
 845 989 841 953 841 918 c 0
 841 889 843 861 851 834 c 1
 931 831 l 2
 949 831 966 836 984 836 c 0
 1004 836 1021 827 1033 811 c 1
 1033 786 1026 778 1001 778 c 0
 970 778 939 784 908 784 c 0
 898 784 849 784 849 766 c 0
 849 522 863 279 863 35 c 1
 916 37 968 43 1021 43 c 0
 1046 43 1162 43 1162 4 c 1
 1150 -14 l 1
 1046 -14 943 -20 839 -20 c 0
 821 -20 792 -13 790 10 c 1
EndSplineSet
EndChar

StartChar: Omega
Encoding: 8486 8486 83
Width: 840
VWidth: 0
GlyphClass: 2
Flags: HW
AnchorPoint: "top" 386 1536 basechar 0
LayerCount: 2
Fore
SplineSet
543 73 m 1
 614 220 664 491 664 682 c 2
 664 688 l 2
 664 1005 663 1501 371 1501 c 0
 192 1501 169 1202 169 955 c 2
 169 872 l 2
 169 666 215 290 302 67 c 1
 203 69 l 1
 125 69 75 65 75 48 c 0
 75 25 100 13 118 13 c 0
 158 13 260 11 329 11 c 0
 362 11 379 19 379 34 c 0
 379 37 378 41 376 45 c 0
 284 239 230 654 230 761 c 2
 230 861 l 2
 230 989 234 1448 381 1448 c 0
 602 1448 604 904 604 732 c 2
 604 723 l 2
 604 621 549 241 487 41 c 0
 486 38 485 35 485 33 c 0
 485 17 513 13 549 13 c 0
 573 13 601 15 627 15 c 0
 665 15 748 19 748 36 c 0
 748 56 721 71 703 71 c 0
 644 71 598 72 543 73 c 1
EndSplineSet
EndChar

StartChar: Oslash
Encoding: 216 216 84
Width: 760
VWidth: 0
GlyphClass: 2
Flags: HW
PickledData: "(dp1
S'org.pippin.gimp.org.kernagic'
p2
(dp3
S'lstem'
p4
I0
sS'rstem'
p5
I0
ssS'com.fontlab.hintData'
p6
(dp7
S'vhints'
p8
((dp9
S'position'
p10
I100
sS'width'
p11
I43
s(dp12
g10
I162
sg11
I53
s(dp13
g10
I317
sg11
I56
s(dp14
g10
I381
sg11
I37
s(dp15
g10
I438
sg11
I43
stp16
sS'hhints'
p17
((dp18
g10
I-20
sg11
I43
s(dp19
g10
I1513
sg11
I56
s(dp20
g10
I1530
sg11
I20
stp21
ss."
HStem: -20 43<351 450.5 351 468.5> 1513 56<329 339 254 346.5> 1530 20<396 396>
VStem: 100 43 162 53 317 56 381 37 438 43
LayerCount: 2
Fore
SplineSet
241 705 m 1
 241 562 265 417 265 274 c 1
 288 303 360 1112 372 1227 c 0
 380 1303 396 1378 396 1456 c 0
 396 1491 362 1513 331 1513 c 0
 327 1513 304 1503 298 1501 c 1
 286 1505 l 1
 225 1468 222 1002 222 852 c 2
 222 839 l 2
 222 796 223 746 241 705 c 1
294 119 m 0
 294 51 318 23 384 23 c 0
 517 23 517 311 517 399 c 0
 517 596 514 1250 444 1389 c 1
 381 1002 382 598 308 215 c 0
 302 182 294 150 294 119 c 0
212 -264 m 1
 181 -240 l 1
 183 -162 204 -135 241 111 c 0
 241 136 226 159 222 184 c 0
 182 434 179 698 179 952 c 2
 179 1081 l 2
 179 1194 179 1569 329 1569 c 0
 349 1569 372 1546 388 1546 c 1
 396 1550 l 1
 407 1540 l 1
 436 1624 442 1714 460 1798 c 1
 497 1798 l 1
 495 1739 l 1
 485 1673 452 1491 452 1491 c 1
 452 1468 468 1448 482 1432 c 1
 480 1427 l 1
 484 1404 501 1384 511 1366 c 0
 527 1327 534 1272 534 1229 c 1
 530 1227 l 1
 530 1104 560 973 560 850 c 2
 560 838 l 1
 564 831 l 1
 564 702 571 573 571 444 c 0
 571 303 569 -20 368 -20 c 0
 331 -20 290 -11 267 20 c 1
 265 20 l 1
 257 -31 230 -174 212 -264 c 1
EndSplineSet
EndChar

StartChar: P
Encoding: 80 80 87
Width: 660
VWidth: 0
GlyphClass: 2
Flags: HW
PickledData: "(dp1
S'org.pippin.gimp.org.kernagic'
p2
(dp3
S'lstem'
p4
I0
sS'rstem'
p5
I261
ssS'com.fontlab.hintData'
p6
(dp7
S'vhints'
p8
((dp9
S'position'
p10
I113
sS'width'
p11
I43
s(dp12
g10
I125
sg11
I59
s(dp13
g10
I131
sg11
I70
s(dp14
g10
I383
sg11
I57
stp15
sS'hhints'
p16
((dp17
g10
I-12
sg11
I21
s(dp18
g10
I1505
sg11
I60
stp19
ss."
HStem: -12 21<209.5 242.5> 1505 60<222 310.5 197.5 311.5>
VStem: 113 43 125 59 131 70 383 57
AnchorPoint: "top" 296 1536 basechar 0
LayerCount: 2
Fore
SplineSet
222 1505 m 1
 222 1272 246 1038 246 805 c 1
 250 801 l 1
 281 803 296 828 316 848 c 0
 414 946 449 1053 449 1182 c 0
 449 1321 401 1505 222 1505 c 1
222 -12 m 0
 197 -12 197 45 197 59 c 0
 197 182 191 303 191 426 c 0
 191 537 189 647 189 758 c 0
 189 928 185 1098 179 1266 c 0
 175 1352 171 1500 171 1536 c 1
 183 1554 186 1565 209 1565 c 0
 412 1565 506 1364 506 1186 c 0
 506 1021 414 761 250 725 c 1
 250 500 267 276 267 51 c 0
 267 18 263 -12 222 -12 c 0
EndSplineSet
EndChar

StartChar: Q
Encoding: 81 81 88
Width: 860
VWidth: 0
GlyphClass: 2
Flags: HW
PickledData: "(dp1
S'org.pippin.gimp.org.kernagic'
p2
(dp3
S'lstem'
p4
I0
sS'rstem'
p5
I0
ssS'com.fontlab.hintData'
p6
(dp7
S'vhints'
p8
((dp9
S'position'
p10
I95
sS'width'
p11
I59
s(dp12
g10
I516
sg11
I72
stp13
sS'hhints'
p14
((dp15
g10
I-283
sg11
I66
s(dp16
g10
I27
sg11
I53
s(dp17
g10
I1520
sg11
I57
stp18
ss."
HStem: -283 66<657 664.5> 27 53<364 481> 1520 57<320 439 293 489.5>
VStem: 95 59 516 72
LayerCount: 2
Fore
SplineSet
238 713 m 2
 238 590 l 2
 238 457 271 80 457 80 c 0
 558 80 600 329 600 887 c 2
 600 941 l 2
 600 1161 592 1520 387 1520 c 0
 253 1520 238 900 238 713 c 2
651 -283 m 0
 637 -283 606 -262 590 -256 c 0
 504 -219 508 -63 481 27 c 1
 192 27 180 381 180 573 c 0
 180 631 179 697 179 765 c 0
 179 1127 195 1577 391 1577 c 0
 487 1577 600 1485 616 1391 c 0
 661 1137 672 852 672 594 c 0
 672 369 640 189 545 53 c 1
 547 28 559 9 565 -14 c 0
 581 -73 563 -217 657 -217 c 2
 665 -217 l 2
 687 -217 729 -219 729 -244 c 0
 729 -283 678 -283 651 -283 c 0
EndSplineSet
EndChar

StartChar: R
Encoding: 82 82 89
Width: 700
VWidth: 0
GlyphClass: 2
Flags: HW
PickledData: "(dp1
S'org.pippin.gimp.org.kernagic'
p2
(dp3
S'lstem'
p4
I0
sS'rstem'
p5
I293
ssS'com.fontlab.hintData'
p6
(dp7
S'vhints'
p8
((dp9
S'position'
p10
I106
sS'width'
p11
I72
s(dp12
g10
I121
sg11
I52
s(dp13
g10
I317
sg11
I68
stp14
sS'hhints'
p15
((dp16
g10
I-14
sg11
I21
s(dp17
g10
I1492
sg11
I64
stp18
ss."
HStem: -14 21<212 236.5> 1492 64<262.5 316>
VStem: 106 72 121 52 317 68
AnchorPoint: "top" 306 1536 basechar 0
LayerCount: 2
Fore
SplineSet
254 1491 m 1
 254 913 l 1
 283 913 350 994 364 1018 c 0
 387 1061 398 1157 398 1206 c 0
 398 1287 368 1492 264 1492 c 0
 261 1492 257 1491 254 1491 c 1
505 20 m 0
 495 62 425 295 396 432 c 0
 365 571 340 733 303 870 c 1
 294 866 267 848 255 846 c 1
 259 57 l 1
 259 27 l 2
 259 2 251 -14 222 -14 c 0
 202 -14 187 0 187 20 c 2
 187 51 l 2
 187 465 202 860 202 1274 c 2
 202 1538 l 2
 202 1554 225 1556 239 1556 c 0
 395 1556 466 1383 466 1231 c 0
 466 1161 450 1092 425 1026 c 0
 417 1001 385 926 363 902 c 1
 378 846 557 147 583 47 c 0
 585 40 586 32 586 24 c 0
 586 1 576 -20 556 -20 c 0
 531 -20 513 -8 505 20 c 0
EndSplineSet
EndChar

StartChar: S
Encoding: 83 83 93
Width: 700
VWidth: 0
GlyphClass: 2
Flags: HW
PickledData: "(dp1
S'org.pippin.gimp.org.kernagic'
p2
(dp3
S'lstem'
p4
I0
sS'rstem'
p5
I0
ssS'com.fontlab.hintData'
p6
(dp7
S'vhints'
p8
((dp9
S'position'
p10
I104
sS'width'
p11
I70
s(dp12
g10
I397
sg11
I74
stp13
sS'hhints'
p14
((dp15
g10
I-45
sg11
I45
s(dp16
g10
I1520
sg11
I53
stp17
ss."
HStem: -45 45<262.5 349.5 262.5 371> 1520 53<339 387.5 305.5 405>
VStem: 104 70 397 74
AnchorPoint: "top" 366 1536 basechar 0
LayerCount: 2
Fore
SplineSet
376 1573 m 0
 399 1573 471 1546 471 1515 c 0
 471 1505 464 1499 458 1499 c 0
 431 1499 419 1520 391 1520 c 0
 287 1520 241 1391 241 1305 c 0
 241 946 538 725 538 330 c 0
 538 183 460 -45 282 -45 c 0
 233 -45 174 -43 147 6 c 1
 147 20 151 31 169 31 c 0
 210 31 243 0 282 0 c 0
 417 0 464 238 464 340 c 0
 464 721 171 926 171 1288 c 0
 171 1407 235 1573 376 1573 c 0
EndSplineSet
EndChar

StartChar: Sigma
Encoding: 931 931 99
Width: 807
VWidth: 0
GlyphClass: 2
Flags: HW
LayerCount: 2
Fore
SplineSet
711 1475 m 0
 711 1460 671 1457 657 1457 c 2
 605 1457 l 2
 574 1457 544 1459 514 1459 c 0
 484 1459 454 1457 424 1450 c 0
 404 1445 382 1441 359 1441 c 0
 327 1441 293 1432 259 1432 c 0
 249 1432 234 1432 224 1422 c 1
 225 1422 l 1
 238 1369 529 894 562 851 c 0
 578 831 625 803 625 773 c 0
 625 748 582 641 568 630 c 0
 529 598 165 110 137 45 c 1
 278 25 450 -3 589 -3 c 0
 600 -3 610 -3 620 -1 c 1
 623 -1 l 1
 632 -10 635 -16 635 -39 c 0
 635 -49 629 -66 621 -66 c 2
 620 -66 l 1
 451 -41 330 -43 160 -18 c 0
 153 -17 121 7 119 7 c 0
 105 7 93 30 93 52 c 0
 93 79 120 104 130 117 c 0
 182 174 228 268 271 314 c 0
 300 345 320 386 406 496 c 1
 404 496 l 1
 426 531 l 1
 427 531 l 1
 523 666 563 706 563 739 c 0
 563 749 559 759 552 771 c 0
 530 816 289 1209 246 1275 c 0
 235 1291 193 1361 161 1425 c 0
 156 1435 152 1448 152 1461 c 0
 152 1476 158 1489 178 1489 c 0
 224 1489 415 1489 506 1507 c 1
 507 1507 l 2
 536 1507 564 1502 591 1502 c 0
 617 1502 642 1505 667 1522 c 0
 669 1523 675 1532 682 1532 c 0
 695 1532 711 1513 711 1475 c 0
219 1422 m 1
 217 1435 l 1
 215 1422 l 1
 219 1422 l 1
EndSplineSet
EndChar

StartChar: T
Encoding: 84 84 100
Width: 720
VWidth: 0
GlyphClass: 2
Flags: HW
PickledData: "(dp1
S'org.pippin.gimp.org.kernagic'
p2
(dp3
S'lstem'
p4
I173
sS'rstem'
p5
I434
ssS'com.typemytype.robofont.layerData'
p6
(dp7
sS'com.fontlab.hintData'
p8
(dp9
S'vhints'
p10
((dp11
S'position'
p12
I272
sS'width'
p13
I69
stp14
sS'hhints'
p15
((dp16
g12
I-12
sg13
I21
s(dp17
g12
I1474
sg13
I72
stp18
ss."
HStem: -12 21<366.5 396.5> 1474 72
VStem: 272 69
AnchorPoint: "top" 376 1536 basechar 0
LayerCount: 2
Fore
SplineSet
340 40 m 0
 341 96 341 160 341 223 c 2
 341 406 l 2
 341 623 331 842 331 1061 c 0
 331 1104 333 1112 333 1253 c 0
 333 1351 329 1474 328 1474 c 2
 97 1474 l 2
 79 1474 54 1482 54 1505 c 0
 54 1529 60 1544 175 1544 c 0
 229 1544 524 1546 605 1546 c 0
 643 1546 648 1531 648 1511 c 0
 648 1486 632 1481 609 1481 c 0
 586 1481 449 1480 426 1480 c 0
 400 1480 409 1477 409 1478 c 1
 409 1440 410 1290 410 1200 c 2
 410 368 l 2
 410 314 412 78 412 48 c 2
 412 42 l 2
 412 13 411 -12 382 -12 c 0
 351 -12 340 15 340 40 c 0
EndSplineSet
EndChar

StartChar: Tbar
Encoding: 358 358 101
Width: 720
VWidth: 0
GlyphClass: 2
Flags: HW
PickledData: "(dp1
S'org.pippin.gimp.org.kernagic'
p2
(dp3
S'lstem'
p4
I0
sS'rstem'
p5
I0
ssS'com.fontlab.hintData'
p6
(dp7
S'vhints'
p8
((dp9
S'position'
p10
I262
sS'width'
p11
I57
s(dp12
g10
I274
sg11
I78
s(dp13
g10
I291
sg11
I51
stp14
sS'hhints'
p15
((dp16
g10
I-12
sg11
I21
s(dp17
g10
I686
sg11
I64
s(dp18
g10
I1481
sg11
I65
stp19
ss."
HStem: -12 21<362.5 393.5> 686 64 1481 65<475.5 492 441 498.5>
VStem: 262 57 274 78 291 51
LayerCount: 2
Fore
SplineSet
335 70 m 0
 337 183 352 293 352 406 c 0
 352 502 346 597 340 693 c 1
 291 688 246 686 217 686 c 0
 199 686 174 696 174 715 c 0
 174 728 251 741 336 750 c 1
 329 854 323 957 323 1061 c 0
 323 1104 325 1112 325 1253 c 0
 325 1351 319 1464 290 1464 c 0
 251 1464 213 1452 174 1452 c 0
 156 1452 131 1464 131 1487 c 0
 131 1518 399 1546 483 1546 c 0
 501 1546 526 1531 526 1511 c 0
 526 1486 510 1481 487 1481 c 0
 464 1481 434 1487 411 1487 c 0
 391 1487 374 1482 368 1466 c 1
 378 1380 383 1290 383 1200 c 0
 383 1118 380 1034 380 952 c 0
 380 891 380 822 385 754 c 1
 441 759 494 762 524 762 c 0
 537 762 555 752 555 739 c 0
 555 723 476 709 391 699 c 1
 395 667 401 634 409 604 c 1
 405 584 403 565 403 545 c 0
 403 387 413 222 413 68 c 0
 413 37 409 -12 378 -12 c 0
 347 -12 335 45 335 70 c 0
EndSplineSet
EndChar

StartChar: Thorn
Encoding: 222 222 104
Width: 700
VWidth: 0
GlyphClass: 2
Flags: HW
PickledData: "(dp1
S'org.pippin.gimp.org.kernagic'
p2
(dp3
S'lstem'
p4
I0
sS'rstem'
p5
I0
ssS'com.fontlab.hintData'
p6
(dp7
S'vhints'
p8
((dp9
S'position'
p10
I96
sS'width'
p11
I66
s(dp12
g10
I96
sg11
I58
s(dp13
g10
I131
sg11
I70
s(dp14
g10
I389
sg11
I57
stp15
sS'hhints'
p16
((dp17
g10
I-12
sg11
I21
s(dp18
g10
I1317
sg11
I59
s(dp19
g10
I1526
sg11
I20
stp20
ss."
HStem: -12 21<212.5 245.5> 1317 59 1526 20<180 187>
VStem: 96 66 96 58 131 70 389 57
LayerCount: 2
Fore
SplineSet
231 1207 m 1
 231 1154 l 1
 233 939 255 721 259 502 c 1
 290 504 365 529 385 549 c 0
 483 647 518 754 518 883 c 0
 518 1060 457 1207 231 1207 c 1
225 -12 m 0
 200 -12 200 45 200 59 c 0
 200 182 202 194 202 317 c 0
 202 428 198 458 198 569 c 0
 198 739 186 932 180 1100 c 0
 176 1186 165 1276 165 1366 c 0
 163 1376 163 1385 163 1395 c 0
 163 1415 166 1483 166 1515 c 0
 166 1523 165 1528 165 1530 c 0
 165 1540 172 1544 180 1546 c 0
 194 1546 214 1538 214 1540 c 1
 218 1485 219 1323 223 1268 c 1
 223 1266 l 1
 492 1262 575 1063 575 887 c 0
 575 768 518 564 422 488 c 0
 406 474 385 471 369 459 c 0
 349 445 286 433 259 427 c 1
 259 202 270 276 270 51 c 0
 270 18 266 -12 225 -12 c 0
EndSplineSet
EndChar

StartChar: U
Encoding: 85 85 105
Width: 860
VWidth: 0
GlyphClass: 2
Flags: HW
PickledData: "(dp1
S'org.pippin.gimp.org.kernagic'
p2
(dp3
S'lstem'
p4
I0
sS'rstem'
p5
I0
ssS'com.fontlab.hintData'
p6
(dp7
S'vhints'
p8
((dp9
S'position'
p10
I97
sS'width'
p11
I74
s(dp12
g10
I520
sg11
I80
s(dp13
g10
I547
sg11
I61
stp14
sS'hhints'
p15
((dp16
g10
I-39
sg11
I66
s(dp17
g10
I1535
sg11
I20
stp18
ss."
HStem: -39 66<394.5 526.5 394.5 555> 1535 20<608 628>
VStem: 97 74 520 80 547 61
AnchorPoint: "top" 406 1536 basechar 0
LayerCount: 2
Fore
SplineSet
197 473 m 0
 191 536 156 1122 156 1448 c 0
 156 1456 155 1467 155 1479 c 0
 155 1505 159 1532 187 1532 c 0
 224 1532 229 1509 229 1483 c 0
 229 1473 228 1462 228 1452 c 0
 228 1097 254 586 271 422 c 0
 282 312 327 27 462 27 c 0
 591 27 605 173 605 281 c 2
 605 514 l 2
 605 732 587 1102 587 1159 c 0
 587 1276 578 1390 578 1507 c 0
 578 1539 598 1555 618 1555 c 0
 638 1555 658 1539 658 1507 c 2
 658 1352 l 2
 658 1229 659 1106 659 983 c 0
 659 740 666 523 666 295 c 0
 666 168 641 -39 469 -39 c 0
 197 -39 201 428 197 473 c 0
EndSplineSet
EndChar

StartChar: V
Encoding: 86 86 116
Width: 740
VWidth: 0
GlyphClass: 2
Flags: HW
PickledData: "(dp1
S'org.pippin.gimp.org.kernagic'
p2
(dp3
S'lstem'
p4
I0
sS'rstem'
p5
I0
ssS'com.typemytype.robofont.layerData'
p6
(dp7
sS'com.fontlab.hintData'
p8
(dp9
S'vhints'
p10
((dp11
S'position'
p12
I344
sS'width'
p13
I70
s(dp14
g12
I502
sg13
I80
stp15
sS'hhints'
p16
((dp17
g12
I-18
sg13
I21
s(dp18
g12
I1528
sg13
I20
stp19
ss."
HStem: -18 21<403 417> 1528 20<139.5 165.5>
VStem: 344 70 502 80
LayerCount: 2
Fore
SplineSet
397 101 m 1
 390 101 l 1
 394 106 l 1
 397 101 l 1
585 1276 m 0
 596 1362 614 1444 614 1530 c 1
 593 1546 l 1
 597 1546 l 1
 585 1554 l 1
 562 1554 548 1545 546 1516 c 0
 541 1444 525 1370 517 1298 c 0
 486 1011 464 781 431 494 c 0
 423 431 409 260 394 112 c 1
 381 200 363 336 341 493 c 2
 238 1197 l 1
 222 1292 207 1382 192 1462 c 0
 188 1487 184 1548 147 1548 c 0
 132 1548 118 1530 118 1512 c 0
 118 1426 172 1231 182 1174 c 1
 294 442 l 2
 317 292 339 137 376 -10 c 1
 384 -12 399 -18 407 -18 c 0
 427 -18 440 11 446 27 c 1
 448 160 577 1212 585 1276 c 0
EndSplineSet
EndChar

StartChar: W
Encoding: 87 87 117
Width: 960
VWidth: 0
GlyphClass: 2
Flags: HW
PickledData: "(dp1
S'org.pippin.gimp.org.kernagic'
p2
(dp3
S'lstem'
p4
I0
sS'rstem'
p5
I0
ssS'com.typemytype.robofont.layerData'
p6
(dp7
sS'com.fontlab.hintData'
p8
(dp9
S'vhints'
p10
((dp11
S'position'
p12
I266
sS'width'
p13
I92
s(dp14
g12
I776
sg13
I92
s(dp15
g12
I778
sg13
I70
stp16
sS'hhints'
p17
((dp18
g12
I-27
sg13
I21
stp19
ss."
HStem: -27 21<305.5 338 636.5 680.5>
VStem: 266 92 776 92 778 70
AnchorPoint: "top" 476 1536 basechar 0
LayerCount: 2
Fore
SplineSet
357 90 m 1
 376 284 443 1030 459 1209 c 0
 459 1211 461 1211 461 1213 c 1
 467 1209 l 1
 496 971 580 322 615 86 c 0
 623 33 609 -27 664 -27 c 0
 697 -27 701 -4 701 23 c 0
 701 46 743 384 752 496 c 1
 771 648 810 1138 849 1462 c 0
 851 1476 857 1491 857 1507 c 0
 857 1511 857 1516 855 1520 c 1
 865 1528 877 1545 877 1559 c 0
 877 1577 854 1591 838 1591 c 0
 793 1591 785 1571 785 1542 c 0
 785 1530 787 1517 787 1503 c 0
 787 1329 750 1155 740 981 c 1
 664 152 l 1
 658 156 l 1
 635 396 505 1236 488 1323 c 0
 481 1354 486 1386 437 1386 c 1
 421 1378 424 1366 422 1346 c 0
 419 1308 415 1238 410 1184 c 0
 398 1069 370 953 362 838 c 0
 348 673 329 282 316 179 c 1
 312 179 l 1
 281 445 204 1166 179 1432 c 0
 178 1440 178 1447 178 1454 c 0
 178 1469 179 1481 179 1493 c 0
 179 1522 172 1540 126 1540 c 0
 110 1540 91 1527 83 1513 c 1
 114 1464 207 581 230 434 c 0
 244 340 277 152 285 74 c 1
 285 64 l 2
 285 50 283 34 283 19 c 0
 283 -6 289 -27 322 -27 c 0
 354 -27 357 20 357 54 c 2
 357 90 l 1
EndSplineSet
EndChar

StartChar: X
Encoding: 88 88 122
Width: 680
VWidth: 0
GlyphClass: 2
Flags: HW
PickledData: "(dp1
S'org.pippin.gimp.org.kernagic'
p2
(dp3
S'lstem'
p4
I0
sS'rstem'
p5
I0
ssS'com.fontlab.hintData'
p6
(dp7
S'vhints'
p8
((dp9
S'position'
p10
I393
sS'width'
p11
I70
stp12
sS'hhints'
p13
((dp14
g10
I-12
sg11
I21
s(dp15
g10
I1532
sg11
I20
stp16
ss."
HStem: -12 21<165 192.5> 1532 20<471.5 502>
VStem: 393 70
AnchorPoint: "top" 356 1536 basechar 0
LayerCount: 2
Fore
SplineSet
139 12 m 0
 139 39 167 135 177 170 c 0
 212 301 245 434 272 565 c 0
 288 645 311 739 311 821 c 0
 311 979 260 1134 229 1288 c 0
 215 1358 180 1423 178 1495 c 1
 184 1505 199 1522 211 1522 c 0
 262 1522 248 1467 254 1434 c 0
 279 1293 331 1067 354 922 c 1
 369 1032 411 1255 434 1380 c 0
 440 1415 448 1552 495 1552 c 0
 509 1552 532 1548 532 1530 c 0
 532 1501 514 1475 506 1448 c 0
 471 1327 447 1190 422 1061 c 0
 406 979 381 869 381 791 c 1
 489 238 l 1
 511 134 l 1
 511 126 520 96 520 70 c 0
 520 47 513 27 487 27 c 0
 469 27 450 28 450 53 c 0
 450 127 431 207 419 279 c 0
 396 396 375 514 346 629 c 1
 332 606 233 131 221 61 c 0
 215 24 215 -12 170 -12 c 0
 160 -12 139 0 139 12 c 0
EndSplineSet
EndChar

StartChar: Y
Encoding: 89 89 123
Width: 620
VWidth: 0
GlyphClass: 2
Flags: HW
PickledData: "(dp1
S'org.pippin.gimp.org.kernagic'
p2
(dp3
S'lstem'
p4
I0
sS'rstem'
p5
I0
ssS'com.fontlab.hintData'
p6
(dp7
S'vhints'
p8
((dp9
S'position'
p10
I231
sS'width'
p11
I84
s(dp12
g10
I260
sg11
I74
stp13
sS'hhints'
p14
((dp15
g10
I-25
sg11
I21
s(dp16
g10
I1526
sg11
I20
stp17
ss."
HStem: -25 21<342.5 369.5> 1526 20<171 180>
VStem: 231 84 260 74
AnchorPoint: "top" 326 1536 basechar 0
LayerCount: 2
Fore
SplineSet
325 25 m 0
 325 156 335 289 335 420 c 0
 335 475 321 531 321 586 c 0
 321 652 296 713 296 776 c 0
 296 813 272 901 264 938 c 0
 233 1088 208 1243 169 1380 c 0
 157 1419 139 1472 139 1513 c 0
 139 1536 162 1546 180 1546 c 1
 204 1530 l 1
 210 1438 294 985 333 930 c 1
 349 992 376 1540 454 1540 c 0
 472 1540 485 1541 485 1518 c 0
 485 1489 472 1463 468 1434 c 0
 435 1241 387 1030 387 829 c 0
 387 806 393 785 393 762 c 1
 380 731 l 1
 380 715 l 2
 380 633 395 551 395 469 c 0
 395 332 395 192 391 55 c 1
 397 49 l 1
 397 45 399 39 399 35 c 0
 399 8 385 -25 354 -25 c 0
 331 -25 325 9 325 25 c 0
EndSplineSet
EndChar

StartChar: Z
Encoding: 90 90 128
Width: 620
VWidth: 0
GlyphClass: 2
Flags: HW
PickledData: "(dp1
S'org.pippin.gimp.org.kernagic'
p2
(dp3
S'lstem'
p4
I0
sS'rstem'
p5
I0
ssS'com.fontlab.hintData'
p6
(dp7
S'vhints'
p8
((dp9
S'position'
p10
I78
sS'width'
p11
I305
stp12
sS'hhints'
p13
((dp14
g10
I-18
sg11
I57
s(dp15
g10
I1489
sg11
I53
s(dp16
g10
I1499
sg11
I64
stp17
ss."
HStem: -18 57<177 251.5> 1489 53<249.5 268 227 286.5> 1499 64<394 401>
VStem: 78 305
AnchorPoint: "top" 326 1536 basechar 0
LayerCount: 2
Fore
SplineSet
155 8 m 1
 253 182 241 408 280 588 c 1
 311 813 343 1043 374 1268 c 0
 384 1344 399 1423 401 1499 c 1
 356 1499 310 1489 263 1489 c 0
 236 1489 171 1491 171 1530 c 1
 186 1546 l 1
 202 1542 219 1542 235 1542 c 0
 301 1542 361 1563 427 1563 c 0
 450 1563 460 1546 460 1526 c 1
 429 1456 431 1321 419 1239 c 0
 370 891 333 541 276 195 c 0
 268 142 229 94 229 39 c 1
 274 39 317 49 362 49 c 0
 389 49 448 47 448 8 c 1
 429 -10 l 1
 347 -10 268 -18 186 -18 c 0
 168 -18 161 -8 155 8 c 1
EndSplineSet
EndChar

StartChar: a
Encoding: 97 97 132
Width: 740
VWidth: 0
GlyphClass: 2
Flags: HW
PickledData: "(dp1
S'org.pippin.gimp.org.kernagic'
p2
(dp3
S'lstem'
p4
I0
sS'rstem'
p5
I0
ssS'com.fontlab.hintData'
p6
(dp7
S'vhints'
p8
((dp9
S'position'
p10
I502
sS'width'
p11
I67
stp12
sS'hhints'
p13
((dp14
g10
I-10
sg11
I21
s(dp15
g10
I305
sg11
I45
s(dp16
g10
I1354
sg11
I20
stp17
ss."
HStem: -10 21<156 186.5> 305 45 1354 20<432 440>
VStem: 502 67
AnchorPoint: "top" 416 1356 basechar 0
LayerCount: 2
Fore
SplineSet
264 376 m 0
 264 359 444 350 479 350 c 2
 500 350 l 1
 481 625 437 1065 422 1221 c 1
 385 1039 346 856 311 674 c 0
 299 615 264 431 264 376 c 0
262 315 m 0
 246 315 250 307 246 299 c 1
 242 258 l 2
 238 219 209 -10 164 -10 c 0
 148 -10 123 7 123 25 c 0
 123 29 127 33 127 37 c 0
 186 270 221 507 260 743 c 0
 280 866 314 987 332 1112 c 0
 338 1157 353 1339 367 1364 c 1
 375 1364 385 1362 395 1362 c 0
 409 1362 422 1364 432 1374 c 1
 448 1374 469 1363 469 1343 c 0
 469 1212 484 1141 496 1010 c 0
 524 683 580 254 610 18 c 1
 610 12 l 2
 610 0 606 -11 594 -18 c 1
 557 -18 549 -18 543 27 c 0
 533 107 523 207 509 295 c 1
 478 303 439 305 408 305 c 0
 354 305 311 315 262 315 c 0
EndSplineSet
EndChar

StartChar: acute
Encoding: 180 180 136
Width: 620
VWidth: 0
GlyphClass: 4
Flags: HW
PickledData: "(dp1
S'org.pippin.gimp.org.kernagic'
p2
(dp3
S'lstem'
p4
I0
sS'rstem'
p5
I0
ssS'com.fontlab.hintData'
p6
(dp7
S'vhints'
p8
((dp9
S'position'
p10
I98
sS'width'
p11
I299
stp12
sS'hhints'
p13
((dp14
g10
I1309
sg11
I239
stp15
ss."
HStem: 1309 239
VStem: 98 299
AnchorPoint: "top" 214 805 mark 0
LayerCount: 2
Fore
SplineSet
187 1139 m 0
 187 1157 410 1319 441 1348 c 1
 461 1348 486 1341 486 1316 c 0
 486 1306 482 1295 480 1285 c 1
 384 1242 304 1177 224 1109 c 1
 206 1109 187 1119 187 1139 c 0
EndSplineSet
EndChar

StartChar: ae
Encoding: 230 230 138
Width: 940
VWidth: 0
GlyphClass: 2
Flags: HW
PickledData: "(dp1
S'org.pippin.gimp.org.kernagic'
p2
(dp3
S'lstem'
p4
I0
sS'rstem'
p5
I0
ssS'com.fontlab.hintData'
p6
(dp7
S'vhints'
p8
((dp9
S'position'
p10
I496
sS'width'
p11
I39
stp12
sS'hhints'
p13
((dp14
g10
I-12
sg11
I69
s(dp15
g10
I-12
sg11
I47
s(dp16
g10
I621
sg11
I69
s(dp17
g10
I1292
sg11
I58
stp18
ss."
HStem: -12 69 -12 47<567 629> 621 69 1292 58<640.5 719 682.5 719 682.5 760>
VStem: 496 39
LayerCount: 2
Fore
SplineSet
517 1237 m 1
 492 1210 318 692 312 643 c 1
 371 643 462 656 517 668 c 1
 517 948 l 2
 517 993 519 1040 519 1085 c 2
 519 1163 l 2
 519 1188 519 1212 517 1237 c 1
512 14 m 1
 524 82 529 159 529 229 c 0
 529 354 519 477 519 600 c 1
 508 614 l 1
 477 608 303 605 297 580 c 2
 195 209 l 2
 185 174 160 2 123 2 c 0
 113 2 107 19 107 27 c 0
 109 121 164 336 189 432 c 1
 271 694 359 940 457 1196 c 1
 461 1208 l 2
 461 1210 463 1215 463 1217 c 0
 477 1266 502 1348 551 1348 c 0
 602 1348 656 1350 709 1350 c 0
 729 1350 773 1346 773 1317 c 1
 760 1292 l 1
 658 1292 l 2
 623 1292 591 1292 558 1288 c 1
 558 1188 564 1077 564 975 c 0
 564 873 566 784 566 682 c 1
 576 670 l 1
 631 690 683 690 738 690 c 1
 766 655 l 1
 766 624 689 621 621 621 c 2
 566 621 l 1
 566 465 574 312 574 154 c 0
 574 125 572 99 572 70 c 0
 572 60 572 35 590 35 c 0
 668 35 744 57 822 57 c 0
 836 57 867 51 867 31 c 0
 867 -18 623 2 588 -14 c 1
 582 -12 576 -12 572 -12 c 0
 562 -12 555 -14 541 -14 c 1
 512 14 l 1
EndSplineSet
EndChar

StartChar: ampersand
Encoding: 38 38 143
Width: 920
VWidth: 0
GlyphClass: 2
Flags: HW
PickledData: "(dp1
S'org.pippin.gimp.org.kernagic'
p2
(dp3
S'lstem'
p4
I0
sS'rstem'
p5
I0
ssS'com.fontlab.hintData'
p6
(dp7
S'vhints'
p8
((dp9
S'position'
p10
I92
sS'width'
p11
I45
s(dp12
g10
I260
sg11
I49
s(dp13
g10
I436
sg11
I45
s(dp14
g10
I647
sg11
I47
stp15
sS'hhints'
p16
((dp17
g10
I219
sg11
I39
s(dp18
g10
I815
sg11
I37
s(dp19
g10
I1653
sg11
I51
stp20
ss."
HStem: 219 39<282 386.5 282 401> 815 37 1653 51<349 351.5 299.5 393>
VStem: 92 45 260 49 436 45 647 47
LayerCount: 2
Fore
SplineSet
312 1315 m 1
 308 1303 308 1292 308 1280 c 0
 308 1249 314 1221 314 1190 c 1
 363 1235 435 1460 435 1530 c 0
 435 1581 427 1653 359 1653 c 0
 339 1653 306 1597 306 1579 c 2
 308 1325 l 1
 312 1315 l 1
763 629 m 1
 765 629 765 629 765 627 c 1
 763 629 l 1
136 569 m 0
 136 426 198 258 366 258 c 0
 407 258 538 291 542 340 c 1
 530 360 517 371 501 387 c 0
 405 485 335 717 308 850 c 0
 296 909 298 969 280 1026 c 1
 184 901 136 727 136 569 c 0
351 219 m 0
 199 219 91 395 91 532 c 0
 91 790 160 899 273 1118 c 1
 273 1214 259 1309 259 1405 c 2
 259 1575 l 2
 259 1614 274 1704 325 1704 c 0
 378 1704 480 1662 480 1599 c 0
 480 1558 474 1518 474 1477 c 0
 474 1469 474 1460 476 1452 c 1
 445 1366 419 1274 376 1194 c 0
 358 1159 321 1126 321 1085 c 0
 321 972 466 414 568 383 c 1
 631 510 646 639 646 780 c 0
 646 835 615 796 597 825 c 1
 599 829 l 1
 595 842 l 1
 601 852 l 1
 640 852 791 865 822 877 c 1
 838 875 857 864 857 846 c 0
 857 823 790 813 755 813 c 0
 739 813 722 815 706 815 c 2
 693 815 l 1
 693 620 679 493 605 348 c 1
 644 303 702 266 763 266 c 0
 788 266 814 272 839 272 c 1
 861 254 l 1
 861 221 792 221 769 221 c 0
 697 221 638 262 583 303 c 1
 503 248 451 219 351 219 c 0
EndSplineSet
EndChar

StartChar: approxequal
Encoding: 8776 8776 145
Width: 790
VWidth: 0
GlyphClass: 2
Flags: HW
LayerCount: 2
Fore
SplineSet
198 865 m 0
 182 865 178 891 178 917 c 0
 178 992 225 1040 304 1040 c 0
 380 1040 422 913 494 913 c 0
 530 913 555 939 555 989 c 0
 555 1003 545 1014 543 1028 c 1
 547 1036 556 1040 564 1040 c 0
 599 1040 611 999 611 970 c 0
 611 913 559 862 502 862 c 0
 422 862 367 928 320 983 c 0
 312 989 304 991 296 991 c 0
 264 991 230 955 230 934 c 0
 230 920 240 906 240 891 c 1
 232 880 213 865 198 865 c 0
179 655 m 0
 179 733 218 800 304 800 c 0
 372 800 423 675 478 675 c 0
 484 675 488 675 494 677 c 1
 508 673 l 1
 518 700 555 694 555 749 c 0
 555 763 545 774 543 788 c 1
 547 796 556 800 564 800 c 0
 599 800 611 759 611 730 c 0
 611 673 559 622 502 622 c 0
 422 622 367 688 320 743 c 0
 312 749 304 751 296 751 c 0
 264 751 230 715 230 694 c 0
 230 680 240 666 240 651 c 1
 232 640 213 625 198 625 c 0
 187 625 179 632 179 655 c 0
EndSplineSet
EndChar

StartChar: asciitilde
Encoding: 126 126 148
Width: 800
VWidth: 0
GlyphClass: 2
Flags: HW
PickledData: "(dp1
S'org.pippin.gimp.org.kernagic'
p2
(dp3
S'lstem'
p4
I0
sS'rstem'
p5
I0
ssS'com.fontlab.hintData'
p6
(dp7
S'vhints'
p8
((dp9
S'position'
p10
I111
sS'width'
p11
I51
s(dp12
g10
I487
sg11
I56
stp13
sS'hhints'
p14
((dp15
g10
I1022
sg11
I53
s(dp16
g10
I1151
sg11
I49
stp17
ss."
HStem: 1022 53<462 481 450.5 530.5> 1151 49<280 300>
VStem: 111 51 487 56
LayerCount: 2
Fore
SplineSet
179 1055 m 0
 179 1133 218 1200 304 1200 c 0
 372 1200 423 1075 478 1075 c 0
 484 1075 488 1075 494 1077 c 1
 508 1073 l 1
 518 1100 555 1094 555 1149 c 0
 555 1163 545 1174 543 1188 c 1
 547 1196 556 1200 564 1200 c 0
 599 1200 611 1159 611 1130 c 0
 611 1073 559 1022 502 1022 c 0
 422 1022 367 1088 320 1143 c 0
 312 1149 304 1151 296 1151 c 0
 264 1151 230 1115 230 1094 c 0
 230 1080 240 1066 240 1051 c 1
 232 1040 213 1025 198 1025 c 0
 187 1025 179 1032 179 1055 c 0
EndSplineSet
EndChar

StartChar: asterisk
Encoding: 42 42 149
Width: 880
VWidth: 0
GlyphClass: 2
Flags: HW
PickledData: "(dp1
S'org.pippin.gimp.org.kernagic'
p2
(dp3
S'lstem'
p4
I0
sS'rstem'
p5
I0
ssS'com.fontlab.hintData'
p6
(dp7
S'vhints'
p8
((dp9
S'position'
p10
I231
sS'width'
p11
I56
s(dp12
g10
I545
sg11
I86
stp13
sS'hhints'
p14
((dp15
g10
I1120
sg11
I58
stp16
ss."
HStem: 1120 58<67 79>
VStem: 231 56 545 86
LayerCount: 2
Fore
SplineSet
438 1120 m 1
 436 1120 436 1120 436 1118 c 1
 438 1118 l 1
 438 1120 l 1
504 1120 m 2
 479 1120 l 2
 464 1120 448 1119 440 1114 c 1
 442 1063 598 801 598 754 c 0
 598 738 583 725 569 725 c 0
 522 725 522 802 512 831 c 0
 479 909 442 989 401 1065 c 1
 391 1051 383 1028 377 1012 c 2
 297 823 l 2
 283 788 272 750 254 719 c 1
 227 715 l 1
 198 745 l 1
 198 794 344 1028 360 1118 c 1
 354 1120 344 1122 338 1122 c 2
 106 1122 l 2
 96 1122 85 1120 73 1120 c 0
 55 1120 51 1137 51 1153 c 0
 51 1167 61 1178 73 1178 c 0
 167 1178 258 1176 350 1176 c 1
 354 1180 l 1
 334 1217 205 1483 205 1503 c 0
 205 1519 223 1526 237 1526 c 0
 270 1526 348 1243 395 1212 c 1
 422 1261 495 1544 542 1544 c 0
 556 1544 575 1527 575 1513 c 0
 575 1495 559 1474 549 1458 c 0
 504 1370 485 1270 444 1178 c 1
 446 1176 l 1
 487 1170 528 1167 569 1167 c 0
 626 1167 688 1178 745 1178 c 0
 765 1178 784 1157 784 1139 c 0
 784 1112 760 1110 737 1110 c 0
 657 1110 584 1120 504 1120 c 2
EndSplineSet
EndChar

StartChar: at
Encoding: 64 64 150
Width: 1140
VWidth: 0
GlyphClass: 2
Flags: HW
PickledData: "(dp1
S'org.pippin.gimp.org.kernagic'
p2
(dp3
S'lstem'
p4
I0
sS'rstem'
p5
I0
ssS'com.fontlab.hintData'
p6
(dp7
S'vhints'
p8
((dp9
S'position'
p10
I92
sS'width'
p11
I72
s(dp12
g10
I284
sg11
I82
s(dp13
g10
I874
sg11
I70
stp14
sS'hhints'
p15
((dp16
g10
I39
sg11
I47
s(dp17
g10
I467
sg11
I59
s(dp18
g10
I565
sg11
I60
s(dp19
g10
I1409
sg11
I55
s(dp20
g10
I1774
sg11
I59
stp21
ss."
HStem: 39 47<450 546.5> 467 59<477 568.5> 565 60<826 874 826 904.5> 1409 55<470.5 554.5 431 578> 1774 59<394 587.5>
VStem: 92 72 284 82 874 70
LayerCount: 2
Fore
SplineSet
530 1409 m 0
 411 1409 405 1211 405 1094 c 2
 405 831 l 2
 405 702 413 526 541 526 c 0
 615 526 687 675 687 745 c 2
 687 899 l 2
 687 1012 663 1124 642 1233 c 0
 625 1319 626 1409 530 1409 c 0
226 279 m 1
 224 310 209 331 199 360 c 0
 166 452 131 909 131 1024 c 0
 131 1176 135 1329 166 1479 c 0
 213 1712 269 1833 519 1833 c 0
 865 1833 909 1453 952 1174 c 0
 966 1084 983 993 983 903 c 0
 983 799 978 565 831 565 c 0
 780 565 766 606 728 616 c 1
 694 534 611 467 526 467 c 0
 336 467 323 778 323 954 c 2
 323 1006 l 2
 323 1196 332 1464 530 1464 c 0
 579 1464 630 1444 664 1405 c 0
 702 1362 756 788 768 686 c 1
 791 676 l 1
 797 664 818 625 834 625 c 0
 914 625 913 860 913 915 c 0
 913 1128 875 1349 799 1550 c 0
 740 1704 666 1774 509 1774 c 0
 266 1774 240 1585 228 1380 c 0
 224 1319 222 1243 199 1186 c 1
 201 1159 203 1133 203 1106 c 0
 203 1086 203 1060 195 1040 c 1
 199 1032 199 1022 199 1014 c 0
 199 897 214 785 226 668 c 0
 249 471 223 354 346 180 c 0
 379 133 422 86 478 86 c 0
 627 86 731 131 842 248 c 0
 852 258 873 283 887 287 c 1
 905 268 l 1
 864 125 608 39 485 39 c 0
 357 39 277 168 226 279 c 1
EndSplineSet
EndChar

StartChar: b
Encoding: 98 98 152
Width: 660
VWidth: 0
GlyphClass: 2
Flags: HW
PickledData: "(dp1
S'org.pippin.gimp.org.kernagic'
p2
(dp3
S'lstem'
p4
I0
sS'rstem'
p5
I0
ssS'com.fontlab.hintData'
p6
(dp7
S'vhints'
p8
((dp9
S'position'
p10
I102
sS'width'
p11
I70
s(dp12
g10
I131
sg11
I51
s(dp13
g10
I340
sg11
I70
s(dp14
g10
I359
sg11
I63
stp15
sS'hhints'
p16
((dp17
g10
I-23
sg11
I80
s(dp18
g10
I668
sg11
I71
s(dp19
g10
I1313
sg11
I69
stp20
ss."
HStem: -23 80<243 296 243 308.5> 668 71<259 274 274 333.5 259 334.5> 1313 69<214.5 336>
VStem: 102 70 131 51 340 70 359 63
AnchorPoint: "top" 322 1356 basechar 0
LayerCount: 2
Fore
SplineSet
251 766 m 1
 253 758 257 747 259 739 c 1
 274 739 l 2
 393 739 409 903 409 1012 c 0
 409 1061 405 1096 403 1139 c 1
 399 1143 l 1
 395 1202 376 1313 296 1313 c 0
 257 1313 251 1144 251 1044 c 0
 251 970 253 967 253 934 c 0
 253 887 251 840 251 791 c 2
 251 766 l 1
253 248 m 1
 243 230 241 191 241 150 c 0
 241 113 243 77 243 57 c 1
 349 57 427 181 427 279 c 0
 427 281 428 299 428 325 c 0
 428 428 412 668 257 668 c 1
 251 576 247 483 247 389 c 2
 247 342 l 2
 247 310 248 277 253 248 c 1
173 20 m 0
 171 40 171 61 171 84 c 0
 171 227 192 373 192 516 c 0
 192 577 188 639 188 698 c 0
 188 862 200 1024 200 1188 c 0
 200 1227 200 1266 198 1307 c 1
 190 1317 l 1
 190 1329 l 2
 190 1358 196 1382 233 1382 c 0
 260 1382 415 1344 417 1315 c 1
 417 1315 415 1311 415 1309 c 0
 468 1225 479 1149 479 1038 c 0
 479 954 473 869 446 795 c 1
 448 795 l 1
 434 762 406 729 388 698 c 1
 474 630 485 495 489 399 c 2
 491 346 l 1
 491 317 l 2
 491 145 405 -23 212 -23 c 0
 187 -23 173 -3 173 20 c 0
EndSplineSet
EndChar

StartChar: backslash
Encoding: 92 92 153
Width: 680
VWidth: 0
GlyphClass: 2
Flags: HW
PickledData: "(dp1
S'org.pippin.gimp.org.kernagic'
p2
(dp3
S'lstem'
p4
I0
sS'rstem'
p5
I0
ssS'com.fontlab.hintData'
p6
(dp7
S'vhints'
p8
((dp9
S'position'
p10
I82
sS'width'
p11
I393
stp12
sS'hhints'
p13
((dp14
g10
I-6
sg11
I21
stp15
ss."
HStem: -6 21
VStem: 82 393
LayerCount: 2
Fore
SplineSet
504 -6 m 1
 461 -2 454 78 444 121 c 2
 403 299 l 1
 323 641 238 977 172 1317 c 0
 168 1337 131 1489 131 1505 c 0
 131 1523 146 1532 162 1532 c 0
 178 1532 192 1460 196 1448 c 0
 288 1096 372 741 452 387 c 0
 479 266 524 129 524 31 c 0
 524 17 516 2 504 -6 c 1
EndSplineSet
EndChar

StartChar: bar
Encoding: 124 124 154
Width: 520
VWidth: 0
GlyphClass: 2
Flags: HW
PickledData: "(dp1
S'org.pippin.gimp.org.kernagic'
p2
(dp3
S'lstem'
p4
I0
sS'rstem'
p5
I0
ssS'com.fontlab.hintData'
p6
(dp7
S'vhints'
p8
((dp9
S'position'
p10
I127
sS'width'
p11
I66
s(dp12
g10
I152
sg11
I47
s(dp13
g10
I184
sg11
I54
stp14
sS'hhints'
p15
((dp16
g10
I1532
sg11
I20
stp17
ss."
HStem: 1532 20<272.5 298>
VStem: 127 66 152 47 184 54
LayerCount: 2
Fore
SplineSet
261 2 m 1
 254 -68 l 1
 254 -84 230 -88 220 -88 c 0
 195 -88 195 -84 195 -72 c 0
 195 110 220 289 220 471 c 0
 220 809 252 1143 252 1487 c 0
 252 1514 252 1552 293 1552 c 0
 303 1552 306 1542 306 1530 c 0
 306 1149 267 754 267 371 c 0
 267 330 263 82 261 51 c 1
 261 2 l 1
EndSplineSet
EndChar

StartChar: braceleft
Encoding: 123 123 155
Width: 560
VWidth: 0
GlyphClass: 2
Flags: HW
PickledData: "(dp1
S'org.pippin.gimp.org.kernagic'
p2
(dp3
S'lstem'
p4
I0
sS'rstem'
p5
I0
ssS'com.fontlab.hintData'
p6
(dp7
S'vhints'
p8
((dp9
S'position'
p10
I104
sS'width'
p11
I48
stp12
sS'hhints'
p13
((dp14
g10
I-51
sg11
I49
s(dp15
g10
I739
sg11
I37
s(dp16
g10
I1495
sg11
I49
stp17
ss."
HStem: -51 49<312.5 352.5> 739 37 1495 49<312.5 352.5 301 355.5>
VStem: 104 48
LayerCount: 2
Fore
SplineSet
214 403 m 0
 214 512 222 584 222 645 c 0
 222 692 208 735 163 739 c 0
 157 741 155 750 155 760 c 0
 155 768 159 774 171 776 c 0
 208 776 222 823 222 872 c 0
 222 954 208 1147 208 1305 c 0
 208 1463 263 1544 339 1544 c 0
 366 1544 417 1527 417 1509 c 0
 417 1486 398 1487 384 1487 c 0
 374 1487 368 1495 343 1495 c 0
 282 1495 270 1394 270 1296 c 2
 270 1044 l 2
 270 991 276 936 276 887 c 0
 276 832 271 785 222 758 c 1
 271 733 276 686 276 631 c 0
 276 563 270 492 270 420 c 2
 270 197 l 2
 270 99 282 -2 343 -2 c 0
 384 -2 417 -2 417 -29 c 0
 417 -47 366 -51 339 -51 c 0
 263 -51 208 30 208 188 c 0
 208 270 214 321 214 403 c 0
EndSplineSet
EndChar

StartChar: braceright
Encoding: 125 125 156
Width: 640
VWidth: 0
GlyphClass: 2
Flags: HW
PickledData: "(dp1
S'org.pippin.gimp.org.kernagic'
p2
(dp3
S'lstem'
p4
I0
sS'rstem'
p5
I0
ssS'com.fontlab.hintData'
p6
(dp7
S'vhints'
p8
((dp9
S'position'
p10
I184
sS'width'
p11
I47
stp12
sS'hhints'
p13
((dp14
g10
I-51
sg11
I49
s(dp15
g10
I717
sg11
I37
s(dp16
g10
I1495
sg11
I49
stp17
ss."
HStem: -51 49<291.5 331.5 288.5 343> 717 37 1495 49<256.5 343 291.5 301>
VStem: 184 47
LayerCount: 2
Fore
SplineSet
430 1090 m 0
 430 981 421 909 421 848 c 0
 421 801 436 758 481 754 c 0
 487 752 489 743 489 733 c 0
 489 725 485 719 473 717 c 0
 436 717 421 670 421 621 c 0
 421 539 436 346 436 188 c 0
 436 30 381 -51 305 -51 c 0
 278 -51 227 -41 227 -23 c 0
 227 0 246 0 260 0 c 0
 270 0 276 -2 301 -2 c 0
 362 -2 374 99 374 197 c 2
 374 449 l 2
 374 502 368 557 368 606 c 0
 368 661 372 708 421 735 c 1
 372 760 368 807 368 862 c 0
 368 930 374 1001 374 1073 c 2
 374 1296 l 2
 374 1394 362 1495 301 1495 c 2
 270 1495 l 2
 243 1495 227 1498 227 1516 c 0
 227 1534 278 1544 305 1544 c 0
 381 1544 436 1463 436 1305 c 0
 436 1223 430 1172 430 1090 c 0
EndSplineSet
EndChar

StartChar: bracketleft
Encoding: 91 91 157
Width: 620
VWidth: 0
GlyphClass: 2
Flags: HW
PickledData: "(dp1
S'org.pippin.gimp.org.kernagic'
p2
(dp3
S'lstem'
p4
I0
sS'rstem'
p5
I0
ssS'com.fontlab.hintData'
p6
(dp7
S'vhints'
p8
((dp9
S'position'
p10
I88
sS'width'
p11
I64
s(dp12
g10
I184
sg11
I47
stp13
sS'hhints'
p14
((dp15
g10
I-88
sg11
I74
s(dp16
g10
I1501
sg11
I51
stp17
ss."
HStem: -88 74 1501 51
VStem: 88 64 184 47
LayerCount: 2
Fore
SplineSet
413 -68 m 0
 413 -84 390 -88 378 -88 c 0
 343 -88 147 -76 147 -35 c 0
 147 135 190 301 190 471 c 0
 190 809 243 1143 243 1481 c 0
 243 1499 227 1510 223 1528 c 1
 264 1552 l 1
 299 1550 499 1556 499 1511 c 0
 499 1497 479 1489 467 1489 c 0
 428 1489 391 1501 352 1501 c 0
 323 1501 290 1495 290 1458 c 0
 290 1100 260 731 237 371 c 0
 235 330 221 82 211 51 c 1
 211 2 l 1
 202 -14 l 1
 241 -22 413 -13 413 -68 c 0
EndSplineSet
EndChar

StartChar: bracketright
Encoding: 93 93 158
Width: 740
VWidth: 0
GlyphClass: 2
Flags: HW
PickledData: "(dp1
S'org.pippin.gimp.org.kernagic'
p2
(dp3
S'lstem'
p4
I0
sS'rstem'
p5
I0
ssS'com.fontlab.hintData'
p6
(dp7
S'vhints'
p8
((dp9
S'position'
p10
I299
sS'width'
p11
I35
s(dp12
g10
I367
sg11
I63
stp13
sS'hhints'
p14
((dp15
g10
I-88
sg11
I74
s(dp16
g10
I1491
sg11
I61
stp17
ss."
HStem: -88 74 1491 61
VStem: 299 35 367 63
LayerCount: 2
Fore
SplineSet
313 -68 m 0
 313 -13 485 -22 524 -14 c 1
 516 2 l 1
 516 51 l 1
 491 106 452 1061 448 1204 c 0
 446 1288 436 1374 436 1458 c 0
 436 1485 430 1499 401 1499 c 0
 362 1499 325 1491 286 1491 c 2
 275 1491 l 2
 257 1491 227 1493 227 1511 c 0
 227 1556 427 1550 462 1552 c 1
 503 1528 l 1
 499 1510 483 1499 483 1481 c 0
 483 1157 538 834 538 510 c 0
 538 328 579 147 579 -35 c 0
 579 -76 383 -88 348 -88 c 0
 336 -88 313 -84 313 -68 c 0
EndSplineSet
EndChar

StartChar: breve
Encoding: 728 728 159
Width: 680
VWidth: 0
GlyphClass: 4
Flags: HW
PickledData: "(dp1
S'org.pippin.gimp.org.kernagic'
p2
(dp3
S'lstem'
p4
I0
sS'rstem'
p5
I0
ssS'com.fontlab.hintData'
p6
(dp7
S'vhints'
p8
((dp9
S'position'
p10
I344
sS'width'
p11
I68
stp12
sS'hhints'
p13
((dp14
g10
I891
sg11
I47
stp15
ss."
HStem: 891 47
VStem: 344 68
AnchorPoint: "top" 312 805 mark 0
LayerCount: 2
Fore
SplineSet
187 1210 m 1
 209 1228 l 1
 244 1226 222 1107 281 1064 c 2
 303 1048 l 1
 354 1048 l 2
 393 1048 424 1119 424 1152 c 0
 424 1162 422 1171 422 1181 c 0
 422 1201 428 1220 459 1220 c 0
 473 1220 490 1207 490 1191 c 0
 490 1183 481 1167 479 1159 c 1
 484 1144 l 1
 449 1070 436 1001 336 1001 c 0
 221 1001 187 1116 187 1210 c 1
EndSplineSet
EndChar

StartChar: brokenbar
Encoding: 166 166 160
Width: 500
VWidth: 0
GlyphClass: 2
Flags: HW
PickledData: "(dp1
S'org.pippin.gimp.org.kernagic'
p2
(dp3
S'lstem'
p4
I0
sS'rstem'
p5
I0
ssS'com.fontlab.hintData'
p6
(dp7
S'vhints'
p8
((dp9
S'position'
p10
I145
sS'width'
p11
I52
s(dp12
g10
I160
sg11
I53
s(dp13
g10
I170
sg11
I51
s(dp14
g10
I184
sg11
I54
stp15
sS'hhints'
p16
((dp17
g10
I-47
sg11
I21
s(dp18
g10
I1532
sg11
I20
stp19
ss."
HStem: -47 21<215.5 233> 1532 20<262.5 288>
VStem: 145 52 160 53 170 51 184 54
LayerCount: 2
Fore
SplineSet
255 43 m 1
 248 -27 l 1
 248 -47 238 -47 228 -47 c 0
 203 -47 203 -43 203 -31 c 0
 203 108 214 230 214 369 c 0
 214 408 218 547 218 561 c 0
 218 588 218 627 259 627 c 0
 269 627 271 627 271 604 c 0
 271 528 261 299 261 268 c 0
 261 241 257 108 255 92 c 1
 255 43 l 1
279 948 m 1
 273 879 l 1
 273 859 263 858 253 858 c 0
 228 858 228 862 228 874 c 0
 228 1026 238 1163 238 1315 c 0
 238 1350 242 1475 242 1487 c 0
 242 1514 242 1552 283 1552 c 0
 293 1552 296 1542 296 1530 c 0
 296 1458 285 1243 285 1214 c 0
 285 1183 281 1017 279 997 c 1
 279 948 l 1
EndSplineSet
EndChar

StartChar: bullet
Encoding: 8226 8226 161
Width: 620
VWidth: 0
GlyphClass: 2
Flags: HW
PickledData: "(dp1
S'org.pippin.gimp.org.kernagic'
p2
(dp3
S'lstem'
p4
I0
sS'rstem'
p5
I0
ssS'com.fontlab.hintData'
p6
(dp7
S'vhints'
p8
((dp9
S'position'
p10
I301
sS'width'
p11
I272
stp12
sS'hhints'
p13
((dp14
g10
I571
sg11
I287
stp15
ss."
HStem: 571 287<257 338 249 358.5>
VStem: 301 272
LayerCount: 2
Fore
SplineSet
171 690 m 0
 171 758 210 858 288 858 c 0
 388 858 443 804 443 741 c 0
 443 684 421 571 296 571 c 0
 218 571 171 649 171 690 c 0
EndSplineSet
EndChar

StartChar: c
Encoding: 99 99 162
Width: 720
VWidth: 0
GlyphClass: 2
Flags: HW
PickledData: "(dp1
S'org.pippin.gimp.org.kernagic'
p2
(dp3
S'lstem'
p4
I0
sS'rstem'
p5
I0
ssS'com.fontlab.hintData'
p6
(dp7
S'vhints'
p8
((dp9
S'position'
p10
I96
sS'width'
p11
I70
stp12
sS'hhints'
p13
((dp14
g10
I-33
sg11
I68
s(dp15
g10
I1303
sg11
I61
stp16
ss."
HStem: -33 68<394 394 394 462> 1303 61<407 415 415 489 407 501>
VStem: 96 70
AnchorPoint: "top" 436 1356 basechar 0
LayerCount: 2
Fore
SplineSet
394 -33 m 1
 359 -15 325 -15 292 10 c 0
 179 92 171 294 171 446 c 2
 171 680 l 2
 171 832 171 1211 300 1313 c 0
 333 1338 372 1344 407 1364 c 1
 489 1364 l 1
 507 1360 528 1358 528 1333 c 1
 501 1303 l 1
 415 1303 l 2
 268 1303 253 940 253 838 c 1
 249 827 l 1
 249 690 241 551 241 414 c 0
 241 260 255 35 458 35 c 0
 476 35 495 41 509 53 c 1
 523 53 540 47 540 31 c 0
 540 6 482 -25 462 -33 c 1
 394 -33 l 1
EndSplineSet
EndChar

StartChar: caron
Encoding: 711 711 164
Width: 640
VWidth: 0
GlyphClass: 4
Flags: HW
PickledData: "(dp1
S'org.pippin.gimp.org.kernagic'
p2
(dp3
S'lstem'
p4
I0
sS'rstem'
p5
I0
ssS'com.fontlab.hintData'
p6
(dp7
S'vhints'
p8
((dp9
S'position'
p10
I92
sS'width'
p11
I72
s(dp12
g10
I309
sg11
I64
stp13
sS'hhints'
p14
((dp15
g10
I950
sg11
I383
stp16
ss."
HStem: 950 383<320.5 415>
VStem: 92 72 309 64
AnchorPoint: "top" 322 805 mark 0
LayerCount: 2
Fore
SplineSet
388 1317 m 1
 415 1333 l 1
 427 1331 452 1325 452 1309 c 0
 452 1305 446 1290 444 1286 c 1
 446 1276 l 1
 431 1245 l 1
 433 1233 l 1
 410 1149 372 1083 372 993 c 0
 372 973 370 950 343 950 c 0
 298 950 173 1245 171 1296 c 1
 208 1323 l 1
 243 1276 l 1
 247 1231 311 1063 329 1010 c 1
 356 1110 380 1213 388 1317 c 1
EndSplineSet
EndChar

StartChar: cedilla
Encoding: 184 184 169
Width: 620
VWidth: 0
GlyphClass: 4
Flags: HW
PickledData: "(dp1
S'org.pippin.gimp.org.kernagic'
p2
(dp3
S'lstem'
p4
I0
sS'rstem'
p5
I0
ssS'com.fontlab.hintData'
p6
(dp7
S'vhints'
p8
((dp9
S'position'
p10
I156
sS'width'
p11
I51
s(dp12
g10
I281
sg11
I75
stp13
sS'hhints'
p14
((dp15
g10
I-479
sg11
I55
s(dp16
g10
I-28
sg11
I20
stp17
ss."
HStem: -479 55 -28 20
VStem: 156 51 281 75
LayerCount: 2
Fore
SplineSet
367 -160 m 1
 349 -160 330 -167 312 -167 c 0
 285 -167 268 -146 256 -126 c 1
 272 -89 273 -50 273 -9 c 2
 273 14 l 1
 332 22 l 1
 326 -13 324 -48 324 -81 c 1
 441 -89 473 -187 473 -287 c 0
 473 -342 408 -449 318 -449 c 0
 287 -449 230 -433 230 -394 c 0
 230 -380 236 -373 252 -373 c 0
 277 -373 293 -394 318 -394 c 0
 369 -394 398 -318 398 -251 c 0
 398 -212 388 -176 367 -160 c 1
EndSplineSet
EndChar

StartChar: cent
Encoding: 162 162 170
Width: 800
VWidth: 0
GlyphClass: 2
Flags: HW
PickledData: "(dp1
S'org.pippin.gimp.org.kernagic'
p2
(dp3
S'lstem'
p4
I0
sS'rstem'
p5
I0
ssS'com.fontlab.hintData'
p6
(dp7
S'vhints'
p8
((dp9
S'position'
p10
I94
sS'width'
p11
I51
s(dp12
g10
I248
sg11
I37
s(dp13
g10
I315
sg11
I45
s(dp14
g10
I330
sg11
I35
stp15
sS'hhints'
p16
((dp17
g10
I326
sg11
I43
stp18
ss."
HStem: 326 43<462 470 452 506>
VStem: 94 51 248 37 315 45 330 35
LayerCount: 2
Fore
SplineSet
247 977 m 0
 239 911 230 854 230 788 c 2
 230 781 l 2
 230 684 232 397 392 397 c 1
 400 401 l 1
 400 559 384 710 368 870 c 0
 362 968 358 1073 335 1161 c 1
 274 1151 245 985 247 977 c 0
423 25 m 1
 419 23 l 1
 417 80 415 144 415 203 c 2
 415 330 l 1
 325 365 224 406 206 512 c 1
 181 623 179 729 179 842 c 0
 179 975 200 1165 343 1243 c 1
 343 1286 333 1327 333 1370 c 0
 333 1384 332 1436 359 1436 c 1
 372 1427 l 1
 370 1409 370 1392 370 1374 c 0
 370 1329 374 1284 380 1239 c 1
 417 1223 562 1198 562 1135 c 0
 562 1127 554 1108 544 1108 c 0
 513 1108 509 1143 491 1159 c 0
 473 1179 441 1174 425 1194 c 1
 388 1194 l 1
 386 1198 l 1
 386 936 447 692 447 430 c 0
 447 422 445 407 445 401 c 0
 445 391 450 379 462 369 c 1
 550 369 591 421 636 489 c 1
 656 489 658 467 658 453 c 0
 658 394 523 326 470 326 c 2
 452 326 l 1
 452 291 450 256 450 221 c 0
 450 155 456 93 456 27 c 0
 456 15 450 11 443 11 c 0
 434 11 423 18 423 25 c 1
EndSplineSet
EndChar

StartChar: circumflex
Encoding: 710 710 171
Width: 640
VWidth: 0
GlyphClass: 4
Flags: HW
PickledData: "(dp1
S'org.pippin.gimp.org.kernagic'
p2
(dp3
S'lstem'
p4
I0
sS'rstem'
p5
I0
ssS'com.fontlab.hintData'
p6
(dp7
S'vhints'
p8
((dp9
S'position'
p10
I98
sS'width'
p11
I72
s(dp12
g10
I315
sg11
I64
stp13
sS'hhints'
p14
((dp15
g10
I950
sg11
I383
stp16
ss."
HStem: 950 383<320.5 415>
VStem: 98 72 315 64
AnchorPoint: "top" 312 805 mark 0
LayerCount: 2
Fore
SplineSet
415 950 m 1
 388 967 l 1
 380 1071 356 1174 329 1274 c 1
 311 1221 247 1053 243 1008 c 1
 208 961 l 1
 171 987 l 1
 173 1038 298 1333 343 1333 c 0
 370 1333 372 1310 372 1290 c 0
 372 1200 410 1135 433 1051 c 1
 431 1038 l 1
 446 1008 l 1
 444 997 l 1
 446 993 452 979 452 975 c 0
 452 959 427 952 415 950 c 1
EndSplineSet
EndChar

StartChar: colon
Encoding: 58 58 172
Width: 520
VWidth: 0
GlyphClass: 2
Flags: HW
PickledData: "(dp1
S'org.pippin.gimp.org.kernagic'
p2
(dp3
S'lstem'
p4
I0
sS'rstem'
p5
I0
ssS'com.fontlab.hintData'
p6
(dp7
S'vhints'
p8
((dp9
S'position'
p10
I113
sS'width'
p11
I102
s(dp12
g10
I133
sg11
I103
stp13
sS'hhints'
p14
((dp15
g10
I201
sg11
I104
s(dp16
g10
I975
sg11
I104
stp17
ss."
HStem: 201 104<234.5 256.5> 975 104<254.5 276.5>
VStem: 113 102 133 103
LayerCount: 2
Fore
SplineSet
215 1024 m 0
 215 1051 241 1079 268 1079 c 0
 293 1079 318 1049 318 1026 c 0
 318 989 293 975 260 975 c 0
 235 975 215 1001 215 1024 c 0
195 250 m 0
 195 277 221 305 248 305 c 0
 273 305 297 275 297 252 c 0
 297 215 273 201 240 201 c 0
 215 201 195 227 195 250 c 0
EndSplineSet
EndChar

StartChar: comma
Encoding: 44 44 173
Width: 560
VWidth: 0
GlyphClass: 2
Flags: HW
PickledData: "(dp1
S'org.pippin.gimp.org.kernagic'
p2
(dp3
S'lstem'
p4
I0
sS'rstem'
p5
I0
ssS'com.fontlab.hintData'
p6
(dp7
S'vhints'
p8
((dp9
S'position'
p10
I211
sS'width'
p11
I86
stp12
sS'hhints'
p13
((dp14
g10
I-178
sg11
I338
stp15
ss."
HStem: -178 338
VStem: 211 86
LayerCount: 2
Fore
SplineSet
167 -143 m 0
 208 -104 274 -57 274 6 c 1
 228 16 215 48 215 96 c 0
 215 146 257 160 292 160 c 0
 331 160 382 151 382 78 c 0
 382 12 308 -110 218 -170 c 0
 208 -176 198 -179 190 -179 c 0
 174 -179 164 -169 164 -156 c 0
 164 -152 165 -147 167 -143 c 0
EndSplineSet
EndChar

StartChar: copyright
Encoding: 169 169 174
Width: 1240
VWidth: 0
GlyphClass: 2
Flags: HW
PickledData: "(dp1
S'org.pippin.gimp.org.kernagic'
p2
(dp3
S'lstem'
p4
I0
sS'rstem'
p5
I0
ssS'com.fontlab.hintData'
p6
(dp7
S'vhints'
p8
((dp9
S'position'
p10
I98
sS'width'
p11
I72
s(dp12
g10
I311
sg11
I74
s(dp13
g10
I997
sg11
I68
stp14
sS'hhints'
p15
((dp16
g10
I2
sg11
I55
s(dp17
g10
I250
sg11
I59
s(dp18
g10
I1411
sg11
I66
s(dp19
g10
I1737
sg11
I51
stp20
ss."
HStem: 2 55<396.5 692 396.5 795> 250 59<586 651.5> 1411 66<505 600.5 459 652.5> 1737 51<394 582.5>
VStem: 98 72 311 74 997 68
LayerCount: 2
Fore
SplineSet
445 311 m 1
 332 452 328 621 328 793 c 2
 328 801 l 2
 328 986 330 1477 588 1477 c 0
 613 1477 641 1474 664 1466 c 0
 699 1454 805 1313 805 1276 c 0
 805 1260 795 1247 779 1247 c 0
 716 1247 708 1411 597 1411 c 0
 413 1411 422 1043 406 918 c 1
 410 909 l 1
 402 882 402 852 402 823 c 2
 402 786 l 2
 402 664 405 485 472 397 c 1
 472 391 l 1
 505 354 543 309 613 309 c 0
 730 309 762 418 795 418 c 0
 820 418 826 393 826 373 c 0
 826 305 680 250 623 250 c 0
 549 250 508 282 445 311 c 1
187 940 m 0
 187 825 199 709 205 594 c 0
 219 350 237 57 556 57 c 0
 828 57 937 221 994 465 c 0
 992 469 992 471 992 475 c 0
 992 514 1014 551 1014 588 c 2
 1014 893 l 2
 1014 971 987 1048 975 1124 c 0
 942 1329 867 1554 689 1677 c 0
 650 1704 607 1737 558 1737 c 0
 230 1737 187 1176 187 940 c 0
115 924 m 0
 115 1190 166 1788 533 1788 c 0
 973 1788 1082 1086 1082 756 c 0
 1082 416 1008 2 582 2 c 0
 150 2 146 324 128 662 c 0
 124 750 115 836 115 924 c 0
EndSplineSet
EndChar

StartChar: currency
Encoding: 164 164 175
Width: 940
VWidth: 0
GlyphClass: 2
Flags: HW
PickledData: "(dp1
S'org.pippin.gimp.org.kernagic'
p2
(dp3
S'lstem'
p4
I0
sS'rstem'
p5
I0
ssS'com.fontlab.hintData'
p6
(dp7
S'vhints'
p8
((dp9
S'position'
p10
I145
sS'width'
p11
I64
s(dp12
g10
I573
sg11
I95
s(dp13
g10
I686
sg11
I72
stp14
sS'hhints'
p15
((dp16
g10
I231
sg11
I52
s(dp17
g10
I1204
sg11
I60
stp18
ss."
HStem: 231 52<420 470> 1204 60<434.5 452 398 477.5>
VStem: 145 64 573 95 686 72
LayerCount: 2
Fore
SplineSet
287 412 m 1
 287 316 379 283 461 283 c 0
 672 283 711 624 711 780 c 0
 711 839 686 1063 637 1094 c 1
 612 1094 598 1118 598 1141 c 1
 569 1182 502 1204 453 1204 c 0
 416 1204 324 1131 320 1094 c 1
 338 1075 l 1
 338 1009 305 1047 291 1024 c 0
 264 985 236 749 236 696 c 0
 236 684 238 671 240 659 c 1
 234 634 234 611 234 586 c 0
 234 525 238 457 287 412 c 1
711 258 m 1
 697 283 684 309 668 334 c 1
 605 264 516 231 424 231 c 0
 356 231 287 277 244 326 c 1
 215 326 205 227 156 227 c 0
 121 227 115 248 115 279 c 0
 115 291 195 360 205 395 c 1
 170 452 170 526 170 592 c 0
 170 688 183 1009 244 1075 c 1
 244 1116 146 1185 146 1212 c 0
 146 1226 156 1235 170 1235 c 0
 221 1235 244 1170 277 1141 c 1
 300 1159 388 1264 408 1264 c 0
 496 1264 557 1239 629 1190 c 1
 662 1194 703 1329 758 1329 c 1
 787 1298 l 1
 783 1263 693 1186 693 1143 c 0
 693 1129 721 1050 727 1032 c 0
 752 954 783 856 783 774 c 0
 783 692 764 610 744 530 c 0
 734 489 715 438 715 397 c 0
 715 327 793 281 793 248 c 0
 793 232 784 219 766 219 c 0
 739 219 711 225 711 258 c 1
EndSplineSet
EndChar

StartChar: d
Encoding: 100 100 176
Width: 800
VWidth: 0
GlyphClass: 2
Flags: HW
PickledData: "(dp1
S'org.pippin.gimp.org.kernagic'
p2
(dp3
S'lstem'
p4
I0
sS'rstem'
p5
I0
ssS'com.fontlab.hintData'
p6
(dp7
S'vhints'
p8
((dp9
S'position'
p10
I115
sS'width'
p11
I63
s(dp12
g10
I123
sg11
I78
s(dp13
g10
I475
sg11
I61
stp14
sS'hhints'
p15
((dp16
g10
I-10
sg11
I59
s(dp17
g10
I1336
sg11
I20
stp18
ss."
HStem: -10 59<282 345 282 352> 1336 20<202 223.5>
VStem: 115 63 123 78 475 61
AnchorPoint: "top" 366 1356 basechar 0
LayerCount: 2
Fore
SplineSet
276 76 m 1
 282 49 l 1
 345 49 l 1
 363 72 378 80 401 100 c 0
 518 206 546 420 546 592 c 0
 546 619 544 643 544 666 c 1
 534 872 l 2
 528 1009 438 1262 270 1262 c 0
 254 1262 247 1094 247 883 c 0
 247 602 260 260 270 119 c 1
 268 80 l 1
 276 76 l 1
192 45 m 0
 186 164 184 282 184 401 c 0
 184 563 188 723 188 885 c 0
 188 1012 186 1141 180 1270 c 1
 168 1280 163 1295 163 1311 c 0
 163 1331 192 1356 212 1356 c 0
 235 1356 246 1331 264 1321 c 0
 291 1307 331 1310 360 1296 c 0
 415 1269 460 1208 511 1171 c 1
 509 1167 l 1
 513 1142 561 1094 575 1057 c 0
 604 979 608 883 608 813 c 0
 608 780 606 750 606 717 c 0
 606 706 605 693 605 680 c 0
 605 658 607 635 616 618 c 1
 567 356 624 140 352 -10 c 1
 210 -10 l 2
 194 -10 192 35 192 45 c 0
EndSplineSet
EndChar

StartChar: dagger
Encoding: 8224 8224 177
Width: 700
VWidth: 0
GlyphClass: 2
Flags: HW
LayerCount: 2
Fore
SplineSet
556 1080 m 0
 574 1080 601 1087 601 1107 c 0
 601 1130 582 1133 564 1133 c 2
 477 1131 l 2
 447 1131 409 1133 369 1136 c 1
 369 1254 l 1
 363 1270 361 1287 361 1303 c 0
 361 1328 365 1350 365 1375 c 0
 365 1424 361 1475 361 1524 c 1
 338 1541 l 1
 318 1541 286 1522 286 1502 c 0
 286 1362 288 1248 290 1141 c 1
 227 1146 166 1150 121 1150 c 0
 105 1150 88 1143 82 1127 c 1
 82 1093 129 1088 291 1088 c 1
 294 911 299 747 299 510 c 1
 307 279 309 269 309 250 c 0
 309 225 305 203 305 178 c 0
 305 129 309 78 309 29 c 1
 332 12 l 1
 352 12 384 31 384 51 c 0
 384 191 379 385 379 465 c 0
 376 642 371 806 371 1043 c 0
 371 1084 371 1088 381 1088 c 0
 418 1088 519 1080 556 1080 c 0
EndSplineSet
EndChar

StartChar: daggerdbl
Encoding: 8225 8225 178
Width: 600
VWidth: 0
GlyphClass: 2
Flags: HW
LayerCount: 2
Fore
SplineSet
556 1080 m 0
 574 1080 601 1087 601 1107 c 0
 601 1130 582 1133 564 1133 c 2
 477 1131 l 2
 447 1131 409 1133 369 1136 c 1
 369 1254 l 1
 363 1270 361 1287 361 1303 c 0
 361 1328 365 1350 365 1375 c 0
 365 1424 361 1475 361 1524 c 1
 338 1541 l 1
 318 1541 286 1522 286 1502 c 0
 286 1362 288 1248 290 1141 c 1
 227 1146 166 1150 121 1150 c 0
 105 1150 88 1143 82 1127 c 1
 82 1093 129 1088 291 1088 c 1
 294 911 299 747 299 510 c 0
 299 469 299 465 289 465 c 0
 252 465 151 473 114 473 c 0
 96 473 69 466 69 446 c 0
 69 423 88 420 106 420 c 2
 193 422 l 2
 223 422 261 420 301 417 c 1
 301 299 l 1
 307 283 309 266 309 250 c 0
 309 225 305 203 305 178 c 0
 305 129 309 78 309 29 c 1
 332 12 l 1
 352 12 384 31 384 51 c 0
 384 191 382 305 380 412 c 1
 443 407 504 403 549 403 c 0
 565 403 582 410 588 426 c 1
 588 460 541 465 379 465 c 1
 376 642 371 806 371 1043 c 0
 371 1084 371 1088 381 1088 c 0
 418 1088 519 1080 556 1080 c 0
EndSplineSet
EndChar

StartChar: dcroat
Encoding: 273 273 180
Width: 780
VWidth: 0
GlyphClass: 2
Flags: HW
PickledData: "(dp1
S'org.pippin.gimp.org.kernagic'
p2
(dp3
S'lstem'
p4
I0
sS'rstem'
p5
I0
ssS'com.fontlab.hintData'
p6
(dp7
S'vhints'
p8
((dp9
S'position'
p10
I115
sS'width'
p11
I63
s(dp12
g10
I123
sg11
I78
s(dp13
g10
I475
sg11
I61
stp14
sS'hhints'
p15
((dp16
g10
I-10
sg11
I59
s(dp17
g10
I638
sg11
I49
s(dp18
g10
I1336
sg11
I20
stp19
ss."
HStem: -10 59 638 49 1336 20
VStem: 115 63 123 78 475 61
LayerCount: 2
Fore
SplineSet
402 652 m 0
 402 644 242 638 185 638 c 0
 167 638 142 649 142 672 c 0
 142 680 305 687 357 687 c 0
 375 687 402 672 402 652 c 0
EndSplineSet
Refer: 176 100 N 1 0 0 1 28 0 2
EndChar

StartChar: degree
Encoding: 176 176 181
Width: 720
VWidth: 0
GlyphClass: 2
Flags: HW
PickledData: "(dp1
S'org.pippin.gimp.org.kernagic'
p2
(dp3
S'lstem'
p4
I0
sS'rstem'
p5
I0
ssS'com.fontlab.hintData'
p6
(dp7
S'vhints'
p8
((dp9
S'position'
p10
I256
sS'width'
p11
I45
s(dp12
g10
I573
sg11
I39
stp13
sS'hhints'
p14
((dp15
g10
I965
sg11
I39
s(dp16
g10
I1331
sg11
I47
stp17
ss."
HStem: 965 39<310 411.5 310 432> 1331 47<302 391>
VStem: 256 45 573 39
LayerCount: 2
Fore
SplineSet
179 1133 m 0
 179 1227 224 1378 335 1378 c 0
 448 1378 535 1294 535 1190 c 0
 535 1110 519 965 345 965 c 0
 247 965 179 1076 179 1133 c 0
224 1122 m 0
 224 1081 271 1004 349 1004 c 0
 474 1004 496 1117 496 1174 c 0
 496 1258 441 1331 341 1331 c 0
 263 1331 224 1206 224 1122 c 0
EndSplineSet
EndChar

StartChar: dieresis
Encoding: 168 168 182
Width: 920
VWidth: 0
GlyphClass: 4
Flags: HW
PickledData: "(dp1
S'org.pippin.gimp.org.kernagic'
p2
(dp3
S'lstem'
p4
I0
sS'rstem'
p5
I0
ssS'com.fontlab.hintData'
p6
(dp7
S'vhints'
p8
((dp9
S'position'
p10
I111
sS'width'
p11
I90
s(dp12
g10
I571
sg11
I95
stp13
sS'hhints'
p14
((dp15
g10
I971
sg11
I102
stp16
ss."
HStem: 971 102
VStem: 111 90 571 95
AnchorPoint: "top" 452 805 mark 0
LayerCount: 2
Fore
SplineSet
179 1132 m 0
 179 1155 203 1183 228 1183 c 0
 261 1183 269 1141 269 1116 c 0
 269 1091 238 1081 218 1081 c 0
 193 1081 179 1112 179 1132 c 0
639 1134 m 0
 639 1159 664 1185 689 1185 c 0
 712 1185 734 1156 734 1136 c 0
 734 1103 711 1089 680 1089 c 0
 657 1089 639 1114 639 1134 c 0
EndSplineSet
EndChar

StartChar: divide
Encoding: 247 247 183
Width: 720
VWidth: 0
GlyphClass: 2
Flags: HW
PickledData: "(dp1
S'org.pippin.gimp.org.kernagic'
p2
(dp3
S'lstem'
p4
I0
sS'rstem'
p5
I0
ssS'com.fontlab.hintData'
p6
(dp7
S'vhints'
p8
((dp9
S'position'
p10
I287
sS'width'
p11
I102
stp12
sS'hhints'
p13
((dp14
g10
I467
sg11
I90
s(dp15
g10
I721
sg11
I41
s(dp16
g10
I928
sg11
I94
stp17
ss."
HStem: 467 90<404.5 411> 721 41<356 417> 928 94<387 409>
VStem: 287 102
LayerCount: 2
Fore
SplineSet
401 467 m 0
 378 467 350 491 350 516 c 0
 350 549 392 557 417 557 c 0
 442 557 452 526 452 506 c 0
 452 481 421 467 401 467 c 0
399 928 m 0
 374 928 348 952 348 977 c 0
 348 1000 377 1022 397 1022 c 0
 430 1022 444 1000 444 969 c 0
 444 946 419 928 399 928 c 0
530 725 m 0
 493 723 478 721 417 721 c 2
 198 721 l 2
 178 721 155 733 155 756 c 0
 155 762 254 762 356 762 c 2
 546 762 l 2
 556 762 569 751 569 741 c 0
 569 733 561 725 530 725 c 0
EndSplineSet
EndChar

StartChar: dollar
Encoding: 36 36 184
Width: 720
VWidth: 0
GlyphClass: 2
Flags: HW
PickledData: "(dp1
S'org.pippin.gimp.org.kernagic'
p2
(dp3
S'lstem'
p4
I0
sS'rstem'
p5
I0
ssS'com.fontlab.hintData'
p6
(dp7
S'vhints'
p8
((dp9
S'position'
p10
I88
sS'width'
p11
I47
s(dp12
g10
I178
sg11
I43
s(dp13
g10
I219
sg11
I19
s(dp14
g10
I283
sg11
I45
s(dp15
g10
I414
sg11
I45
stp16
sS'hhints'
p17
((dp18
g10
I-18
sg11
I21
s(dp19
g10
I170
sg11
I35
stp20
ss."
HStem: -18 21<377 400.5> 170 35<268 367>
VStem: 88 47 178 43 219 19 283 45 414 45
LayerCount: 2
Fore
SplineSet
226 1288 m 0
 226 1190 263 1079 304 989 c 0
 304 985 306 983 310 981 c 1
 306 1145 281 1309 273 1473 c 1
 242 1467 226 1317 226 1288 c 0
406 240 m 1
 408 236 l 1
 461 261 505 328 505 387 c 0
 505 457 425 700 372 776 c 1
 372 596 406 420 406 240 c 1
365 23 m 1
 374 29 l 1
 374 164 l 1
 367 170 l 1
 332 170 298 170 265 166 c 1
 232 189 193 225 193 268 c 0
 193 280 200 289 212 289 c 2
 216 289 l 1
 267 258 224 205 312 205 c 0
 330 205 352 207 370 213 c 1
 370 336 326 789 316 881 c 0
 312 918 179 1130 179 1300 c 0
 179 1355 201 1522 277 1522 c 1
 277 1551 269 1579 269 1610 c 0
 269 1628 271 1663 298 1663 c 1
 314 1645 l 1
 312 1631 312 1613 312 1599 c 0
 312 1560 318 1524 345 1524 c 0
 374 1524 398 1508 423 1479 c 0
 431 1471 474 1425 474 1417 c 0
 474 1403 461 1379 449 1391 c 0
 408 1432 409 1479 329 1487 c 1
 322 1470 l 1
 322 1417 329 1362 329 1309 c 0
 329 1243 356 917 376 870 c 0
 411 776 536 571 550 403 c 1
 550 284 500 247 410 184 c 1
 410 145 419 107 419 68 c 0
 419 45 417 -18 384 -18 c 0
 370 -18 365 13 365 23 c 1
EndSplineSet
EndChar

StartChar: dotaccent
Encoding: 729 729 185
Width: 520
VWidth: 0
GlyphClass: 4
Flags: HW
PickledData: "(dp1
S'org.pippin.gimp.org.kernagic'
p2
(dp3
S'lstem'
p4
I0
sS'rstem'
p5
I0
ssS'com.fontlab.hintData'
p6
(dp7
S'vhints'
p8
((dp9
S'position'
p10
I113
sS'width'
p11
I102
stp12
sS'hhints'
p13
((dp14
g10
I1153
sg11
I104
stp15
ss."
HStem: 1153 104<242.5 264.5>
VStem: 113 102
AnchorPoint: "top" 262 805 mark 0
LayerCount: 2
Fore
SplineSet
203 1202 m 0
 203 1229 229 1257 256 1257 c 0
 281 1257 305 1227 305 1204 c 0
 305 1167 281 1153 248 1153 c 0
 223 1153 203 1179 203 1202 c 0
EndSplineSet
EndChar

StartChar: dotlessi
Encoding: 305 305 186
Width: 700
VWidth: 0
GlyphClass: 2
Flags: HW
PickledData: "(dp1
S'org.pippin.gimp.org.kernagic'
p2
(dp3
S'lstem'
p4
I0
sS'rstem'
p5
I0
ssS'com.fontlab.hintData'
p6
(dp7
S'vhints'
p8
((dp9
S'position'
p10
I223
sS'width'
p11
I64
s(dp12
g10
I238
sg11
I61
stp13
sS'hhints'
p14
((dp15
g10
I0
sg11
I21
s(dp16
g10
I16
sg11
I70
s(dp17
g10
I1294
sg11
I56
stp18
ss."
HStem: 0 21<347 369.5> 16 70<485.5 491 471 509.5> 1294 56<190 245>
VStem: 223 64 238 61
AnchorPoint: "top" 328 1356 basechar 0
LayerCount: 2
Fore
SplineSet
300 20 m 1
 288 20 276 18 266 18 c 0
 246 18 220 21 210 39 c 1
 210 57 225 60 237 74 c 1
 296 74 l 1
 304 82 l 1
 306 96 311 111 311 125 c 0
 311 275 296 423 296 573 c 0
 296 733 306 893 306 1051 c 0
 306 1131 304 1210 296 1288 c 1
 276 1294 255 1294 235 1294 c 0
 219 1294 202 1290 186 1290 c 0
 161 1290 147 1300 147 1325 c 0
 147 1339 184 1350 196 1350 c 0
 235 1350 481 1349 481 1288 c 0
 481 1282 478 1276 476 1272 c 1
 429 1268 l 1
 413 1280 390 1280 370 1280 c 1
 360 1274 l 1
 366 1256 366 1206 366 1165 c 0
 366 1003 360 840 360 678 c 0
 360 528 374 379 374 229 c 0
 374 217 372 191 372 166 c 0
 372 139 374 115 378 109 c 1
 376 104 l 1
 376 84 407 84 421 84 c 0
 441 84 461 86 481 86 c 0
 501 86 542 86 542 57 c 0
 542 32 522 16 497 16 c 0
 474 16 452 23 429 23 c 0
 398 23 383 0 356 0 c 0
 338 0 308 0 300 20 c 1
EndSplineSet
EndChar

StartChar: e
Encoding: 101 101 187
Width: 640
VWidth: 0
GlyphClass: 2
Flags: HW
PickledData: "(dp1
S'org.pippin.gimp.org.kernagic'
p2
(dp3
S'lstem'
p4
I0
sS'rstem'
p5
I0
ssS'com.fontlab.hintData'
p6
(dp7
S'vhints'
p8
((dp9
S'position'
p10
I109
sS'width'
p11
I69
stp12
sS'hhints'
p13
((dp14
g10
I-27
sg11
I60
s(dp15
g10
I717
sg11
I90
s(dp16
g10
I743
sg11
I60
s(dp17
g10
I1239
sg11
I98
s(dp18
g10
I1278
sg11
I72
stp19
ss."
HStem: -27 60<316.5 359.5 316.5 394> 717 90<334.5 400.5> 743 60<265.5 272 263 289.5> 1239 98 1278 72<226.5 265>
VStem: 109 69
AnchorPoint: "top" 356 1356 basechar 0
LayerCount: 2
Fore
SplineSet
186 68 m 1
 179 76 l 1
 189 103 194 129 194 160 c 0
 194 250 184 340 184 430 c 0
 184 635 198 840 198 1047 c 0
 198 1129 190 1210 190 1292 c 0
 190 1329 204 1350 249 1350 c 0
 261 1350 274 1347 282 1337 c 1
 317 1327 466 1325 470 1278 c 0
 470 1264 441 1245 431 1239 c 1
 382 1255 314 1276 265 1278 c 1
 255 1266 l 1
 257 1237 257 1207 257 1178 c 0
 257 1072 249 966 249 860 c 0
 249 831 253 803 278 803 c 0
 301 803 322 807 347 807 c 0
 370 807 425 805 427 770 c 0
 427 745 415 717 386 717 c 0
 372 717 347 723 339 733 c 1
 272 743 l 1
 263 743 l 1
 253 733 l 1
 253 727 l 1
 257 674 257 618 257 565 c 0
 257 469 253 370 253 274 c 0
 253 219 255 166 259 111 c 0
 263 45 286 33 347 33 c 0
 372 33 396 37 423 37 c 0
 441 37 483 37 483 10 c 0
 483 -27 421 -27 394 -27 c 2
 225 -27 l 2
 196 -27 186 -9 184 16 c 0
 184 32 186 52 186 68 c 1
EndSplineSet
EndChar

StartChar: e_e
Encoding: 65536 -1 188
Width: 1000
VWidth: 0
GlyphClass: 2
Flags: HW
PickledData: "(dp1
S'org.pippin.gimp.org.kernagic'
p2
(dp3
S'lstem'
p4
I0
sS'rstem'
p5
I0
ssS'com.fontlab.hintData'
p6
(dp7
S'vhints'
p8
((dp9
S'position'
p10
I117
sS'width'
p11
I57
s(dp12
g10
I518
sg11
I70
stp13
sS'hhints'
p14
((dp15
g10
I-25
sg11
I60
s(dp16
g10
I641
sg11
I59
s(dp17
g10
I743
sg11
I60
s(dp18
g10
I1239
sg11
I98
s(dp19
g10
I1278
sg11
I72
s(dp20
g10
I1278
sg11
I60
stp21
ss."
HStem: -25 60<721.5 764.5 721.5 799> 641 59<669.5 676 668 693.5> 743 60<250 252 252 330> 1239 98 1278 72<631.5 670> 1278 60<258 267.5 219 424 258 258>
VStem: 117 57 518 70
LayerCount: 2
Fore
SplineSet
590 211 m 0
 590 227 590 383 588 430 c 0
 588 635 602 840 602 1047 c 0
 602 1129 594 1210 594 1292 c 0
 594 1329 609 1350 654 1350 c 0
 666 1350 678 1347 686 1337 c 1
 721 1327 871 1325 875 1278 c 0
 875 1264 846 1245 836 1239 c 1
 787 1255 719 1276 670 1278 c 1
 660 1266 l 1
 662 1237 662 1207 662 1178 c 0
 662 1037 654 899 654 758 c 0
 654 729 657 700 682 700 c 0
 705 700 727 705 752 705 c 0
 775 705 830 703 832 668 c 0
 832 652 820 633 791 633 c 0
 777 633 752 633 744 631 c 1
 676 641 l 1
 668 641 l 1
 658 631 l 1
 658 625 l 1
 662 592 662 557 662 524 c 0
 662 442 658 358 658 276 c 0
 658 221 660 168 664 113 c 0
 668 47 691 35 752 35 c 0
 777 35 801 39 828 39 c 0
 846 39 887 39 887 12 c 0
 887 -25 826 -25 799 -25 c 2
 629 -25 l 2
 604 -25 596 -7 594 18 c 0
 590 79 590 150 590 211 c 0
183 430 m 1
 179 430 l 1
 179 635 187 840 187 1047 c 0
 187 1129 179 1210 179 1292 c 0
 179 1325 191 1338 247 1338 c 0
 288 1338 423 1334 453 1325 c 0
 459 1322 463 1315 463 1307 c 0
 463 1294 452 1278 424 1278 c 2
 258 1278 l 1
 248 1266 l 1
 250 1237 250 1207 250 1178 c 0
 250 1072 242 966 242 860 c 0
 242 831 244 803 250 803 c 2
 381 803 l 2
 391 803 418 801 418 770 c 0
 418 758 406 745 377 745 c 0
 363 745 338 745 330 743 c 1
 252 743 l 2
 248 743 244 737 244 727 c 0
 248 674 248 618 248 565 c 0
 248 469 244 370 244 274 c 0
 244 219 246 166 250 111 c 1
 250 45 252 33 258 33 c 0
 309 33 361 37 416 37 c 0
 434 37 476 37 476 10 c 0
 476 -27 414 -27 387 -27 c 1
 226 -33 l 1
 197 -33 187 -15 185 10 c 0
 185 127 183 283 183 430 c 1
EndSplineSet
Ligature2: "ligaStandardLigatureslookup0 subtable" e e
EndChar

StartChar: eight
Encoding: 56 56 196
Width: 680
VWidth: 0
GlyphClass: 2
Flags: HW
PickledData: "(dp1
S'org.pippin.gimp.org.kernagic'
p2
(dp3
S'lstem'
p4
I0
sS'rstem'
p5
I0
ssS'com.fontlab.hintData'
p6
(dp7
S'vhints'
p8
((dp9
S'position'
p10
I88
sS'width'
p11
I51
s(dp12
g10
I133
sg11
I47
s(dp13
g10
I229
sg11
I54
s(dp14
g10
I307
sg11
I47
s(dp15
g10
I395
sg11
I49
stp16
sS'hhints'
p17
((dp18
g10
I-78
sg11
I39
s(dp19
g10
I1563
sg11
I47
stp20
ss."
HStem: -78 39<309.5 377> 1563 47<266 274>
VStem: 88 51 133 47 229 54 307 47 395 49
LayerCount: 2
Fore
SplineSet
198 1438 m 0
 198 1372 262 996 305 969 c 1
 342 1088 366 1210 366 1335 c 0
 366 1382 358 1565 292 1565 c 0
 286 1565 278 1563 270 1563 c 0
 262 1563 251 1565 245 1569 c 1
 204 1536 198 1487 198 1438 c 0
264 53 m 1
 266 18 288 -39 331 -39 c 0
 425 -39 454 39 454 119 c 0
 454 273 417 448 376 598 c 0
 358 661 348 741 321 788 c 1
 258 700 239 291 239 168 c 0
 239 131 252 94 266 59 c 1
 264 53 l 1
192 186 m 0
 192 374 211 572 258 756 c 0
 268 793 288 829 288 868 c 0
 288 891 249 1003 241 1030 c 0
 204 1143 147 1325 147 1442 c 0
 147 1518 174 1610 266 1610 c 2
 303 1610 l 1
 330 1596 360 1590 374 1559 c 0
 401 1498 413 1399 413 1331 c 0
 413 1222 392 1114 372 1008 c 0
 366 981 342 888 342 868 c 0
 342 852 362 813 368 795 c 0
 434 596 503 333 503 104 c 0
 503 88 497 71 497 55 c 0
 497 51 497 49 499 45 c 0
 460 -31 423 -78 331 -78 c 0
 222 -78 192 104 192 186 c 0
EndSplineSet
EndChar

StartChar: ellipsis
Encoding: 8230 8230 197
Width: 1120
VWidth: 0
GlyphClass: 2
Flags: HW
PickledData: "(dp1
S'org.pippin.gimp.org.kernagic'
p2
(dp3
S'lstem'
p4
I0
sS'rstem'
p5
I0
ssS'com.fontlab.hintData'
p6
(dp7
S'vhints'
p8
((dp9
S'position'
p10
I113
sS'width'
p11
I102
s(dp12
g10
I440
sg11
I103
s(dp13
g10
I768
sg11
I102
stp14
sS'hhints'
p15
((dp16
g10
I-8
sg11
I104
stp17
ss."
HStem: -8 104<210.5 232.5 538.5 559.5 865.5 887.5>
VStem: 113 102 440 103 768 102
LayerCount: 2
Fore
SplineSet
826 41 m 0
 826 68 852 96 879 96 c 0
 904 96 928 66 928 43 c 0
 928 6 904 -8 871 -8 c 0
 846 -8 826 18 826 41 c 0
498 41 m 0
 498 68 525 96 552 96 c 0
 577 96 601 66 601 43 c 0
 601 6 576 -8 543 -8 c 0
 518 -8 498 18 498 41 c 0
171 41 m 0
 171 68 197 96 224 96 c 0
 249 96 273 66 273 43 c 0
 273 6 249 -8 216 -8 c 0
 191 -8 171 18 171 41 c 0
EndSplineSet
EndChar

StartChar: emdash
Encoding: 8212 8212 199
Width: 1060
VWidth: 0
GlyphClass: 2
Flags: HW
PickledData: "(dp1
S'org.pippin.gimp.org.kernagic'
p2
(dp3
S'lstem'
p4
I0
sS'rstem'
p5
I0
ssS'com.fontlab.hintData'
p6
(dp7
S'hhints'
p8
((dp9
S'position'
p10
I721
sS'width'
p11
I41
stp12
ss."
HStem: 721 41<645 706>
LayerCount: 2
Fore
SplineSet
983 727 m 1
 921 727 l 1
 921 721 819 721 706 721 c 2
 118 721 l 2
 98 721 75 733 75 756 c 0
 75 762 358 762 645 762 c 2
 937 762 l 2
 955 762 983 747 983 727 c 1
EndSplineSet
EndChar

StartChar: emptyset
Encoding: 8709 8709 200
Width: 1197
VWidth: 0
GlyphClass: 2
Flags: HW
LayerCount: 2
Fore
SplineSet
920 569 m 2
 920 364 815 162 571 162 c 0
 349 162 283 315 259 458 c 1
 900 940 l 1
 916 864 920 797 920 765 c 2
 920 569 l 2
886 996 m 1
 250 524 l 1
 246 574 l 2
 240 647 230 722 230 794 c 0
 230 946 268 1304 562 1304 c 0
 754 1304 845 1144 886 996 c 1
9 325 m 0
 9 310 20 305 32 305 c 0
 63 305 96 340 126 361 c 2
 200 414 l 1
 242 258 340 98 592 98 c 0
 926 98 990 448 990 674 c 0
 990 755 983 869 955 981 c 1
 994 1011 1104 1093 1113 1104 c 0
 1117 1109 1119 1115 1119 1121 c 0
 1119 1128 1113 1145 1102 1145 c 0
 1083 1145 1036 1106 1027 1100 c 2
 939 1035 l 1
 884 1207 769 1360 539 1360 c 0
 203 1360 156 963 156 786 c 0
 156 727 162 670 168 611 c 0
 172 573 177 526 186 476 c 1
 19 354 l 1
 13 346 9 336 9 325 c 0
EndSplineSet
EndChar

StartChar: endash
Encoding: 8211 8211 201
Width: 880
VWidth: 0
GlyphClass: 2
Flags: HW
PickledData: "(dp1
S'org.pippin.gimp.org.kernagic'
p2
(dp3
S'lstem'
p4
I0
sS'rstem'
p5
I0
ssS'com.fontlab.hintData'
p6
(dp7
S'vhints'
p8
((dp9
S'position'
p10
I10
sS'width'
p11
I621
stp12
sS'hhints'
p13
((dp14
g10
I721
sg11
I41
stp15
ss."
HStem: 721 41<406 467>
VStem: 10 621
LayerCount: 2
Fore
SplineSet
744 727 m 1
 682 727 l 1
 682 721 580 721 467 721 c 2
 166 721 l 2
 146 721 123 733 123 756 c 0
 123 762 263 762 406 762 c 2
 699 762 l 2
 717 762 744 747 744 727 c 1
EndSplineSet
EndChar

StartChar: eng
Encoding: 331 331 202
Width: 1000
VWidth: 0
GlyphClass: 2
Flags: HW
PickledData: "(dp1
S'org.pippin.gimp.org.kernagic'
p2
(dp3
S'lstem'
p4
I0
sS'rstem'
p5
I0
ssS'com.fontlab.hintData'
p6
(dp7
S'vhints'
p8
((dp9
S'position'
p10
I104
sS'width'
p11
I66
s(dp12
g10
I117
sg11
I96
s(dp13
g10
I117
sg11
I65
s(dp14
g10
I610
sg11
I66
s(dp15
g10
I682
sg11
I70
stp16
sS'hhints'
p17
((dp18
g10
I-4
sg11
I21
stp19
ss."
HStem: -4 21<206.5 238.5>
VStem: 104 66 117 96 117 65 610 66 682 70
LayerCount: 2
Fore
SplineSet
544 418 m 1
 534 428 489 569 489 571 c 0
 460 661 304 1143 257 1188 c 1
 245 1141 241 1091 241 1044 c 0
 241 989 245 936 245 883 c 0
 245 850 241 817 241 784 c 0
 241 749 245 713 245 676 c 0
 245 664 243 653 243 641 c 0
 243 586 245 295 257 264 c 1
 257 80 l 1
 265 66 265 53 265 37 c 0
 265 17 250 -4 227 -4 c 0
 186 -4 184 79 184 106 c 0
 184 151 192 195 192 240 c 0
 192 437 179 632 179 829 c 0
 179 950 192 1071 192 1192 c 2
 192 1204 l 2
 192 1253 192 1317 229 1350 c 1
 235 1343 l 1
 255 1348 l 1
 280 1338 282 1317 288 1294 c 0
 351 1030 497 782 581 520 c 0
 622 391 636 244 706 125 c 1
 710 131 l 1
 749 502 757 874 757 1247 c 0
 757 1263 753 1280 753 1298 c 0
 753 1316 757 1341 782 1341 c 0
 811 1341 827 1307 827 1282 c 2
 827 1145 l 1
 816 1128 l 1
 816 1001 757 121 751 12 c 1
 751 -53 l 2
 751 -174 704 -444 503 -444 c 1
 468 -410 l 1
 468 -408 466 -403 466 -401 c 0
 466 -385 538 -389 601 -336 c 0
 662 -283 681 -148 685 -66 c 1
 650 76 l 2
 621 191 579 305 544 418 c 1
EndSplineSet
EndChar

StartChar: equal
Encoding: 61 61 204
Width: 760
VWidth: 0
GlyphClass: 2
Flags: HW
PickledData: "(dp1
S'org.pippin.gimp.org.kernagic'
p2
(dp3
S'lstem'
p4
I0
sS'rstem'
p5
I0
ssS'com.fontlab.hintData'
p6
(dp7
S'vhints'
p8
((dp9
S'position'
p10
I553
sS'width'
p11
I12
stp12
sS'hhints'
p13
((dp14
g10
I608
sg11
I39
s(dp15
g10
I721
sg11
I41
stp16
ss."
HStem: 608 39 721 41<330 373>
VStem: 553 12
LayerCount: 2
Fore
SplineSet
538 594 m 1
 538 596 254 598 143 598 c 0
 132 598 123 614 123 626 c 0
 123 632 126 637 133 637 c 0
 143 637 440 635 536 635 c 0
 545 635 552 621 552 610 c 0
 552 601 547 594 538 594 c 1
590 727 m 0
 588 721 486 721 373 721 c 2
 175 721 l 2
 159 721 145 729 145 743 c 0
 145 747 146 751 148 756 c 0
 150 762 238 762 330 762 c 2
 561 762 l 2
 576 762 592 752 592 737 c 0
 592 734 592 730 590 727 c 0
EndSplineSet
EndChar

StartChar: estimated
Encoding: 8494 8494 205
Width: 914
VWidth: 0
GlyphClass: 2
Flags: HW
PickledData: "(dp1
S'com.fontlab.hintData'
p2
(dp3
S'vhints'
p4
((dp5
S'position'
p6
I96
sS'width'
p7
I70
stp8
sS'hhints'
p9
((dp10
g6
I-33
sg7
I68
s(dp11
g6
I1303
sg7
I61
stp12
ss."
HStem: -33 68 1303 61
VStem: 96 70
LayerCount: 2
Fore
SplineSet
226 670 m 1
 510 670 l 2
 607 670 690 678 690 1027 c 0
 690 1240 634 1333 446 1333 c 0
 279 1333 229 960 229 865 c 0
 229 862 229 859 229 857 c 0
 229 795 228 732 226 670 c 1
760 991 m 0
 760 972 760 953 760 933 c 0
 760 735 679 609 503 609 c 2
 224 609 l 1
 222 554 221 499 221 444 c 0
 221 213 303 47 465 47 c 0
 530 47 608 73 699 133 c 1
 713 133 742 121 730 111 c 0
 623 25 528 -12 449 -12 c 0
 257 -12 151 204 151 476 c 2
 151 710 l 2
 151 746 151 782 151 819 c 0
 151 1066 165 1318 387 1394 c 1
 418 1399 447 1401 474 1401 c 0
 685 1401 760 1259 760 991 c 0
EndSplineSet
EndChar

StartChar: eth
Encoding: 240 240 206
Width: 680
VWidth: 0
GlyphClass: 2
Flags: HW
PickledData: "(dp1
S'org.pippin.gimp.org.kernagic'
p2
(dp3
S'lstem'
p4
I0
sS'rstem'
p5
I0
ssS'com.fontlab.hintData'
p6
(dp7
S'vhints'
p8
((dp9
S'position'
p10
I119
sS'width'
p11
I49
s(dp12
g10
I340
sg11
I51
s(dp13
g10
I377
sg11
I53
stp14
sS'hhints'
p15
((dp16
g10
I-29
sg11
I41
s(dp17
g10
I868
sg11
I45
s(dp18
g10
I1276
sg11
I37
s(dp19
g10
I1296
sg11
I37
s(dp20
g10
I1549
sg11
I20
stp21
ss."
HStem: -29 41<267 352 267 404> 868 45<305.5 375> 1276 37<257.5 273.5> 1296 37 1549 20<289 334>
VStem: 119 49 340 51 377 53
LayerCount: 2
Fore
SplineSet
437 727 m 2
 437 844 l 1
 437 844 416 860 375 868 c 1
 236 868 228 291 228 174 c 0
 228 123 230 12 304 12 c 0
 400 12 396 100 404 166 c 0
 427 352 437 539 437 727 c 2
543 1313 m 2
 543 1311 504 1302 455 1296 c 1
 488 1116 490 899 490 815 c 2
 490 807 l 2
 490 660 486 514 480 369 c 1
 464 258 488 -29 320 -29 c 0
 195 -29 179 70 179 170 c 0
 179 334 181 913 392 913 c 0
 406 913 425 905 437 897 c 1
 435 960 427 1141 404 1288 c 1
 347 1282 290 1276 257 1276 c 0
 251 1276 246 1280 246 1284 c 0
 246 1290 246 1313 269 1313 c 0
 314 1313 357 1317 400 1323 c 1
 386 1407 366 1474 339 1497 c 0
 321 1513 269 1521 269 1550 c 0
 269 1560 285 1569 293 1569 c 0
 375 1569 422 1462 451 1329 c 1
 478 1331 504 1333 533 1333 c 0
 543 1333 545 1329 545 1323 c 0
 545 1319 543 1313 543 1313 c 2
EndSplineSet
EndChar

StartChar: exclam
Encoding: 33 33 207
Width: 520
VWidth: 0
GlyphClass: 2
Flags: HW
PickledData: "(dp1
S'org.pippin.gimp.org.kernagic'
p2
(dp3
S'lstem'
p4
I0
sS'rstem'
p5
I0
ssS'com.fontlab.hintData'
p6
(dp7
S'vhints'
p8
((dp9
S'position'
p10
I88
sS'width'
p11
I123
s(dp12
g10
I135
sg11
I90
s(dp13
g10
I145
sg11
I39
stp14
sS'hhints'
p15
((dp16
g10
I-27
sg11
I21
s(dp17
g10
I1528
sg11
I20
stp18
ss."
HStem: -27 21 1528 20<292.5 314>
VStem: 88 123 135 90 145 39
LayerCount: 2
Fore
SplineSet
252 330 m 2
 252 821 l 2
 252 938 257 1054 257 1171 c 0
 257 1282 242 1387 242 1493 c 0
 242 1522 279 1548 306 1548 c 0
 322 1548 332 1538 332 1522 c 0
 332 1194 289 871 289 543 c 0
 289 518 291 486 291 453 c 0
 291 408 287 361 275 332 c 1
 281 322 l 1
 254 322 l 1
 254 324 252 328 252 330 c 2
195 39 m 1
 195 66 230 102 257 102 c 0
 300 102 318 66 318 27 c 0
 318 -6 300 -25 267 -27 c 1
 259 -2 232 -35 195 39 c 1
EndSplineSet
EndChar

StartChar: exclamdown
Encoding: 161 161 208
Width: 560
VWidth: 0
GlyphClass: 2
Flags: HW
PickledData: "(dp1
S'org.pippin.gimp.org.kernagic'
p2
(dp3
S'lstem'
p4
I0
sS'rstem'
p5
I0
ssS'com.fontlab.hintData'
p6
(dp7
S'vhints'
p8
((dp9
S'position'
p10
I88
sS'width'
p11
I123
s(dp12
g10
I135
sg11
I90
s(dp13
g10
I145
sg11
I37
stp14
sS'hhints'
p15
((dp16
g10
I-27
sg11
I21
s(dp17
g10
I1528
sg11
I20
stp18
ss."
HStem: -27 21<324.5 346> 1528 20
VStem: 88 123 135 90 145 37
LayerCount: 2
Fore
SplineSet
284 700 m 2
 284 1192 l 2
 284 1194 286 1198 286 1200 c 1
 313 1200 l 1
 307 1190 l 1
 319 1161 323 1114 323 1069 c 0
 323 1036 321 1004 321 979 c 0
 321 651 364 328 364 0 c 0
 364 -16 354 -27 338 -27 c 0
 311 -27 274 0 274 29 c 0
 274 135 289 239 289 350 c 0
 289 467 284 583 284 700 c 2
227 1483 m 1
 264 1557 291 1523 299 1548 c 1
 332 1546 350 1528 350 1495 c 0
 350 1456 332 1419 289 1419 c 0
 262 1419 227 1456 227 1483 c 1
EndSplineSet
EndChar

StartChar: f
Encoding: 102 102 209
Width: 620
VWidth: 0
GlyphClass: 2
Flags: HW
PickledData: "(dp1
S'org.pippin.gimp.org.kernagic'
p2
(dp3
S'lstem'
p4
I0
sS'rstem'
p5
I237
ssS'com.fontlab.hintData'
p6
(dp7
S'vhints'
p8
((dp9
S'position'
p10
I106
sS'width'
p11
I5
s(dp12
g10
I117
sg11
I59
s(dp13
g10
I145
sg11
I68
stp14
sS'hhints'
p15
((dp16
g10
I-29
sg11
I21
s(dp17
g10
I1010
sg11
I4
s(dp18
g10
I1290
sg11
I74
stp19
ss."
HStem: -29 21<204 225.5> 1010 4 1290 74<254.5 343.5>
VStem: 106 5 117 59 145 68
AnchorPoint: "top" 366 1356 basechar 0
LayerCount: 2
Fore
SplineSet
163 2 m 1
 179 168 182 334 182 500 c 0
 182 774 210 1051 210 1325 c 0
 210 1352 243 1364 266 1364 c 0
 303 1364 511 1350 511 1305 c 0
 511 1274 461 1270 438 1270 c 1
 405 1288 362 1290 325 1290 c 0
 278 1290 296 1284 278 1247 c 1
 278 1100 258 958 258 815 c 2
 258 743 l 2
 258 725 395 754 395 705 c 0
 395 680 366 666 346 666 c 0
 323 666 301 678 278 678 c 0
 241 678 241 603 241 578 c 2
 241 346 l 2
 241 248 253 151 253 53 c 0
 253 20 247 -29 204 -29 c 1
 163 2 l 1
EndSplineSet
EndChar

StartChar: five
Encoding: 53 53 210
Width: 740
VWidth: 0
GlyphClass: 2
Flags: HW
PickledData: "(dp1
S'org.pippin.gimp.org.kernagic'
p2
(dp3
S'lstem'
p4
I0
sS'rstem'
p5
I0
ssS'com.fontlab.hintData'
p6
(dp7
S'vhints'
p8
((dp9
S'position'
p10
I88
sS'width'
p11
I64
s(dp12
g10
I434
sg11
I51
stp13
sS'hhints'
p14
((dp15
g10
I-20
sg11
I38
s(dp16
g10
I1540
sg11
I47
stp17
ss."
HStem: -20 38<367 381 381 397> 1540 47<333 337 337 347.5 333 372 329 337>
VStem: 88 64 434 51
LayerCount: 2
Fore
SplineSet
219 1337 m 1
 217 1337 217 1337 217 1335 c 1
 219 1337 l 1
397 -20 m 1
 381 -20 l 2
 353 -20 280 -19 280 12 c 0
 280 32 305 35 319 35 c 0
 337 35 354 18 372 18 c 0
 462 18 501 260 501 328 c 0
 501 430 489 952 352 952 c 2
 305 952 l 1
 296 946 l 1
 294 946 292 948 290 948 c 0
 276 948 257 930 245 930 c 0
 186 930 200 987 194 1026 c 1
 200 1061 204 1095 204 1130 c 0
 204 1275 159 1420 155 1565 c 1
 176 1585 l 1
 333 1587 l 1
 337 1587 l 2
 358 1587 395 1586 395 1559 c 1
 372 1540 l 1
 329 1540 l 1
 323 1536 l 1
 241 1546 l 1
 227 1542 l 1
 219 1544 l 1
 219 1478 229 1413 233 1350 c 0
 241 1235 250 1121 260 1006 c 1
 258 1006 257 1004 257 1004 c 1
 257 1000 397 994 434 967 c 0
 522 901 552 547 552 438 c 0
 552 286 551 62 397 -20 c 1
EndSplineSet
EndChar

StartChar: florin
Encoding: 402 402 211
Width: 620
VWidth: 0
GlyphClass: 2
Flags: HW
PickledData: "(dp1
S'com.fontlab.hintData'
p2
(dp3
S'vhints'
p4
((dp5
S'position'
p6
I106
sS'width'
p7
I5
s(dp8
g6
I117
sg7
I59
s(dp9
g6
I145
sg7
I68
stp10
sS'hhints'
p11
((dp12
g6
I-29
sg7
I21
s(dp13
g6
I1010
sg7
I4
s(dp14
g6
I1290
sg7
I74
stp15
ss."
HStem: -29 21 1010 4 1290 74
VStem: 106 5 117 59 145 68
LayerCount: 2
Fore
SplineSet
460 1569 m 0
 313 1539 295 1461 295 1285 c 0
 295 1233 288 1198 281 975 c 1
 258 975 214 987 191 987 c 0
 171 987 142 991 142 966 c 0
 142 917 279 946 279 928 c 2
 279 838 l 2
 279 745 252 173 250 131 c 0
 239 -72 233 -109 83 -131 c 0
 58 -134 4 -140 4 -166 c 0
 4 -185 30 -190 56 -190 c 0
 84 -190 116 -184 135 -180 c 0
 270 -150 298 -59 298 117 c 0
 298 159 316 460 332 855 c 2
 335 928 l 1
 358 928 403 916 426 916 c 0
 446 916 475 912 475 937 c 0
 475 971 410 976 369 976 c 0
 351 976 338 975 338 975 c 1
 338 1047 l 2
 338 1140 343 1229 343 1271 c 0
 343 1432 364 1500 514 1522 c 0
 537 1525 588 1532 588 1563 c 0
 588 1577 580 1580 567 1580 c 0
 559 1580 550 1579 539 1579 c 0
 511 1579 479 1573 460 1569 c 0
EndSplineSet
EndChar

StartChar: foundryicon
Encoding: 65537 -1 212
Width: 1582
VWidth: 0
GlyphClass: 2
Flags: HW
PickledData: "(dp1
S'org.pippin.gimp.org.kernagic'
p2
(dp3
S'lstem'
p4
I0
sS'rstem'
p5
I0
ss."
LayerCount: 2
Fore
SplineSet
765 350 m 2
 749 350 l 1
 682 293 559 199 492 147 c 0
 459 121 355 8 320 8 c 0
 296 8 274 12 274 42 c 0
 274 66 286 78 294 101 c 0
 326 247 393 399 436 543 c 1
 358 651 250 734 150 824 c 0
 107 862 0 897 0 962 c 0
 0 988 19 1001 47 1001 c 0
 61 1001 229 972 337 972 c 1
 587 962 l 1
 711 1271 l 1
 752 1333 771 1482 846 1482 c 0
 870 1482 911 1444 911 1420 c 0
 911 1317 957 1134 980 1034 c 2
 994 972 l 1
 1069 967 1166 965 1261 965 c 0
 1353 965 1431 972 1511 972 c 0
 1546 972 1582 959 1582 918 c 0
 1582 900 1478 842 1454 824 c 0
 1350 729 1257 607 1129 543 c 1
 1129 528 l 2
 1129 458 1167 368 1183 309 c 1
 1194 307 1253 34 1253 -4 c 0
 1253 -30 1236 -49 1209 -49 c 0
 1140 -49 921 350 765 350 c 2
953 436 m 1
 960 432 964 424 976 424 c 0
 986 424 1006 436 1006 448 c 0
 1006 583 990 715 990 848 c 2
 990 852 l 1
 1005 851 1028 849 1038 849 c 0
 1047 849 1067 855 1067 870 c 0
 1067 887 1047 890 1041 890 c 2
 1011 889 l 2
 982 889 926 895 894 895 c 0
 882 895 867 887 867 876 c 0
 867 854 890 853 937 853 c 1
 939 744 952 637 952 530 c 0
 952 524 953 519 953 514 c 0
 953 507 952 499 952 490 c 0
 952 472 953 454 953 436 c 1
764 864 m 0
 764 857 766 851 766 847 c 0
 766 739 764 633 755 527 c 1
 747 554 742 581 734 607 c 0
 705 695 657 778 637 865 c 0
 635 871 634 885 613 892 c 1
 612 892 l 1
 608 897 l 1
 581 887 577 856 577 837 c 2
 577 828 l 2
 577 789 573 748 573 707 c 0
 573 642 577 577 577 511 c 0
 577 496 575 482 575 466 c 0
 575 457 576 419 603 419 c 0
 618 419 629 433 629 442 c 0
 629 448 629 453 627 459 c 1
 627 528 l 2
 627 525 626 523 626 523 c 1
 623 523 622 600 622 633 c 1
 624 633 l 1
 623 651 622 673 622 692 c 2
 622 779 l 1
 641 727 670 639 677 618 c 0
 678 618 688 583 695 568 c 0
 707 528 726 491 731 448 c 0
 733 446 736 417 758 417 c 0
 760 417 762 417 765 418 c 1
 765 430 l 1
 770 419 l 1
 788 425 l 1
 800 422 813 751 813 804 c 1
 817 810 l 1
 817 859 l 2
 817 868 807 889 788 889 c 0
 769 889 764 871 764 864 c 0
EndSplineSet
EndChar

StartChar: four
Encoding: 52 52 213
Width: 660
VWidth: 0
GlyphClass: 2
Flags: HW
PickledData: "(dp1
S'org.pippin.gimp.org.kernagic'
p2
(dp3
S'lstem'
p4
I0
sS'rstem'
p5
I0
ssS'com.fontlab.hintData'
p6
(dp7
S'vhints'
p8
((dp9
S'position'
p10
I100
sS'width'
p11
I58
s(dp12
g10
I111
sg11
I47
s(dp13
g10
I131
sg11
I51
s(dp14
g10
I250
sg11
I57
s(dp15
g10
I266
sg11
I53
s(dp16
g10
I293
sg11
I47
s(dp17
g10
I301
sg11
I64
stp18
sS'hhints'
p19
((dp20
g10
I-25
sg11
I21
s(dp21
g10
I518
sg11
I45
s(dp22
g10
I1539
sg11
I20
stp23
ss."
HStem: -25 21<411 411> 518 45<247 255.5> 1539 20<218 234>
VStem: 100 58 111 47 131 51 250 57 266 53 293 47 301 64
LayerCount: 2
Fore
SplineSet
380 61 m 1
 378 66 l 1
 384 91 386 114 386 139 c 0
 386 209 372 278 372 348 c 0
 372 379 376 409 376 440 c 0
 376 460 375 520 355 530 c 1
 314 530 276 518 235 518 c 0
 202 518 204 523 179 541 c 1
 179 547 l 2
 179 570 186 592 190 612 c 1
 171 653 l 1
 171 688 190 719 190 754 c 0
 190 887 210 1022 210 1155 c 2
 210 1481 l 2
 210 1497 202 1516 202 1532 c 0
 202 1548 210 1559 226 1559 c 0
 242 1559 263 1550 263 1530 c 0
 263 1475 255 1421 255 1366 c 0
 255 1343 257 1319 261 1296 c 1
 257 1290 l 1
 259 1272 261 1253 261 1233 c 0
 261 1061 237 889 237 717 c 0
 237 697 251 677 251 657 c 0
 251 637 237 622 237 602 c 0
 237 588 237 563 257 563 c 0
 280 563 342 572 360 582 c 1
 360 729 351 877 345 1024 c 0
 343 1079 329 1133 329 1188 c 0
 329 1206 354 1212 368 1212 c 1
 386 1190 l 1
 386 1094 398 997 398 901 c 0
 398 860 405 596 419 582 c 1
 444 582 468 590 495 590 c 0
 509 590 534 587 534 567 c 0
 534 514 419 576 419 498 c 0
 419 451 427 177 437 152 c 1
 435 144 435 131 435 117 c 0
 435 99 438 78 444 68 c 1
 437 43 l 1
 444 29 l 1
 444 0 l 1
 411 -25 l 1
 380 -12 l 1
 380 61 l 1
EndSplineSet
EndChar

StartChar: fraction
Encoding: 8260 8260 214
Width: 680
VWidth: 0
GlyphClass: 2
Flags: HW
PickledData: "(dp1
S'org.pippin.gimp.org.kernagic'
p2
(dp3
S'lstem'
p4
I0
sS'rstem'
p5
I0
ssS'com.fontlab.hintData'
p6
(dp7
S'vhints'
p8
((dp9
S'position'
p10
I86
sS'width'
p11
I393
stp12
sS'hhints'
p13
((dp14
g10
I-6
sg11
I21
stp15
ss."
HStem: -6 21
VStem: 86 393
LayerCount: 2
Fore
SplineSet
548 1505 m 0
 548 1489 511 1337 507 1317 c 0
 433 977 354 641 276 299 c 2
 235 121 l 2
 225 78 218 -2 175 -6 c 1
 163 2 155 17 155 31 c 0
 155 129 200 268 227 387 c 0
 307 741 391 1096 483 1448 c 0
 487 1460 502 1532 518 1532 c 0
 534 1532 548 1523 548 1505 c 0
EndSplineSet
EndChar

StartChar: g
Encoding: 103 103 215
Width: 820
VWidth: 0
GlyphClass: 2
Flags: HW
PickledData: "(dp1
S'org.pippin.gimp.org.kernagic'
p2
(dp3
S'lstem'
p4
I0
sS'rstem'
p5
I0
ssS'com.fontlab.hintData'
p6
(dp7
S'vhints'
p8
((dp9
S'position'
p10
I92
sS'width'
p11
I76
s(dp12
g10
I508
sg11
I78
s(dp13
g10
I508
sg11
I55
stp14
sS'hhints'
p15
((dp16
g10
I-14
sg11
I59
s(dp17
g10
I543
sg11
I57
s(dp18
g10
I1300
sg11
I56
stp19
ss."
HStem: -14 59<394.5 466> 543 57<448.5 511.5> 1300 56<324 423>
VStem: 92 76 508 78 508 55
AnchorPoint: "top" 416 1356 basechar 0
LayerCount: 2
Fore
SplineSet
155 623 m 0
 155 719 170 815 176 911 c 0
 188 1087 194 1356 434 1356 c 0
 461 1356 497 1352 497 1327 c 0
 497 1307 472 1296 456 1296 c 0
 444 1296 429 1300 417 1300 c 0
 231 1300 231 758 231 629 c 0
 231 580 231 528 237 479 c 1
 300 383 196 45 448 45 c 0
 566 45 571 269 571 409 c 2
 571 522 l 1
 553 540 524 543 499 543 c 0
 491 543 476 541 460 541 c 0
 435 541 411 545 411 565 c 0
 411 594 437 600 460 600 c 0
 489 600 649 598 649 559 c 0
 649 508 626 457 626 406 c 0
 626 302 634 196 634 92 c 1
 579 37 507 -14 425 -14 c 0
 364 -14 280 -2 241 49 c 0
 184 123 155 517 155 623 c 0
EndSplineSet
EndChar

StartChar: germandbls
Encoding: 223 223 221
Width: 720
VWidth: 0
GlyphClass: 2
Flags: HW
PickledData: "(dp1
S'org.pippin.gimp.org.kernagic'
p2
(dp3
S'lstem'
p4
I0
sS'rstem'
p5
I0
ssS'com.fontlab.hintData'
p6
(dp7
S'vhints'
p8
((dp9
S'position'
p10
I109
sS'width'
p11
I63
s(dp12
g10
I113
sg11
I77
s(dp13
g10
I375
sg11
I53
s(dp14
g10
I436
sg11
I58
stp15
sS'hhints'
p16
((dp17
g10
I-12
sg11
I21
s(dp18
g10
I1466
sg11
I70
stp19
ss."
HStem: -12 21<215.5 221 221 223> 1466 70<295 366.5>
VStem: 109 63 113 77 375 53 436 58
LayerCount: 2
Fore
SplineSet
368 23 m 0
 347 23 325 37 325 53 c 0
 325 65 336 78 350 88 c 0
 383 104 469 158 479 197 c 1
 506 248 507 308 507 360 c 2
 507 371 l 2
 507 518 472 745 327 811 c 0
 311 819 294 840 294 858 c 0
 294 883 313 885 325 889 c 0
 386 907 446 1092 446 1190 c 0
 446 1356 396 1466 337 1466 c 0
 253 1466 243 1339 243 1255 c 0
 243 1132 251 1010 251 887 c 2
 251 809 l 2
 251 555 261 301 261 49 c 0
 261 20 258 -12 223 -12 c 2
 221 -12 l 2
 210 -12 184 -11 184 16 c 0
 184 188 194 363 194 535 c 0
 194 783 180 1018 180 1266 c 0
 180 1325 179 1536 335 1536 c 0
 444 1536 499 1394 499 1214 c 0
 499 1079 460 942 368 854 c 1
 497 788 565 647 565 473 c 2
 565 426 l 2
 565 262 554 113 386 27 c 0
 380 25 374 23 368 23 c 0
EndSplineSet
EndChar

StartChar: grave
Encoding: 96 96 222
Width: 680
VWidth: 0
GlyphClass: 4
Flags: HW
PickledData: "(dp1
S'org.pippin.gimp.org.kernagic'
p2
(dp3
S'lstem'
p4
I0
sS'rstem'
p5
I0
ssS'com.fontlab.hintData'
p6
(dp7
S'vhints'
p8
((dp9
S'position'
p10
I104
sS'width'
p11
I334
stp12
sS'hhints'
p13
((dp14
g10
I1548
sg11
I21
s(dp15
g10
I1618
sg11
I86
stp16
ss."
HStem: 1548 21 1618 86
VStem: 104 334
AnchorPoint: "top" 332 805 mark 0
LayerCount: 2
Fore
SplineSet
135 1220 m 1
 125 1218 114 1216 102 1216 c 0
 77 1216 32 1222 32 1257 c 0
 32 1269 33 1294 45 1302 c 1
 58 1302 l 2
 86 1302 120 1301 137 1279 c 1
 176 1265 366 1204 366 1163 c 0
 366 1153 350 1146 342 1146 c 0
 336 1146 147 1214 135 1220 c 1
EndSplineSet
EndChar

StartChar: greater
Encoding: 62 62 223
Width: 700
VWidth: 0
GlyphClass: 2
Flags: HW
PickledData: "(dp1
S'org.pippin.gimp.org.kernagic'
p2
(dp3
S'lstem'
p4
I0
sS'rstem'
p5
I0
ssS'com.fontlab.hintData'
p6
(dp7
S'vhints'
p8
((dp9
S'position'
p10
I158
sS'width'
p11
I104
s(dp12
g10
I414
sg11
I71
stp13
sS'hhints'
p14
((dp15
g10
I0
sg11
I21
stp16
ss."
HStem: 0 21<161 172>
VStem: 158 104 414 71
LayerCount: 2
Fore
SplineSet
198 4 m 1
 186 4 176 0 168 0 c 0
 154 0 141 27 139 39 c 1
 157 53 l 1
 194 119 473 675 473 700 c 0
 473 870 248 1202 217 1401 c 1
 243 1421 l 1
 284 1413 309 1284 321 1247 c 0
 354 1149 544 757 544 698 c 0
 544 647 480 598 462 549 c 0
 450 516 431 486 417 455 c 2
 241 90 l 2
 227 61 214 29 198 4 c 1
EndSplineSet
EndChar

StartChar: greaterequal
Encoding: 8805 8805 224
Width: 600
VWidth: 0
GlyphClass: 2
Flags: HW
LayerCount: 2
Fore
SplineSet
107 50 m 0
 107 69 118 70 170 70 c 0
 183 70 198 69 215 69 c 2
 384 65 l 1
 403 65 l 2
 427 65 447 66 462 66 c 0
 471 66 475 54 475 42 c 0
 475 29 471 16 461 16 c 0
 436 16 230 16 139 19 c 0
 122 20 107 24 107 50 c 0
151 224 m 0
 137 224 125 245 123 255 c 1
 141 266 l 1
 178 315 419 683 419 702 c 0
 419 766 244 1058 193 1214 c 1
 220 1230 l 1
 259 1225 286 1141 298 1113 c 0
 331 1036 491 746 491 701 c 0
 491 659 437 620 419 581 c 0
 407 557 391 530 374 507 c 2
 308 415 l 2
 264 354 225 277 182 227 c 1
 178 227 l 2
 168 227 159 224 151 224 c 0
EndSplineSet
EndChar

StartChar: guillemotleft
Encoding: 171 171 225
Width: 800
VWidth: 0
GlyphClass: 2
Flags: HW
PickledData: "(dp1
S'org.pippin.gimp.org.kernagic'
p2
(dp3
S'lstem'
p4
I0
sS'rstem'
p5
I0
ssS'com.fontlab.hintData'
p6
(dp7
S'vhints'
p8
((dp9
S'position'
p10
I256
sS'width'
p11
I72
s(dp12
g10
I479
sg11
I105
stp13
sS'hhints'
p14
((dp15
g10
I-35
sg11
I21
stp16
ss."
HStem: -35 21<489.5 509>
VStem: 256 72 479 105
LayerCount: 2
Fore
SplineSet
643 4 m 1
 600 67 565 160 526 242 c 2
 424 455 l 2
 410 486 391 518 379 549 c 0
 361 598 297 645 297 698 c 0
 297 755 487 1149 520 1247 c 0
 532 1282 559 1415 598 1421 c 1
 625 1401 l 1
 594 1202 369 870 369 700 c 0
 369 675 647 116 684 53 c 1
 703 39 l 1
 701 27 688 0 674 0 c 0
 666 0 657 4 647 4 c 2
 643 4 l 1
504 -35 m 0
 475 -35 413 100 399 127 c 0
 360 201 123 657 123 698 c 0
 123 725 352 1274 383 1358 c 1
 383 1360 l 1
 389 1376 424 1466 440 1466 c 0
 458 1466 479 1458 481 1438 c 1
 442 1377 418 1303 391 1235 c 0
 344 1114 299 991 254 868 c 0
 246 845 196 706 186 692 c 1
 192 586 545 25 545 -12 c 0
 545 -26 514 -35 504 -35 c 0
EndSplineSet
EndChar

StartChar: guillemotright
Encoding: 187 187 226
Width: 800
VWidth: 0
GlyphClass: 2
Flags: HW
PickledData: "(dp1
S'org.pippin.gimp.org.kernagic'
p2
(dp3
S'lstem'
p4
I0
sS'rstem'
p5
I0
ssS'com.fontlab.hintData'
p6
(dp7
S'vhints'
p8
((dp9
S'position'
p10
I158
sS'width'
p11
I104
s(dp12
g10
I414
sg11
I71
stp13
sS'hhints'
p14
((dp15
g10
I0
sg11
I21
stp16
ss."
HStem: 0 21<121 132>
VStem: 158 104 414 71
LayerCount: 2
Fore
SplineSet
678 698 m 0
 678 657 441 201 402 127 c 0
 388 100 327 -35 298 -35 c 0
 288 -35 257 -26 257 -12 c 0
 257 25 609 586 615 692 c 1
 605 706 555 845 547 868 c 0
 502 991 457 1114 410 1235 c 0
 383 1303 359 1377 320 1438 c 1
 322 1458 343 1466 361 1466 c 0
 377 1466 412 1376 418 1360 c 1
 418 1358 l 1
 449 1274 678 725 678 698 c 0
158 4 m 1
 146 4 136 0 128 0 c 0
 114 0 101 27 99 39 c 1
 117 53 l 1
 154 119 433 675 433 700 c 0
 433 870 208 1202 177 1401 c 1
 203 1421 l 1
 244 1413 269 1284 281 1247 c 0
 314 1149 504 757 504 698 c 0
 504 647 440 598 422 549 c 0
 410 516 391 486 377 455 c 2
 201 90 l 2
 187 61 174 29 158 4 c 1
EndSplineSet
EndChar

StartChar: guilsinglleft
Encoding: 8249 8249 227
Width: 700
VWidth: 0
GlyphClass: 2
Flags: HW
PickledData: "(dp1
S'org.pippin.gimp.org.kernagic'
p2
(dp3
S'lstem'
p4
I0
sS'rstem'
p5
I0
ssS'com.fontlab.hintData'
p6
(dp7
S'vhints'
p8
((dp9
S'position'
p10
I84
sS'width'
p11
I72
s(dp12
g10
I307
sg11
I105
stp13
sS'hhints'
p14
((dp15
g10
I0
sg11
I21
stp16
ss."
HStem: 0 21<520 531>
VStem: 84 72 307 105
LayerCount: 2
Fore
SplineSet
493 4 m 1
 450 67 415 160 376 242 c 2
 274 455 l 2
 260 486 241 518 229 549 c 0
 211 598 147 645 147 698 c 0
 147 755 337 1149 370 1247 c 0
 382 1282 409 1415 448 1421 c 1
 475 1401 l 1
 444 1202 219 870 219 700 c 0
 219 675 497 116 534 53 c 1
 552 39 l 1
 550 27 538 0 524 0 c 0
 516 0 507 4 497 4 c 2
 493 4 l 1
EndSplineSet
EndChar

StartChar: guilsinglright
Encoding: 8250 8250 228
Width: 700
VWidth: 0
GlyphClass: 2
Flags: HW
PickledData: "(dp1
S'org.pippin.gimp.org.kernagic'
p2
(dp3
S'lstem'
p4
I0
sS'rstem'
p5
I0
ssS'com.fontlab.hintData'
p6
(dp7
S'vhints'
p8
((dp9
S'position'
p10
I158
sS'width'
p11
I104
s(dp12
g10
I414
sg11
I71
stp13
sS'hhints'
p14
((dp15
g10
I0
sg11
I21
stp16
ss."
HStem: 0 21<161 172>
VStem: 158 104 414 71
LayerCount: 2
Fore
SplineSet
198 4 m 1
 186 4 176 0 168 0 c 0
 154 0 141 27 139 39 c 1
 157 53 l 1
 194 119 473 675 473 700 c 0
 473 870 248 1202 217 1401 c 1
 243 1421 l 1
 284 1413 309 1284 321 1247 c 0
 354 1149 544 757 544 698 c 0
 544 647 480 598 462 549 c 0
 450 516 431 486 417 455 c 2
 241 90 l 2
 227 61 214 29 198 4 c 1
EndSplineSet
EndChar

StartChar: h
Encoding: 104 104 229
Width: 740
VWidth: 0
GlyphClass: 2
Flags: HW
PickledData: "(dp1
S'org.pippin.gimp.org.kernagic'
p2
(dp3
S'lstem'
p4
I0
sS'rstem'
p5
I0
ssS'com.fontlab.hintData'
p6
(dp7
S'vhints'
p8
((dp9
S'position'
p10
I119
sS'width'
p11
I53
s(dp12
g10
I383
sg11
I72
s(dp13
g10
I410
sg11
I71
stp14
sS'hhints'
p15
((dp16
g10
I-23
sg11
I21
s(dp17
g10
I651
sg11
I60
s(dp18
g10
I1354
sg11
I20
stp19
ss."
HStem: -23 21 651 60<404 411 411 412> 1354 20
VStem: 119 53 383 72 410 71
AnchorPoint: "top" 356 1356 basechar 0
LayerCount: 2
Fore
SplineSet
427 739 m 1
 431 735 l 1
 427 735 l 1
 427 739 l 1
493 -2 m 1
 489 180 483 365 483 547 c 1
 478 555 l 1
 478 557 485 573 485 573 c 1
 485 598 482 624 478 649 c 1
 446 657 l 1
 434 653 419 651 405 651 c 0
 360 651 319 672 274 672 c 1
 253 664 l 1
 253 578 247 492 247 406 c 1
 253 397 l 1
 253 282 265 170 265 55 c 0
 265 35 258 2 231 2 c 0
 186 2 186 94 186 125 c 0
 186 250 190 375 190 500 c 0
 190 525 190 686 184 700 c 1
 194 720 194 811 194 836 c 0
 194 996 179 1155 179 1315 c 0
 179 1333 194 1354 214 1354 c 0
 253 1354 255 1272 255 1235 c 0
 255 1069 247 895 247 735 c 0
 247 712 366 711 404 711 c 2
 411 711 l 2
 460 711 485 725 485 778 c 0
 485 966 458 1155 458 1343 c 0
 458 1361 477 1374 493 1374 c 0
 499 1374 522 1364 530 1362 c 1
 530 1043 556 725 556 406 c 0
 556 271 559 135 569 0 c 1
 556 -23 l 1
 554 -5 507 -2 493 -2 c 1
EndSplineSet
EndChar

StartChar: hungarumlaut
Encoding: 733 733 232
Width: 940
VWidth: 0
GlyphClass: 4
Flags: HW
PickledData: "(dp1
S'org.pippin.gimp.org.kernagic'
p2
(dp3
S'lstem'
p4
I0
sS'rstem'
p5
I0
ssS'com.fontlab.hintData'
p6
(dp7
S'hhints'
p8
((dp9
S'position'
p10
I39
sS'width'
p11
I293
stp12
ss."
HStem: 39 293
AnchorPoint: "top" 412 805 mark 0
LayerCount: 2
Fore
SplineSet
407 1060 m 0
 407 1085 630 1238 660 1257 c 0
 674 1265 760 1317 774 1317 c 0
 789 1317 812 1288 816 1267 c 1
 710 1207 l 1
 685 1197 635 1171 599 1152 c 0
 569 1136 436 1045 418 1045 c 0
 408 1045 407 1052 407 1060 c 0
99 1050 m 1
 106 1081 433 1332 457 1332 c 0
 460 1332 480 1317 480 1301 c 0
 480 1294 476 1287 466 1281 c 0
 449 1268 292 1148 264 1130 c 1
 209 1104 169 1053 109 1039 c 1
 99 1050 l 1
EndSplineSet
EndChar

StartChar: hyphen
Encoding: 45 45 233
Width: 720
VWidth: 0
GlyphClass: 2
Flags: HW
PickledData: "(dp1
S'org.pippin.gimp.org.kernagic'
p2
(dp3
S'lstem'
p4
I0
sS'rstem'
p5
I0
ssS'com.fontlab.hintData'
p6
(dp7
S'vhints'
p8
((dp9
S'position'
p10
I113
sS'width'
p11
I395
stp12
sS'hhints'
p13
((dp14
g10
I680
sg11
I94
stp15
ss."
HStem: 680 94
VStem: 113 395
LayerCount: 2
Fore
SplineSet
550 739 m 0
 550 708 290 680 198 680 c 0
 180 680 155 692 155 715 c 0
 155 746 421 774 505 774 c 0
 523 774 550 759 550 739 c 0
EndSplineSet
EndChar

StartChar: i
Encoding: 105 105 234
Width: 700
VWidth: 0
GlyphClass: 2
Flags: HW
PickledData: "(dp1
S'org.pippin.gimp.org.kernagic'
p2
(dp3
S'lstem'
p4
I0
sS'rstem'
p5
I0
ssS'com.fontlab.hintData'
p6
(dp7
S'vhints'
p8
((dp9
S'position'
p10
I223
sS'width'
p11
I64
s(dp12
g10
I238
sg11
I61
stp13
sS'hhints'
p14
((dp15
g10
I0
sg11
I21
s(dp16
g10
I16
sg11
I70
s(dp17
g10
I1294
sg11
I56
stp18
ss."
HStem: 0 21<347 369.5> 16 70<485.5 491 471 509.5> 1294 56<190 245>
VStem: 223 64 238 61
AnchorPoint: "top" 336 1356 basechar 0
LayerCount: 2
Fore
SplineSet
300 20 m 1
 288 20 276 18 266 18 c 0
 246 18 220 21 210 39 c 1
 210 57 225 60 237 74 c 1
 296 74 l 1
 304 82 l 1
 306 96 311 111 311 125 c 0
 311 275 296 423 296 573 c 0
 296 733 306 893 306 1051 c 0
 306 1131 304 1210 296 1288 c 1
 276 1294 255 1294 235 1294 c 0
 219 1294 202 1290 186 1290 c 0
 161 1290 147 1300 147 1325 c 0
 147 1339 184 1350 196 1350 c 0
 235 1350 481 1349 481 1288 c 0
 481 1282 478 1276 476 1272 c 1
 429 1268 l 1
 413 1280 390 1280 370 1280 c 1
 360 1274 l 1
 366 1256 366 1206 366 1165 c 0
 366 1003 360 840 360 678 c 0
 360 528 374 379 374 229 c 0
 374 217 372 191 372 166 c 0
 372 139 374 115 378 109 c 1
 376 104 l 1
 376 84 407 84 421 84 c 0
 441 84 461 86 481 86 c 0
 501 86 542 86 542 57 c 0
 542 32 522 16 497 16 c 0
 474 16 452 23 429 23 c 0
 398 23 383 0 356 0 c 0
 338 0 308 0 300 20 c 1
EndSplineSet
EndChar

StartChar: infinity
Encoding: 8734 8734 242
Width: 1364
VWidth: 0
GlyphClass: 2
Flags: HW
LayerCount: 2
Fore
SplineSet
1274 737 m 0
 1274 674 1213 653 1134 653 c 0
 998 653 839 706 736 746 c 1
 811 773 1042 813 1121 813 c 0
 1206 813 1274 793 1274 737 c 0
623 746 m 1
 546 713 297 651 231 651 c 0
 146 651 85 663 85 723 c 0
 85 789 157 812 251 812 c 0
 370 812 526 776 623 746 c 1
1326 727 m 2
 1326 839 1158 854 1053 854 c 0
 944 854 846 820 780 802 c 0
 762 797 717 782 682 771 c 1
 647 782 602 797 584 802 c 0
 518 820 420 854 311 854 c 0
 206 854 38 839 38 727 c 2
 38 719 l 2
 38 627 130 600 206 600 c 0
 372 600 529 676 682 720 c 1
 835 676 992 600 1158 600 c 0
 1234 600 1326 627 1326 719 c 2
 1326 727 l 2
EndSplineSet
EndChar

StartChar: integral
Encoding: 8747 8747 243
Width: 600
VWidth: 0
GlyphClass: 2
Flags: HW
LayerCount: 2
Fore
SplineSet
460 1569 m 0
 313 1539 295 1461 295 1285 c 0
 295 1233 288 1198 281 975 c 1
 279 838 l 1
 279 745 252 173 250 131 c 0
 239 -72 233 -109 83 -131 c 0
 58 -134 4 -140 4 -166 c 0
 4 -185 30 -190 56 -190 c 0
 84 -190 116 -184 135 -180 c 0
 270 -150 298 -59 298 117 c 0
 298 159 316 460 332 855 c 2
 335 928 l 1
 338 1047 l 1
 338 1140 343 1229 343 1271 c 0
 343 1432 364 1500 514 1522 c 0
 537 1525 588 1532 588 1563 c 0
 588 1577 580 1580 567 1580 c 0
 559 1580 550 1579 539 1579 c 0
 511 1579 479 1573 460 1569 c 0
EndSplineSet
EndChar

StartChar: j
Encoding: 106 106 246
Width: 620
VWidth: 0
GlyphClass: 2
Flags: HW
PickledData: "(dp1
S'org.pippin.gimp.org.kernagic'
p2
(dp3
S'lstem'
p4
I125
sS'rstem'
p5
I297
ssS'com.fontlab.hintData'
p6
(dp7
S'vhints'
p8
((dp9
S'position'
p10
I272
sS'width'
p11
I62
s(dp12
g10
I291
sg11
I63
stp13
sS'hhints'
p14
((dp15
g10
I1247
sg11
I113
s(dp16
g10
I1268
sg11
I92
stp17
ss."
HStem: 1247 113 1268 92
VStem: 272 62 291 63
AnchorPoint: "top" 337 1356 basechar 0
LayerCount: 2
Fore
SplineSet
102 -197 m 0
 102 -181 237 -107 257 -84 c 0
 306 -29 323 100 323 172 c 0
 323 534 304 898 304 1260 c 1
 292 1282 l 1
 263 1294 143 1296 143 1335 c 0
 143 1347 176 1360 186 1360 c 0
 235 1360 528 1317 528 1274 c 0
 528 1256 511 1247 495 1247 c 0
 456 1247 423 1268 384 1268 c 0
 366 1268 366 1237 366 1227 c 0
 366 942 386 660 386 377 c 2
 386 152 l 1
 374 125 374 95 374 66 c 0
 374 -34 310 -252 165 -252 c 2
 151 -252 l 1
 104 -205 l 1
 104 -203 102 -199 102 -197 c 0
EndSplineSet
EndChar

StartChar: k
Encoding: 107 107 248
Width: 760
VWidth: 0
GlyphClass: 2
Flags: HW
PickledData: "(dp1
S'org.pippin.gimp.org.kernagic'
p2
(dp3
S'lstem'
p4
I0
sS'rstem'
p5
I365
ssS'com.fontlab.hintData'
p6
(dp7
S'vhints'
p8
((dp9
S'position'
p10
I102
sS'width'
p11
I64
s(dp12
g10
I121
sg11
I55
s(dp13
g10
I141
sg11
I78
s(dp14
g10
I141
sg11
I60
s(dp15
g10
I279
sg11
I59
stp16
sS'hhints'
p17
((dp18
g10
I-33
sg11
I21
s(dp19
g10
I1336
sg11
I20
stp20
ss."
HStem: -33 21<199.5 223> 1336 20<241 259>
VStem: 102 64 121 55 141 78 141 60 279 59
AnchorPoint: "top" 416 1356 basechar 0
LayerCount: 2
Fore
SplineSet
348 795 m 1
 343 803 l 1
 298 707 245 629 245 518 c 0
 245 469 235 420 235 371 c 2
 235 109 l 2
 235 70 249 31 249 -8 c 0
 249 -24 230 -33 216 -33 c 0
 183 -33 171 -25 171 10 c 2
 171 395 l 2
 171 481 190 567 190 653 c 0
 190 784 210 918 210 1049 c 2
 210 1333 l 1
 218 1349 233 1356 249 1356 c 0
 269 1356 288 1337 288 1317 c 1
 270 1284 270 1254 270 1219 c 0
 270 1076 262 929 262 786 c 1
 301 802 546 1343 575 1343 c 0
 598 1343 628 1336 630 1309 c 1
 538 1174 481 1077 411 930 c 1
 411 887 407 842 407 799 c 0
 407 670 534 236 597 117 c 0
 617 78 661 41 661 -6 c 0
 661 -26 644 -37 626 -37 c 0
 520 -37 354 670 348 795 c 1
EndSplineSet
EndChar

StartChar: kgreenlandic
Encoding: 312 312 250
Width: 800
VWidth: 0
GlyphClass: 2
Flags: HW
PickledData: "(dp1
S'org.pippin.gimp.org.kernagic'
p2
(dp3
S'lstem'
p4
I0
sS'rstem'
p5
I0
ssS'com.fontlab.hintData'
p6
(dp7
S'vhints'
p8
((dp9
S'position'
p10
I102
sS'width'
p11
I64
s(dp12
g10
I121
sg11
I55
s(dp13
g10
I141
sg11
I78
s(dp14
g10
I141
sg11
I60
s(dp15
g10
I279
sg11
I59
stp16
sS'hhints'
p17
((dp18
g10
I-33
sg11
I21
s(dp19
g10
I1336
sg11
I20
stp20
ss."
HStem: -33 21<199.5 223> 1336 20<241 259>
VStem: 102 64 121 55 141 78 141 60 279 59
LayerCount: 2
Fore
SplineSet
348 795 m 1
 343 803 l 1
 298 707 245 629 245 518 c 0
 245 469 235 420 235 371 c 2
 235 109 l 2
 235 70 249 31 249 -8 c 0
 249 -24 230 -33 216 -33 c 0
 183 -33 171 -25 171 10 c 2
 171 395 l 2
 171 481 190 567 190 653 c 0
 190 784 210 918 210 1049 c 2
 210 1333 l 1
 218 1349 233 1356 249 1356 c 0
 269 1356 288 1337 288 1317 c 1
 270 1284 270 1254 270 1219 c 0
 270 1076 262 929 262 786 c 1
 301 802 546 1343 575 1343 c 0
 598 1343 628 1336 630 1309 c 1
 538 1174 481 1077 411 930 c 1
 411 887 407 842 407 799 c 0
 407 670 534 236 597 117 c 0
 617 78 661 41 661 -6 c 0
 661 -26 644 -37 626 -37 c 0
 520 -37 354 670 348 795 c 1
EndSplineSet
EndChar

StartChar: l
Encoding: 108 108 251
Width: 640
VWidth: 0
GlyphClass: 2
Flags: HW
PickledData: "(dp1
S'org.pippin.gimp.org.kernagic'
p2
(dp3
S'lstem'
p4
I0
sS'rstem'
p5
I237
ssS'com.fontlab.hintData'
p6
(dp7
S'vhints'
p8
((dp9
S'position'
p10
I125
sS'width'
p11
I57
s(dp12
g10
I135
sg11
I49
stp13
sS'hhints'
p14
((dp15
g10
I-20
sg11
I61
stp16
ss."
HStem: -20 61
VStem: 125 57 135 49
AnchorPoint: "top" 416 1356 basechar 0
LayerCount: 2
Fore
SplineSet
285 -18 m 1
 289 -20 l 1
 262 -20 240 -27 213 -27 c 0
 190 -27 181 2 179 20 c 1
 183 40 183 65 183 88 c 0
 183 457 195 844 195 1180 c 0
 195 1205 205 1305 205 1315 c 0
 205 1325 212 1329 220 1329 c 0
 234 1329 254 1319 254 1321 c 1
 254 1266 252 1214 252 1159 c 0
 252 1009 254 863 254 713 c 0
 252 643 248 582 248 541 c 0
 248 484 252 424 252 367 c 1
 246 350 l 1
 248 352 l 1
 248 346 246 342 246 336 c 0
 246 326 248 315 252 307 c 1
 246 111 l 1
 246 98 l 2
 246 55 248 47 258 47 c 0
 311 47 422 41 451 41 c 2
 457 41 l 2
 471 41 488 22 488 6 c 0
 488 -6 480 -18 455 -20 c 0
 402 -18 342 -18 285 -18 c 1
EndSplineSet
EndChar

StartChar: l_l
Encoding: 65538 -1 252
Width: 1020
VWidth: 0
GlyphClass: 2
Flags: HW
PickledData: "(dp1
S'org.pippin.gimp.org.kernagic'
p2
(dp3
S'lstem'
p4
I0
sS'rstem'
p5
I0
ssS'com.fontlab.hintData'
p6
(dp7
S'vhints'
p8
((dp9
S'position'
p10
I109
sS'width'
p11
I67
s(dp12
g10
I125
sg11
I55
s(dp13
g10
I498
sg11
I77
s(dp14
g10
I514
sg11
I59
stp15
sS'hhints'
p16
((dp17
g10
I-25
sg11
I64
stp18
ss."
HStem: -25 64
VStem: 109 67 125 55 498 77 514 59
LayerCount: 2
Fore
SplineSet
610 -25 m 0
 576 -25 573 22 573 62 c 2
 573 84 l 2
 573 375 581 663 581 954 c 0
 581 1022 581 1127 585 1174 c 0
 585 1201 589 1315 589 1319 c 0
 589 1328 595 1331 604 1331 c 0
 621 1331 648 1319 648 1319 c 1
 648 1264 649 1212 653 1157 c 1
 653 948 646 728 646 535 c 0
 646 478 650 417 650 360 c 1
 644 344 l 1
 646 346 l 1
 646 340 644 336 644 330 c 0
 644 320 646 309 650 301 c 1
 644 41 l 1
 851 41 697 39 851 39 c 2
 858 39 l 2
 876 39 904 32 904 -4 c 0
 904 -16 878 -23 866 -25 c 0
 807 -23 740 -23 677 -23 c 1
 673 -27 l 1
 650 -25 633 -25 610 -25 c 0
282 -29 m 1
 278 -33 l 1
 214 -33 l 2
 191 -33 181 -4 179 14 c 1
 183 32 184 56 184 76 c 0
 184 371 192 663 192 958 c 0
 192 1026 192 1131 196 1178 c 0
 196 1205 200 1319 200 1321 c 0
 199 1330 213 1339 228 1339 c 0
 240 1339 252 1333 255 1315 c 0
 255 1055 251 779 251 539 c 2
 251 248 l 1
 249 180 249 101 249 33 c 1
 280 33 302 33 456 43 c 0
 468 45 499 41 499 10 c 0
 499 -15 474 -12 464 -16 c 0
 407 -22 343 -29 282 -29 c 1
EndSplineSet
Ligature2: "ligaStandardLigatureslookup0 subtable" l l
EndChar

StartChar: less
Encoding: 60 60 257
Width: 700
VWidth: 0
GlyphClass: 2
Flags: HW
PickledData: "(dp1
S'org.pippin.gimp.org.kernagic'
p2
(dp3
S'lstem'
p4
I0
sS'rstem'
p5
I0
ssS'com.fontlab.hintData'
p6
(dp7
S'vhints'
p8
((dp9
S'position'
p10
I84
sS'width'
p11
I72
s(dp12
g10
I307
sg11
I105
stp13
sS'hhints'
p14
((dp15
g10
I0
sg11
I21
stp16
ss."
HStem: 0 21<520 531>
VStem: 84 72 307 105
LayerCount: 2
Fore
SplineSet
493 4 m 1
 450 67 415 160 376 242 c 2
 274 455 l 2
 260 486 241 518 229 549 c 0
 211 598 147 645 147 698 c 0
 147 755 337 1149 370 1247 c 0
 382 1282 409 1415 448 1421 c 1
 475 1401 l 1
 444 1202 219 870 219 700 c 0
 219 675 497 116 534 53 c 1
 552 39 l 1
 550 27 538 0 524 0 c 0
 516 0 507 4 497 4 c 2
 493 4 l 1
EndSplineSet
EndChar

StartChar: lessequal
Encoding: 8804 8804 258
Width: 600
VWidth: 0
GlyphClass: 2
Flags: HW
LayerCount: 2
Fore
SplineSet
113 50 m 0
 113 69 124 70 176 70 c 0
 189 70 204 69 221 69 c 2
 390 65 l 1
 409 65 l 2
 433 65 453 66 468 66 c 0
 477 66 481 54 481 42 c 0
 481 29 477 16 467 16 c 0
 442 16 236 16 145 19 c 0
 128 20 113 24 113 50 c 0
406 227 m 1
 363 277 324 354 280 415 c 2
 214 507 l 2
 197 530 181 557 169 581 c 0
 151 620 97 659 97 701 c 0
 97 746 257 1036 290 1113 c 0
 302 1141 329 1225 368 1230 c 1
 395 1214 l 1
 344 1058 169 766 169 702 c 0
 169 683 410 315 447 266 c 1
 465 255 l 1
 463 245 451 224 437 224 c 0
 429 224 420 227 410 227 c 2
 406 227 l 1
EndSplineSet
EndChar

StartChar: logicalnot
Encoding: 172 172 259
Width: 800
VWidth: 0
GlyphClass: 2
Flags: HW
PickledData: "(dp1
S'org.pippin.gimp.org.kernagic'
p2
(dp3
S'lstem'
p4
I0
sS'rstem'
p5
I0
ssS'com.fontlab.hintData'
p6
(dp7
S'vhints'
p8
((dp9
S'position'
p10
I381
sS'width'
p11
I61
stp12
sS'hhints'
p13
((dp14
g10
I733
sg11
I49
s(dp15
g10
I739
sg11
I58
stp16
ss."
HStem: 733 49<156 166 156 317 155 166> 739 58<420.5 498.5 452 477>
VStem: 381 61
LayerCount: 2
Fore
SplineSet
593 700 m 0
 593 643 593 583 595 530 c 0
 595 505 577 498 569 498 c 0
 555 498 534 514 534 528 c 0
 534 598 528 664 528 727 c 0
 528 737 522 739 477 739 c 2
 444 739 l 2
 397 739 364 733 317 733 c 2
 155 733 l 2
 157 733 147 754 147 768 c 0
 147 776 151 782 161 782 c 0
 171 782 271 791 296 791 c 0
 366 791 417 797 487 797 c 0
 510 797 534 797 554 801 c 1
 572 799 602 789 602 766 c 0
 602 739 595 723 593 700 c 0
EndSplineSet
EndChar

StartChar: lozenge
Encoding: 9674 9674 260
Width: 800
VWidth: 0
GlyphClass: 2
Flags: HW
LayerCount: 2
Fore
SplineSet
406 8 m 1
 403 11 l 1
 406 13 l 1
 406 8 l 1
523 476 m 1
 508 385 425 72 408 18 c 1
 356 214 294 458 247 632 c 1
 258 691 306 839 335 994 c 0
 350 1085 370 1187 410 1271 c 1
 462 1045 494 882 571 657 c 1
 523 476 l 1
412 1281 m 1
 415 1278 l 1
 412 1276 l 1
 412 1281 l 1
628 662 m 0
 586 814 534 968 514 1060 c 0
 491 1165 462 1287 451 1336 c 1
 426 1349 l 1
 393 1349 364 1291 343 1222 c 0
 327 1171 299 1121 288 1069 c 0
 271 982 253 896 231 810 c 0
 219 758 210 702 191 650 c 0
 189 646 189 641 189 637 c 0
 189 634 189 631 190 627 c 0
 232 475 276 325 296 233 c 0
 319 128 356 2 367 -47 c 1
 392 -60 l 1
 425 -60 454 -2 475 67 c 0
 500 151 560 415 577 483 c 0
 590 534 608 587 627 639 c 0
 629 643 629 648 629 652 c 0
 629 655 629 658 628 662 c 0
EndSplineSet
EndChar

StartChar: lslash
Encoding: 322 322 261
Width: 740
VWidth: 0
GlyphClass: 2
Flags: HW
PickledData: "(dp1
S'org.pippin.gimp.org.kernagic'
p2
(dp3
S'lstem'
p4
I0
sS'rstem'
p5
I0
ssS'com.fontlab.hintData'
p6
(dp7
S'vhints'
p8
((dp9
S'position'
p10
I52
sS'width'
p11
I395
s(dp12
g10
I125
sg11
I57
s(dp13
g10
I135
sg11
I49
stp14
sS'hhints'
p15
((dp16
g10
I-20
sg11
I61
s(dp17
g10
I680
sg11
I94
stp18
ss."
HStem: -20 61 680 94
VStem: 52 395 125 57 135 49
LayerCount: 2
Fore
SplineSet
179 617 m 0
 169 617 146 623 146 638 c 0
 146 670 447 809 522 842 c 0
 527 844 535 846 542 846 c 0
 554 846 577 840 577 826 c 0
 577 794 281 658 199 621 c 0
 193 619 186 617 179 617 c 0
EndSplineSet
Refer: 251 108 N 1 0 0 1 125 0 2
EndChar

StartChar: m
Encoding: 109 109 262
Width: 1160
VWidth: 0
GlyphClass: 2
Flags: HW
PickledData: "(dp1
S'org.pippin.gimp.org.kernagic'
p2
(dp3
S'lstem'
p4
I0
sS'rstem'
p5
I0
ssS'com.fontlab.hintData'
p6
(dp7
S'vhints'
p8
((dp9
S'position'
p10
I98
sS'width'
p11
I76
s(dp12
g10
I162
sg11
I57
s(dp13
g10
I864
sg11
I86
s(dp14
g10
I864
sg11
I62
stp15
sS'hhints'
p16
((dp17
g10
I-39
sg11
I21
stp18
ss."
HStem: -39 21<178 191>
VStem: 98 76 162 57 864 86 864 62
AnchorPoint: "top" 586 1356 basechar 0
LayerCount: 2
Fore
SplineSet
885 1149 m 1
 883 1149 l 1
 880 1147 l 1
 885 1145 l 1
 885 1149 l 1
954 -106 m 0
 915 -106 913 -12 913 25 c 2
 913 159 l 2
 913 314 912 468 901 621 c 0
 897 676 885 731 885 786 c 0
 885 870 893 956 893 1040 c 0
 893 1067 893 1112 885 1137 c 1
 844 1104 666 383 639 274 c 0
 631 237 628 115 577 115 c 0
 530 115 516 139 516 182 c 0
 516 286 319 1100 268 1149 c 1
 252 789 223 430 223 70 c 0
 223 43 223 15 225 -12 c 1
 219 -30 200 -39 182 -39 c 0
 174 -39 147 -20 147 -10 c 0
 147 422 211 850 211 1282 c 0
 211 1296 199 1307 199 1321 c 0
 199 1348 236 1352 254 1352 c 0
 309 1352 299 1270 305 1235 c 0
 325 1124 393 1027 422 918 c 0
 445 832 473 748 489 662 c 1
 516 608 l 1
 536 502 573 396 575 287 c 1
 610 340 807 1085 827 1196 c 0
 835 1237 842 1348 901 1348 c 0
 917 1348 952 1329 952 1311 c 0
 952 1194 952 453 979 408 c 1
 979 336 975 265 975 193 c 0
 975 127 977 59 991 -4 c 0
 993 -16 999 -27 999 -39 c 0
 999 -62 983 -106 954 -106 c 0
EndSplineSet
EndChar

StartChar: m_m
Encoding: 65539 -1 263
Width: 1820
VWidth: 0
GlyphClass: 2
Flags: HW
PickledData: "(dp1
S'org.pippin.gimp.org.kernagic'
p2
(dp3
S'lstem'
p4
I0
sS'rstem'
p5
I0
ssS'com.fontlab.hintData'
p6
(dp7
S'vhints'
p8
((dp9
S'position'
p10
I104
sS'width'
p11
I76
s(dp12
g10
I139
sg11
I62
s(dp13
g10
I731
sg11
I49
s(dp14
g10
I748
sg11
I77
s(dp15
g10
I993
sg11
I76
s(dp16
g10
I1008
sg11
I61
s(dp17
g10
I1597
sg11
I52
s(dp18
g10
I1614
sg11
I80
stp19
sS'hhints'
p20
((dp21
g10
I-37
sg11
I33
stp22
ss."
HStem: -37 33
VStem: 104 76 139 62 731 49 748 77 993 76 1008 61 1597 52 1614 80
LayerCount: 2
Fore
SplineSet
1680 -23 m 1
 1678 -27 l 1
 1643 -27 1641 23 1641 41 c 2
 1641 99 l 2
 1641 274 1640 447 1624 618 c 1
 1624 673 1622 729 1622 784 c 0
 1622 874 1622 967 1618 1057 c 0
 1618 1098 1618 1165 1610 1202 c 1
 1592 1100 1440 416 1420 303 c 0
 1412 278 1409 195 1364 195 c 0
 1315 195 1319 250 1301 324 c 0
 1260 463 1119 1075 1096 1186 c 1
 1096 86 l 2
 1096 59 1096 31 1098 4 c 1
 1092 -14 1073 -23 1055 -23 c 0
 1047 -23 1020 -4 1020 6 c 0
 1020 426 1035 842 1035 1262 c 0
 1035 1298 1053 1319 1073 1319 c 0
 1096 1319 1123 1292 1135 1227 c 0
 1151 1157 1199 1024 1219 920 c 0
 1233 854 1364 285 1364 285 c 1
 1378 367 1520 1103 1540 1214 c 1
 1558 1265 1556 1323 1626 1323 c 0
 1642 1323 1676 1307 1676 1223 c 0
 1676 996 1706 391 1706 244 c 0
 1706 183 1709 118 1717 59 c 0
 1719 50 1721 38 1721 25 c 0
 1721 1 1713 -23 1680 -23 c 1
811 -25 m 1
 811 -23 l 1
 776 -23 775 27 775 45 c 2
 775 103 l 2
 775 278 774 452 758 623 c 1
 758 678 756 733 756 788 c 0
 756 872 756 958 752 1042 c 0
 752 1083 752 1151 744 1188 c 1
 726 1077 573 346 553 225 c 0
 545 200 543 117 498 117 c 0
 465 117 455 150 455 207 c 1
 428 377 259 1081 228 1169 c 1
 220 802 207 439 207 72 c 0
 207 45 207 17 209 -10 c 1
 203 -28 184 -37 166 -37 c 0
 158 -37 131 -18 131 -8 c 0
 131 424 166 852 166 1284 c 0
 166 1298 154 1309 154 1323 c 0
 154 1350 191 1354 209 1354 c 0
 270 1354 257 1280 267 1249 c 1
 281 1175 322 1033 340 920 c 1
 363 834 392 750 408 664 c 1
 441 522 l 1
 459 440 500 248 500 248 c 1
 514 330 652 1081 672 1194 c 1
 690 1268 688 1348 758 1348 c 0
 774 1348 807 1331 807 1247 c 0
 807 1014 838 394 838 242 c 0
 838 181 840 116 848 57 c 0
 850 48 852 36 852 23 c 0
 852 -1 844 -25 811 -25 c 1
EndSplineSet
Ligature2: "ligaStandardLigatureslookup0 subtable" m m
EndChar

StartChar: macron
Encoding: 175 175 264
Width: 720
VWidth: 0
GlyphClass: 4
Flags: HW
PickledData: "(dp1
S'org.pippin.gimp.org.kernagic'
p2
(dp3
S'lstem'
p4
I0
sS'rstem'
p5
I0
ssS'com.fontlab.hintData'
p6
(dp7
S'vhints'
p8
((dp9
S'position'
p10
I113
sS'width'
p11
I395
stp12
sS'hhints'
p13
((dp14
g10
I702
sg11
I50
stp15
ss."
HStem: 702 50
VStem: 113 395
AnchorPoint: "top" 312 805 mark 0
LayerCount: 2
Fore
SplineSet
550 1120 m 0
 548 1106 491 1103 419 1103 c 2
 304 1103 l 2
 222 1103 155 1103 155 1136 c 0
 157 1150 214 1153 286 1153 c 2
 402 1153 l 2
 486 1153 550 1153 550 1120 c 0
EndSplineSet
EndChar

StartChar: minus
Encoding: 8722 8722 265
Width: 780
VWidth: 0
GlyphClass: 2
Flags: HW
PickledData: "(dp1
S'org.pippin.gimp.org.kernagic'
p2
(dp3
S'lstem'
p4
I0
sS'rstem'
p5
I0
ssS'com.fontlab.hintData'
p6
(dp7
S'vhints'
p8
((dp9
S'position'
p10
I113
sS'width'
p11
I497
stp12
sS'hhints'
p13
((dp14
g10
I721
sg11
I53
stp15
ss."
HStem: 721 53
VStem: 113 497
LayerCount: 2
Fore
SplineSet
636 739 m 0
 636 729 305 721 182 721 c 0
 164 721 139 733 139 756 c 0
 139 766 487 774 591 774 c 0
 609 774 636 759 636 739 c 0
EndSplineSet
EndChar

StartChar: multiply
Encoding: 215 215 267
Width: 740
VWidth: 0
GlyphClass: 2
Flags: HW
PickledData: "(dp1
S'org.pippin.gimp.org.kernagic'
p2
(dp3
S'lstem'
p4
I0
sS'rstem'
p5
I0
ssS'com.fontlab.hintData'
p6
(dp7
S'vhints'
p8
((dp9
S'position'
p10
I297
sS'width'
p11
I119
stp12
sS'hhints'
p13
((dp14
g10
I584
sg11
I116
stp15
ss."
HStem: 584 116<355.5 377.5>
VStem: 297 119
LayerCount: 2
Fore
SplineSet
528 430 m 2
 483 473 l 2
 444 510 391 584 364 584 c 0
 313 584 272 457 213 457 c 0
 199 457 172 473 172 487 c 0
 172 507 239 555 264 580 c 0
 274 590 309 631 309 647 c 1
 260 698 139 780 139 817 c 0
 139 829 160 858 180 858 c 0
 188 858 197 856 205 848 c 1
 215 827 l 1
 258 784 343 700 368 700 c 0
 417 700 483 844 542 844 c 0
 556 844 573 827 573 813 c 0
 573 768 428 684 428 643 c 0
 428 586 594 520 594 471 c 0
 594 451 575 424 542 424 c 0
 536 424 532 426 528 430 c 2
EndSplineSet
EndChar

StartChar: n
Encoding: 110 110 268
Width: 1000
VWidth: 0
GlyphClass: 2
Flags: HW
PickledData: "(dp1
S'org.pippin.gimp.org.kernagic'
p2
(dp3
S'lstem'
p4
I0
sS'rstem'
p5
I0
ssS'com.fontlab.hintData'
p6
(dp7
S'vhints'
p8
((dp9
S'position'
p10
I104
sS'width'
p11
I66
s(dp12
g10
I117
sg11
I96
s(dp13
g10
I117
sg11
I65
s(dp14
g10
I682
sg11
I70
stp15
sS'hhints'
p16
((dp17
g10
I-4
sg11
I21
stp18
ss."
HStem: -4 21<206.5 238.5 716 716>
VStem: 104 66 117 96 117 65 682 70
AnchorPoint: "top" 506 1356 basechar 0
LayerCount: 2
Fore
SplineSet
544 418 m 1
 536 428 495 553 489 571 c 0
 460 661 304 1143 257 1188 c 1
 245 1141 241 1091 241 1044 c 0
 241 989 245 936 245 883 c 0
 245 850 241 817 241 784 c 0
 241 737 247 688 249 641 c 1
 243 641 l 1
 243 586 245 295 257 264 c 1
 257 80 l 1
 265 66 265 53 265 37 c 0
 265 17 250 -4 227 -4 c 0
 186 -4 184 79 184 106 c 0
 184 151 192 195 192 240 c 0
 192 437 179 632 179 829 c 0
 179 950 192 1071 192 1192 c 2
 192 1218 l 2
 192 1264 195 1321 229 1350 c 1
 235 1343 l 1
 255 1348 l 1
 280 1338 282 1317 288 1294 c 0
 351 1030 497 782 581 520 c 0
 622 391 636 244 706 125 c 1
 710 131 l 1
 749 502 757 874 757 1247 c 0
 757 1263 753 1280 753 1298 c 0
 753 1316 757 1341 782 1341 c 0
 811 1341 827 1307 827 1282 c 2
 827 1145 l 1
 816 1128 l 1
 816 999 784 72 751 6 c 1
 744 5 729 1 716 -3 c 1
 716 -4 l 1
 715 -3 l 1
 705 -6 696 -8 693 -8 c 0
 658 -8 660 47 648 70 c 1
 650 76 l 1
 632 193 579 305 544 418 c 1
EndSplineSet
EndChar

StartChar: nine
Encoding: 57 57 272
Width: 740
VWidth: 0
GlyphClass: 2
Flags: HW
PickledData: "(dp1
S'org.pippin.gimp.org.kernagic'
p2
(dp3
S'lstem'
p4
I0
sS'rstem'
p5
I0
ssS'com.fontlab.hintData'
p6
(dp7
S'vhints'
p8
((dp9
S'position'
p10
I36
sS'width'
p11
I54
s(dp12
g10
I348
sg11
I41
s(dp13
g10
I356
sg11
I50
stp14
sS'hhints'
p15
((dp16
g10
I-47
sg11
I21
s(dp17
g10
I948
sg11
I53
s(dp18
g10
I1563
sg11
I39
stp19
ss."
HStem: -47 21<471 486.5> 948 53<479 481> 1563 39<334 411.5 320.5 434>
VStem: 36 54 348 41 356 50
LayerCount: 2
Fore
SplineSet
452 997 m 1
 481 1001 l 1
 489 1146 491 1295 491 1440 c 0
 491 1508 473 1563 395 1563 c 0
 273 1563 225 1474 225 1366 c 0
 225 1208 328 1011 452 997 c 1
454 -27 m 1
 472 24 473 101 473 156 c 0
 473 346 483 537 483 727 c 0
 483 801 479 874 479 948 c 1
 465 944 l 1
 265 970 171 1151 171 1316 c 0
 171 1465 248 1602 393 1602 c 0
 430 1602 506 1581 526 1550 c 0
 540 1527 541 1262 541 1223 c 0
 541 1143 538 1061 538 981 c 0
 538 952 524 928 524 899 c 0
 524 670 518 438 518 209 c 0
 518 158 504 108 504 57 c 0
 504 41 506 26 506 10 c 0
 506 -13 502 -47 471 -47 c 1
 454 -27 l 1
EndSplineSet
EndChar

StartChar: notequal
Encoding: 8800 8800 273
Width: 600
VWidth: 0
GlyphClass: 2
Flags: HW
LayerCount: 2
Fore
SplineSet
454 974 m 0
 454 954 405 809 398 786 c 0
 350 646 301 507 253 367 c 0
 248 350 238 343 227 343 c 0
 215 343 205 354 205 368 c 0
 205 370 205 373 206 376 c 0
 267 558 329 740 395 918 c 0
 399 930 419 998 432 998 c 0
 444 998 454 989 454 974 c 0
EndSplineSet
Refer: 204 61 N 1 0 0 1 -21 0 2
EndChar

StartChar: numbersign
Encoding: 35 35 275
Width: 820
VWidth: 0
GlyphClass: 2
Flags: HW
PickledData: "(dp1
S'org.pippin.gimp.org.kernagic'
p2
(dp3
S'lstem'
p4
I0
sS'rstem'
p5
I0
ssS'com.fontlab.hintData'
p6
(dp7
S'vhints'
p8
((dp9
S'position'
p10
I317
sS'width'
p11
I43
s(dp12
g10
I444
sg11
I60
s(dp13
g10
I543
sg11
I24
s(dp14
g10
I623
sg11
I55
stp15
sS'hhints'
p16
((dp17
g10
I592
sg11
I63
s(dp18
g10
I608
sg11
I54
s(dp19
g10
I610
sg11
I66
s(dp20
g10
I967
sg11
I55
s(dp21
g10
I983
sg11
I61
stp22
ss."
HStem: 592 63<160 167.5> 608 54<346.5 363.5 326 386.5> 610 66<624 645.5 624 656 576 645.5> 967 55<199.5 208.5 148 224.5> 983 61<684.5 699 623 706>
VStem: 317 43 444 60 543 24 623 55
LayerCount: 2
Fore
SplineSet
298 666 m 0
 310 664 320 662 332 662 c 0
 395 662 460 662 521 670 c 1
 537 766 558 865 558 963 c 0
 558 983 449 983 400 983 c 0
 375 983 350 981 332 971 c 1
 316 934 296 723 296 674 c 0
 296 672 298 668 298 666 c 0
459 -37 m 0
 459 49 486 133 486 219 c 0
 486 348 525 473 525 602 c 1
 470 608 414 608 359 608 c 0
 334 608 310 608 287 600 c 1
 258 391 236 -57 199 -57 c 0
 189 -57 165 -51 165 -37 c 0
 165 57 177 152 187 244 c 0
 201 363 215 483 240 600 c 1
 211 600 183 592 152 592 c 0
 123 592 91 598 91 635 c 0
 91 653 123 655 160 655 c 2
 203 655 l 2
 219 655 234 655 244 657 c 1
 252 675 281 936 281 971 c 1
 258 971 237 967 212 967 c 0
 187 967 134 969 132 1004 c 1
 148 1022 l 1
 191 1022 l 2
 226 1022 268 1023 285 1028 c 1
 301 1169 332 1313 332 1456 c 0
 332 1470 330 1483 330 1497 c 0
 330 1517 334 1542 361 1542 c 1
 375 1513 l 1
 375 1353 339 1198 339 1038 c 1
 368 1030 396 1030 427 1030 c 2
 453 1030 l 2
 489 1030 528 1031 562 1044 c 1
 595 1204 626 1364 638 1526 c 1
 646 1536 656 1542 668 1542 c 0
 678 1542 689 1532 693 1522 c 1
 691 1362 619 1215 619 1055 c 1
 623 1044 l 1
 699 1044 l 1
 726 1016 l 1
 722 1006 713 983 699 983 c 0
 670 983 642 987 613 987 c 1
 588 889 582 778 582 678 c 1
 593 674 l 1
 603 674 617 676 631 676 c 0
 660 676 689 670 689 637 c 0
 689 623 666 614 656 610 c 1
 576 610 l 1
 560 397 519 184 519 -31 c 1
 496 -57 l 1
 484 -57 459 -53 459 -37 c 0
EndSplineSet
EndChar

StartChar: o
Encoding: 111 111 276
Width: 820
VWidth: 0
GlyphClass: 2
Flags: HW
PickledData: "(dp1
S'org.pippin.gimp.org.kernagic'
p2
(dp3
S'lstem'
p4
I0
sS'rstem'
p5
I0
ssS'com.fontlab.hintData'
p6
(dp7
S'vhints'
p8
((dp9
S'position'
p10
I94
sS'width'
p11
I64
s(dp12
g10
I500
sg11
I63
stp13
sS'hhints'
p14
((dp15
g10
I-39
sg11
I59
s(dp16
g10
I1294
sg11
I82
stp17
ss."
HStem: -39 59<330.5 486 330.5 519.5> 1294 82
VStem: 94 64 500 63
AnchorPoint: "top" 416 1356 basechar 0
LayerCount: 2
Fore
SplineSet
239 555 m 0
 239 475 258 20 403 20 c 0
 569 20 577 436 577 563 c 0
 577 725 554 885 554 1047 c 1
 546 1063 l 1
 550 1073 l 1
 550 1190 476 1294 378 1294 c 0
 208 1294 279 1071 245 909 c 1
 245 846 235 780 235 717 c 0
 235 664 239 608 239 555 c 0
411 -39 m 0
 175 -39 171 527 171 715 c 2
 171 786 l 2
 171 974 180 1357 319 1357 c 0
 328 1357 337 1355 347 1352 c 0
 470 1307 495 1354 554 1243 c 1
 622 1128 640 932 640 801 c 1
 636 791 l 1
 636 709 640 629 640 547 c 0
 640 381 628 -39 411 -39 c 0
EndSplineSet
EndChar

StartChar: oe
Encoding: 339 339 281
Width: 980
VWidth: 0
GlyphClass: 2
Flags: HW
PickledData: "(dp1
S'org.pippin.gimp.org.kernagic'
p2
(dp3
S'lstem'
p4
I0
sS'rstem'
p5
I0
ssS'com.fontlab.hintData'
p6
(dp7
S'vhints'
p8
((dp9
S'position'
p10
I94
sS'width'
p11
I64
s(dp12
g10
I477
sg11
I96
s(dp13
g10
I500
sg11
I69
stp14
sS'hhints'
p15
((dp16
g10
I-39
sg11
I59
s(dp17
g10
I717
sg11
I90
s(dp18
g10
I743
sg11
I60
s(dp19
g10
I1239
sg11
I98
s(dp20
g10
I1278
sg11
I72
s(dp21
g10
I1294
sg11
I82
stp22
ss."
HStem: -39 59<322.5 446> 717 90<720.5 785.5> 743 60<650.5 657 649 674.5> 1239 98 1278 72<611.5 651> 1294 82
VStem: 94 64 477 96 500 69
LayerCount: 2
Fore
SplineSet
231 555 m 0
 231 475 250 20 395 20 c 0
 561 20 569 436 569 563 c 0
 569 725 546 885 546 1047 c 1
 538 1063 l 1
 542 1073 l 1
 542 1247 494 1319 437 1319 c 0
 349 1319 237 1147 237 909 c 0
 237 846 227 780 227 717 c 0
 227 664 231 608 231 555 c 0
403 -39 m 0
 167 -39 163 527 163 715 c 0
 163 1185 296 1375 409 1375 c 0
 466 1375 518 1327 546 1243 c 0
 553 1221 569 1199 579 1174 c 1
 577 1213 575 1251 575 1292 c 0
 575 1329 589 1350 634 1350 c 0
 646 1350 659 1347 667 1337 c 1
 702 1327 851 1325 855 1278 c 0
 855 1264 827 1245 817 1239 c 1
 768 1255 700 1276 651 1278 c 1
 640 1266 l 1
 642 1237 642 1207 642 1178 c 0
 642 1072 634 966 634 860 c 0
 634 831 638 803 663 803 c 0
 686 803 708 807 733 807 c 0
 756 807 810 805 812 770 c 0
 812 745 800 717 771 717 c 0
 757 717 732 723 724 733 c 1
 657 743 l 1
 649 743 l 1
 638 727 l 1
 642 674 642 618 642 565 c 0
 642 469 638 370 638 274 c 0
 638 219 640 166 644 111 c 0
 648 45 672 33 733 33 c 0
 758 33 781 37 808 37 c 0
 826 37 868 37 868 10 c 0
 868 -27 807 -27 780 -27 c 2
 610 -27 l 2
 581 -27 571 -9 569 16 c 0
 569 32 571 52 571 68 c 1
 565 76 l 1
 569 88 573 103 575 117 c 1
 542 27 489 -39 403 -39 c 0
EndSplineSet
EndChar

StartChar: ogonek
Encoding: 731 731 282
Width: 620
VWidth: 0
GlyphClass: 2
Flags: HW
PickledData: "(dp1
S'org.pippin.gimp.org.kernagic'
p2
(dp3
S'lstem'
p4
I0
sS'rstem'
p5
I0
ssS'com.fontlab.hintData'
p6
(dp7
S'vhints'
p8
((dp9
S'position'
p10
I113
sS'width'
p11
I86
stp12
sS'hhints'
p13
((dp14
g10
I-479
sg11
I55
s(dp15
g10
I-28
sg11
I20
stp16
ss."
HStem: -479 55 -28 20
VStem: 113 86
LayerCount: 2
Fore
SplineSet
368 22 m 1
 427 14 l 1
 428 15 429 15 429 15 c 1
 430 14 l 1
 430 5 319 -116 319 -220 c 0
 319 -234 317 -253 315 -267 c 0
 315 -279 313 -294 313 -310 c 0
 313 -343 347 -394 382 -394 c 0
 407 -394 423 -373 448 -373 c 0
 464 -373 470 -380 470 -394 c 0
 470 -433 413 -449 382 -449 c 0
 292 -449 227 -342 227 -287 c 0
 227 -113 368 22 368 22 c 1
EndSplineSet
EndChar

StartChar: one
Encoding: 49 49 286
Width: 740
VWidth: 0
GlyphClass: 2
Flags: HW
PickledData: "(dp1
S'org.pippin.gimp.org.kernagic'
p2
(dp3
S'lstem'
p4
I0
sS'rstem'
p5
I0
ssS'com.typemytype.robofont.layerData'
p6
(dp7
sS'com.fontlab.hintData'
p8
(dp9
S'vhints'
p10
((dp11
S'position'
p12
I254
sS'width'
p13
I37
s(dp14
g12
I313
sg13
I52
stp15
sS'hhints'
p16
((dp17
g12
I6
sg13
I49
s(dp18
g12
I1483
sg13
I47
stp19
ss."
HStem: 6 49 1483 47<213 351>
VStem: 254 37 313 52
LayerCount: 2
Fore
SplineSet
537 14 m 0
 555 14 582 18 582 43 c 0
 582 72 537 72 519 72 c 0
 488 72 458 66 427 66 c 1
 418 72 l 1
 418 82 421 92 421 102 c 0
 421 143 412 302 412 334 c 2
 412 360 l 2
 412 589 385 961 385 1047 c 0
 385 1176 375 1305 375 1434 c 2
 375 1497 l 2
 375 1515 360 1530 342 1530 c 0
 206 1530 139 1530 139 1501 c 0
 139 1481 160 1479 174 1479 c 0
 190 1479 205 1483 221 1483 c 0
 303 1483 315 1481 315 1415 c 0
 315 1390 313 1307 313 1284 c 0
 338 893 359 495 359 104 c 0
 359 65 347 64 308 64 c 0
 290 64 206 65 191 65 c 0
 182 65 175 53 175 46 c 0
 175 9 189 6 207 6 c 0
 291 6 453 14 537 14 c 0
EndSplineSet
EndChar

StartChar: onehalf
Encoding: 189 189 287
Width: 1640
VWidth: 0
GlyphClass: 2
Flags: HW
PickledData: "(dp1
S'org.pippin.gimp.org.kernagic'
p2
(dp3
S'lstem'
p4
I0
sS'rstem'
p5
I0
ssS'com.fontlab.hintData'
p6
(dp7
S'vhints'
p8
((dp9
S'position'
p10
I254
sS'width'
p11
I37
s(dp12
g10
I313
sg11
I52
s(dp13
g10
I1587
sg11
I51
stp14
sS'hhints'
p15
((dp16
g10
I-16
sg11
I31
s(dp17
g10
I6
sg11
I49
s(dp18
g10
I14
sg11
I58
s(dp19
g10
I1483
sg11
I47
s(dp20
g10
I1544
sg11
I41
stp21
ss."
HStem: -16 31 6 49<159 177> 14 58<353.5 378> 1483 47<60 175> 1544 41<1366 1408.5 1311 1428.5>
VStem: 254 37 313 52 1587 51
LayerCount: 2
Fore
SplineSet
1149 25 m 1
 1208 99 1221 190 1260 274 c 0
 1407 596 1493 893 1493 1249 c 0
 1493 1335 1491 1544 1366 1544 c 1
 1279 1505 1314 1366 1266 1366 c 0
 1239 1366 1239 1387 1239 1407 c 0
 1239 1466 1274 1585 1348 1585 c 0
 1469 1585 1538 1477 1542 1366 c 1
 1538 1362 l 1
 1538 1313 1544 1261 1544 1212 c 0
 1544 997 1477 617 1389 420 c 0
 1358 350 1227 96 1225 41 c 1
 1241 39 l 1
 1315 53 1405 57 1487 61 c 1
 1518 29 l 1
 1499 2 l 1
 1399 2 1300 -16 1200 -16 c 0
 1175 -16 1149 -2 1149 25 c 1
991 1505 m 0
 991 1489 954 1337 950 1317 c 0
 876 977 797 641 719 299 c 2
 678 121 l 2
 668 78 662 -2 619 -6 c 1
 607 2 598 17 598 31 c 0
 598 129 643 268 670 387 c 0
 750 741 834 1096 926 1448 c 0
 930 1460 945 1532 961 1532 c 0
 977 1532 991 1523 991 1505 c 0
103 37 m 1
 113 57 l 1
 131 57 150 55 168 55 c 0
 207 55 219 72 219 111 c 0
 219 502 185 893 160 1284 c 0
 160 1307 162 1329 162 1354 c 0
 162 1420 150 1483 68 1483 c 0
 52 1483 37 1479 21 1479 c 0
 7 1479 -12 1481 -12 1501 c 0
 -12 1530 139 1530 166 1530 c 0
 184 1530 199 1515 199 1497 c 1
 203 1497 l 1
 199 1477 197 1454 197 1434 c 0
 197 1305 228 1176 228 1047 c 0
 228 818 262 589 262 360 c 0
 262 352 260 342 258 334 c 0
 266 303 271 143 271 102 c 0
 271 92 268 82 268 72 c 1
 277 66 l 1
 308 66 338 72 369 72 c 0
 387 72 432 72 432 43 c 0
 432 18 405 14 387 14 c 0
 303 14 219 6 135 6 c 0
 117 6 103 19 103 37 c 1
EndSplineSet
EndChar

StartChar: onequarter
Encoding: 188 188 288
Width: 1580
VWidth: 0
GlyphClass: 2
Flags: HW
PickledData: "(dp1
S'org.pippin.gimp.org.kernagic'
p2
(dp3
S'lstem'
p4
I0
sS'rstem'
p5
I0
ssS'com.fontlab.hintData'
p6
(dp7
S'vhints'
p8
((dp9
S'position'
p10
I254
sS'width'
p11
I37
s(dp12
g10
I313
sg11
I52
s(dp13
g10
I1276
sg11
I47
s(dp14
g10
I1296
sg11
I52
s(dp15
g10
I1415
sg11
I58
s(dp16
g10
I1446
sg11
I39
s(dp17
g10
I1458
sg11
I47
s(dp18
g10
I1466
sg11
I64
stp19
sS'hhints'
p20
((dp21
g10
I-6
sg11
I21
s(dp22
g10
I6
sg11
I49
s(dp23
g10
I518
sg11
I45
s(dp24
g10
I1483
sg11
I47
s(dp25
g10
I1539
sg11
I20
stp26
ss."
HStem: -6 21 6 49<159 177> 518 45<1239 1247.5> 1483 47<60 175> 1539 20<1211 1227>
VStem: 254 37 313 52 1276 47 1296 52 1415 58 1446 39 1458 47 1466 64
LayerCount: 2
Fore
SplineSet
1372 61 m 1
 1370 66 l 1
 1376 91 1379 114 1379 139 c 0
 1379 209 1364 278 1364 348 c 0
 1364 379 1368 409 1368 440 c 0
 1368 460 1368 520 1348 530 c 1
 1307 530 1268 518 1227 518 c 0
 1194 518 1197 523 1172 541 c 1
 1172 547 l 2
 1172 570 1178 592 1182 612 c 1
 1163 653 l 1
 1163 688 1182 719 1182 754 c 0
 1182 887 1202 1022 1202 1155 c 2
 1202 1481 l 2
 1202 1497 1194 1516 1194 1532 c 0
 1194 1548 1203 1559 1219 1559 c 0
 1235 1559 1256 1550 1256 1530 c 0
 1256 1475 1247 1421 1247 1366 c 0
 1247 1343 1250 1319 1254 1296 c 1
 1249 1290 l 1
 1251 1272 1254 1253 1254 1233 c 0
 1254 1061 1229 889 1229 717 c 0
 1229 697 1243 677 1243 657 c 0
 1243 637 1229 622 1229 602 c 0
 1229 588 1229 563 1249 563 c 0
 1272 563 1334 572 1352 582 c 1
 1352 729 1344 877 1338 1024 c 0
 1336 1079 1321 1133 1321 1188 c 0
 1321 1206 1346 1212 1360 1212 c 1
 1379 1190 l 1
 1379 1094 1391 997 1391 901 c 0
 1391 860 1397 596 1411 582 c 1
 1436 582 1460 590 1487 590 c 0
 1501 590 1526 587 1526 567 c 0
 1526 514 1411 576 1411 498 c 0
 1411 451 1420 177 1430 152 c 1
 1428 144 1428 131 1428 117 c 0
 1428 99 1430 78 1436 68 c 1
 1430 43 l 1
 1436 29 l 1
 1436 0 l 1
 1403 -25 l 1
 1372 -12 l 1
 1372 61 l 1
991 1505 m 0
 991 1489 954 1337 950 1317 c 0
 876 977 797 641 719 299 c 2
 678 121 l 2
 668 78 662 -2 619 -6 c 1
 607 2 598 17 598 31 c 0
 598 129 643 268 670 387 c 0
 750 741 834 1096 926 1448 c 0
 930 1460 945 1532 961 1532 c 0
 977 1532 991 1523 991 1505 c 0
103 37 m 1
 113 57 l 1
 131 57 150 55 168 55 c 0
 207 55 219 72 219 111 c 0
 219 502 185 893 160 1284 c 0
 160 1307 162 1329 162 1354 c 0
 162 1420 150 1483 68 1483 c 0
 52 1483 37 1479 21 1479 c 0
 7 1479 -12 1481 -12 1501 c 0
 -12 1530 139 1530 166 1530 c 0
 184 1530 199 1515 199 1497 c 1
 203 1497 l 1
 199 1477 197 1454 197 1434 c 0
 197 1305 228 1176 228 1047 c 0
 228 818 262 589 262 360 c 0
 262 352 260 342 258 334 c 0
 266 303 271 143 271 102 c 0
 271 92 268 82 268 72 c 1
 277 66 l 1
 308 66 338 72 369 72 c 0
 387 72 432 72 432 43 c 0
 432 18 405 14 387 14 c 0
 303 14 219 6 135 6 c 0
 117 6 103 19 103 37 c 1
EndSplineSet
EndChar

StartChar: ordfeminine
Encoding: 170 170 289
Width: 740
VWidth: 0
GlyphClass: 2
Flags: HW
PickledData: "(dp1
S'org.pippin.gimp.org.kernagic'
p2
(dp3
S'lstem'
p4
I0
sS'rstem'
p5
I0
ssS'com.fontlab.hintData'
p6
(dp7
S'vhints'
p8
((dp9
S'position'
p10
I490
sS'width'
p11
I77
stp12
sS'hhints'
p13
((dp14
g10
I375
sg11
I53
s(dp15
g10
I817
sg11
I45
s(dp16
g10
I1356
sg11
I20
stp17
ss."
HStem: 375 53 817 45 1356 20<406 415>
VStem: 490 77
LayerCount: 2
Fore
SplineSet
539 428 m 0
 558 428 585 412 585 393 c 0
 585 379 260 375 233 375 c 0
 213 375 189 389 189 410 c 0
 189 423 514 428 539 428 c 0
290 892 m 1
 364 876 l 1
 420 871 453 866 463 862 c 1
 484 862 l 1
 386 1282 l 1
 349 1115 317 985 290 892 c 1
578 494 m 1
 529 494 517 503 517 545 c 0
 517 637 496 726 484 807 c 1
 458 814 427 817 392 817 c 1
 338 815 l 1
 329 819 307 823 274 827 c 1
 222 652 l 1
 198 563 181 513 172 504 c 0
 163 495 131 525 131 539 c 1
 158 584 220 808 316 1211 c 1
 326 1302 334 1354 341 1366 c 1
 369 1364 l 1
 386 1364 398 1368 406 1376 c 1
 424 1376 443 1363 443 1345 c 1
 577 666 l 2
 588 606 594 564 594 540 c 0
 594 516 589 500 578 494 c 1
EndSplineSet
EndChar

StartChar: ordmasculine
Encoding: 186 186 290
Width: 800
VWidth: 0
GlyphClass: 2
Flags: HW
PickledData: "(dp1
S'org.pippin.gimp.org.kernagic'
p2
(dp3
S'lstem'
p4
I0
sS'rstem'
p5
I0
ssS'com.fontlab.hintData'
p6
(dp7
S'vhints'
p8
((dp9
S'position'
p10
I136
sS'width'
p11
I66
s(dp12
g10
I544
sg11
I63
stp13
sS'hhints'
p14
((dp15
g10
I431
sg11
I53
s(dp16
g10
I538
sg11
I60
s(dp17
g10
I1294
sg11
I39
stp18
ss."
HStem: 431 53 538 60<341.5 420> 1294 39<330 376 316 389.5>
VStem: 136 66 544 63
LayerCount: 2
Fore
SplineSet
534 484 m 0
 553 484 579 468 579 449 c 0
 579 435 254 431 227 431 c 0
 207 431 184 445 184 466 c 0
 184 479 509 484 534 484 c 0
229 954 m 1
 232 717 287 598 396 598 c 0
 512 598 571 679 571 842 c 0
 571 1045 549 1167 507 1210 c 0
 451 1266 407 1294 372 1294 c 0
 288 1294 241 1181 229 954 c 1
634 826 m 0
 634 718 585 630 486 563 c 0
 462 547 435 538 405 538 c 0
 244 538 163 654 163 887 c 0
 163 1002 171 1027 205 1220 c 0
 217 1289 271 1333 361 1333 c 0
 391 1333 427 1330 469 1322 c 0
 496 1317 523 1291 548 1243 c 1
 602 1156 631 1018 634 826 c 0
EndSplineSet
EndChar

StartChar: oslash
Encoding: 248 248 291
Width: 720
VWidth: 0
GlyphClass: 2
Flags: HW
PickledData: "(dp1
S'org.pippin.gimp.org.kernagic'
p2
(dp3
S'lstem'
p4
I0
sS'rstem'
p5
I0
ssS'com.fontlab.hintData'
p6
(dp7
S'vhints'
p8
((dp9
S'position'
p10
I96
sS'width'
p11
I41
s(dp12
g10
I102
sg11
I74
s(dp13
g10
I152
sg11
I49
s(dp14
g10
I295
sg11
I51
s(dp15
g10
I354
sg11
I33
s(dp16
g10
I406
sg11
I38
stp17
sS'hhints'
p18
((dp19
g10
I-14
sg11
I39
s(dp20
g10
I1331
sg11
I51
stp21
ss."
HStem: -14 39<337.5 428.5 337.5 443> 1331 51<317 326 247.5 332.5>
VStem: 96 41 102 74 152 49 295 51 354 33 406 38
LayerCount: 2
Fore
SplineSet
235 647 m 1
 235 516 259 385 259 254 c 1
 284 404 343 969 355 1069 c 0
 363 1139 378 1208 378 1280 c 0
 378 1311 346 1331 319 1331 c 0
 315 1331 294 1323 288 1321 c 1
 278 1323 l 1
 223 1294 220 907 220 782 c 2
 220 768 l 2
 220 731 221 683 235 647 c 1
284 111 m 0
 284 50 307 25 368 25 c 0
 489 25 489 287 489 369 c 0
 489 537 484 1096 421 1217 c 1
 364 881 321 285 298 201 c 0
 290 170 284 142 284 111 c 0
185 -219 m 0
 197 -98 223 -17 235 104 c 0
 235 127 224 149 220 172 c 0
 182 398 179 638 179 870 c 2
 179 993 l 2
 179 1083 179 1382 316 1382 c 0
 336 1382 356 1368 372 1360 c 1
 378 1364 l 1
 392 1350 l 1
 400 1383 419 1513 437 1591 c 1
 470 1591 l 1
 470 1573 l 2
 470 1553 429 1334 429 1311 c 0
 429 1291 446 1271 456 1255 c 1
 454 1251 l 1
 458 1231 474 1214 482 1196 c 0
 498 1161 505 1110 505 1071 c 1
 501 1069 l 1
 501 973 527 876 527 780 c 2
 527 770 l 1
 532 764 l 1
 532 645 538 529 538 410 c 0
 538 281 535 -14 351 -14 c 0
 318 -14 281 -6 261 23 c 1
 259 23 l 1
 259 31 231 -248 204 -248 c 0
 192 -248 185 -239 185 -219 c 0
EndSplineSet
EndChar

StartChar: p
Encoding: 112 112 294
Width: 640
VWidth: 0
GlyphClass: 2
Flags: HW
PickledData: "(dp1
S'org.pippin.gimp.org.kernagic'
p2
(dp3
S'lstem'
p4
I0
sS'rstem'
p5
I245
ssS'com.fontlab.hintData'
p6
(dp7
S'vhints'
p8
((dp9
S'position'
p10
I106
sS'width'
p11
I74
s(dp12
g10
I123
sg11
I65
s(dp13
g10
I350
sg11
I66
stp14
sS'hhints'
p15
((dp16
g10
I-41
sg11
I21
s(dp17
g10
I1272
sg11
I63
stp18
ss."
HStem: -41 21<227 240.5> 1272 63<272.5 300 300 318.5 210 350.5>
VStem: 106 74 123 65 350 66
AnchorPoint: "top" 336 1356 basechar 0
LayerCount: 2
Fore
SplineSet
257 922 m 0
 257 859 249 792 249 729 c 1
 262 709 l 1
 418 709 419 970 419 1079 c 0
 419 1171 409 1272 292 1272 c 0
 253 1272 247 1252 247 1217 c 0
 247 1119 257 1020 257 922 c 0
198 -25 m 1
 180 71 175 172 175 270 c 0
 175 397 184 524 184 651 c 1
 178 665 171 682 171 698 c 1
 191 731 192 846 192 887 c 0
 192 948 190 1257 180 1284 c 1
 184 1294 198 1335 210 1335 c 2
 300 1335 l 2
 337 1335 405 1293 434 1268 c 0
 483 1223 485 1089 485 1026 c 0
 485 809 478 707 249 639 c 1
 249 395 l 2
 249 262 266 127 266 -4 c 0
 266 -29 254 -41 227 -41 c 1
 198 -25 l 1
EndSplineSet
EndChar

StartChar: paragraph
Encoding: 182 182 295
Width: 1040
VWidth: 0
GlyphClass: 2
Flags: HW
PickledData: "(dp1
S'org.pippin.gimp.org.kernagic'
p2
(dp3
S'lstem'
p4
I0
sS'rstem'
p5
I0
ssS'com.fontlab.hintData'
p6
(dp7
S'vhints'
p8
((dp9
S'position'
p10
I86
sS'width'
p11
I64
s(dp12
g10
I514
sg11
I78
s(dp13
g10
I535
sg11
I65
s(dp14
g10
I557
sg11
I70
s(dp15
g10
I715
sg11
I67
s(dp16
g10
I729
sg11
I68
stp17
sS'hhints'
p18
((dp19
g10
I1120
sg11
I51
s(dp20
g10
I1792
sg11
I59
stp21
ss."
HStem: 1120 51<437.5 565.5 437.5 598 426 565.5> 1792 59<656.5 676.5 654 709>
VStem: 86 64 514 78 535 65 557 70 715 67 729 68
LayerCount: 2
Fore
SplineSet
195 1454 m 0
 195 1225 336 1171 539 1171 c 0
 592 1171 598 1183 598 1212 c 0
 598 1374 580 1534 580 1696 c 0
 580 1714 582 1735 582 1753 c 1
 564 1771 502 1772 475 1772 c 0
 315 1772 195 1604 195 1454 c 0
756 102 m 0
 756 460 774 818 774 1176 c 0
 774 1326 760 1472 760 1622 c 0
 760 1645 762 1665 762 1688 c 0
 762 1745 750 1792 668 1792 c 0
 645 1792 645 1704 645 1688 c 0
 645 1452 672 1215 672 979 c 0
 672 672 651 364 633 57 c 0
 635 53 637 49 637 45 c 0
 637 27 612 14 598 14 c 0
 571 14 559 28 559 55 c 0
 559 358 602 660 602 963 c 0
 602 1016 598 1067 598 1120 c 1
 426 1120 l 1
 297 1173 186 1157 143 1325 c 0
 137 1348 143 1369 131 1389 c 1
 131 1514 168 1691 285 1757 c 0
 332 1784 387 1788 436 1808 c 0
 489 1831 557 1823 614 1831 c 1
 624 1849 645 1851 663 1851 c 0
 690 1851 714 1835 743 1835 c 0
 759 1835 774 1835 790 1839 c 1
 817 1806 907 1831 907 1790 c 0
 907 1767 884 1761 866 1761 c 0
 854 1761 839 1763 827 1765 c 1
 827 1556 842 1350 842 1141 c 0
 842 848 829 557 829 264 c 0
 829 188 842 111 842 35 c 0
 842 15 825 2 807 2 c 0
 758 2 756 67 756 102 c 0
EndSplineSet
EndChar

StartChar: parenleft
Encoding: 40 40 296
Width: 600
VWidth: 0
GlyphClass: 2
Flags: HW
PickledData: "(dp1
S'org.pippin.gimp.org.kernagic'
p2
(dp3
S'lstem'
p4
I0
sS'rstem'
p5
I0
ssS'com.fontlab.hintData'
p6
(dp7
S'vhints'
p8
((dp9
S'position'
p10
I94
sS'width'
p11
I56
stp12
ss."
VStem: 94 56
LayerCount: 2
Fore
SplineSet
171 879 m 0
 171 988 259 1622 370 1626 c 1
 390 1610 l 1
 388 1540 342 1484 319 1423 c 0
 258 1253 227 1059 227 879 c 0
 227 564 259 154 382 -139 c 0
 407 -198 450 -252 466 -315 c 1
 460 -325 447 -340 435 -340 c 0
 396 -340 382 -287 370 -258 c 0
 239 35 171 517 171 879 c 0
EndSplineSet
EndChar

StartChar: parenright
Encoding: 41 41 297
Width: 720
VWidth: 0
GlyphClass: 2
Flags: HW
PickledData: "(dp1
S'org.pippin.gimp.org.kernagic'
p2
(dp3
S'lstem'
p4
I0
sS'rstem'
p5
I0
ssS'com.fontlab.hintData'
p6
(dp7
S'vhints'
p8
((dp9
S'position'
p10
I332
sS'width'
p11
I55
stp12
ss."
VStem: 332 55
LayerCount: 2
Fore
SplineSet
542 817 m 0
 542 649 518 483 479 319 c 0
 459 231 341 -279 257 -279 c 0
 243 -279 227 -270 227 -254 c 0
 227 -236 286 -141 311 -78 c 0
 409 182 487 536 487 817 c 0
 487 1012 461 1239 395 1423 c 0
 372 1486 323 1540 323 1610 c 1
 343 1626 l 1
 464 1622 542 934 542 817 c 0
EndSplineSet
EndChar

StartChar: partialdiff
Encoding: 8706 8706 298
Width: 680
VWidth: 0
GlyphClass: 2
Flags: HW
LayerCount: 2
Fore
SplineSet
437 727 m 2
 437 844 l 1
 437 844 416 860 375 868 c 1
 236 868 228 291 228 174 c 0
 228 123 230 12 304 12 c 0
 400 12 396 100 404 166 c 0
 427 352 437 539 437 727 c 2
490 815 m 2
 490 807 l 2
 490 660 486 514 480 369 c 1
 464 258 488 -29 320 -29 c 0
 195 -29 179 70 179 170 c 0
 179 334 181 913 392 913 c 0
 406 913 425 905 437 897 c 1
 437 1154 366 1429 279 1497 c 0
 260 1512 209 1521 209 1550 c 0
 209 1560 225 1569 233 1569 c 0
 401 1569 490 1163 490 815 c 2
EndSplineSet
EndChar

StartChar: percent
Encoding: 37 37 299
Width: 1244
VWidth: 0
GlyphClass: 2
Flags: HW
PickledData: "(dp1
S'org.pippin.gimp.org.kernagic'
p2
(dp3
S'lstem'
p4
I0
sS'rstem'
p5
I0
ssS'com.fontlab.hintData'
p6
(dp7
S'vhints'
p8
((dp9
S'position'
p10
I90
sS'width'
p11
I55
s(dp12
g10
I393
sg11
I47
s(dp13
g10
I686
sg11
I51
s(dp14
g10
I983
sg11
I53
stp15
sS'hhints'
p16
((dp17
g10
I-6
sg11
I21
s(dp18
g10
I27
sg11
I67
s(dp19
g10
I723
sg11
I53
s(dp20
g10
I758
sg11
I57
s(dp21
g10
I1497
sg11
I55
stp22
ss."
HStem: -6 21 27 67<839 944.5 839 960> 723 53<248 361.5 248 386> 758 57<843 953.5> 1497 55<276 280 280 291 276 320>
VStem: 90 55 393 47 686 51 983 53
LayerCount: 2
Fore
SplineSet
806 1505 m 0
 806 1489 769 1337 765 1317 c 0
 691 977 612 641 534 299 c 2
 493 121 l 2
 483 78 476 -2 433 -6 c 1
 421 2 413 17 413 31 c 0
 413 129 457 268 484 387 c 0
 564 741 648 1096 740 1448 c 0
 744 1460 759 1532 775 1532 c 0
 791 1532 806 1523 806 1505 c 0
781 475 m 0
 781 438 777 402 777 367 c 0
 777 349 785 329 785 313 c 0
 793 280 802 94 876 94 c 0
 1013 94 1023 273 1023 403 c 2
 1023 469 l 2
 1023 539 1015 758 892 758 c 0
 794 758 781 520 781 475 c 0
898 815 m 0
 1066 815 1076 571 1076 479 c 0
 1076 446 1072 418 1072 385 c 1
 1076 379 l 1
 1076 254 1049 27 871 27 c 0
 760 27 726 295 726 350 c 2
 726 358 l 2
 726 475 728 815 898 815 c 0
185 1065 m 0
 185 1022 198 776 298 776 c 0
 425 776 433 999 433 1071 c 0
 433 1161 417 1237 417 1327 c 1
 413 1346 l 1
 413 1426 358 1497 282 1497 c 0
 206 1497 198 1272 190 1231 c 0
 190 1215 181 1196 181 1178 c 0
 181 1141 185 1104 185 1065 c 0
302 723 m 0
 132 723 130 1065 130 1180 c 2
 130 1188 l 2
 130 1251 167 1552 276 1552 c 2
 280 1552 l 2
 302 1552 381 1549 417 1477 c 1
 466 1393 480 1253 480 1159 c 1
 476 1153 l 1
 476 1120 480 1092 480 1059 c 0
 480 967 470 723 302 723 c 0
EndSplineSet
EndChar

StartChar: period
Encoding: 46 46 300
Width: 520
VWidth: 0
GlyphClass: 2
Flags: HW
PickledData: "(dp1
S'org.pippin.gimp.org.kernagic'
p2
(dp3
S'lstem'
p4
I0
sS'rstem'
p5
I0
ssS'com.fontlab.hintData'
p6
(dp7
S'vhints'
p8
((dp9
S'position'
p10
I113
sS'width'
p11
I102
stp12
sS'hhints'
p13
((dp14
g10
I-8
sg11
I104
stp15
ss."
HStem: -8 104<242.5 264.5>
VStem: 113 102
LayerCount: 2
Fore
SplineSet
203 41 m 0
 203 68 229 96 256 96 c 0
 281 96 305 66 305 43 c 0
 305 6 281 -8 248 -8 c 0
 223 -8 203 18 203 41 c 0
EndSplineSet
EndChar

StartChar: periodcentered
Encoding: 183 183 301
Width: 520
VWidth: 0
GlyphClass: 2
Flags: HW
PickledData: "(dp1
S'org.pippin.gimp.org.kernagic'
p2
(dp3
S'lstem'
p4
I0
sS'rstem'
p5
I0
ssS'com.fontlab.hintData'
p6
(dp7
S'vhints'
p8
((dp9
S'position'
p10
I113
sS'width'
p11
I102
stp12
sS'hhints'
p13
((dp14
g10
I696
sg11
I105
stp15
ss."
HStem: 696 105<242.5 264.5>
VStem: 113 102
LayerCount: 2
Fore
SplineSet
203 745 m 0
 203 772 229 801 256 801 c 0
 281 801 305 771 305 748 c 0
 305 711 281 696 248 696 c 0
 223 696 203 722 203 745 c 0
EndSplineSet
EndChar

StartChar: perthousand
Encoding: 8240 8240 302
Width: 1700
VWidth: 0
GlyphClass: 2
Flags: HW
LayerCount: 2
Fore
SplineSet
1233 380 m 0
 1233 362 1242 343 1242 327 c 0
 1250 286 1258 81 1334 81 c 0
 1410 81 1465 152 1465 232 c 1
 1469 251 l 1
 1469 341 1485 397 1485 487 c 0
 1485 559 1477 766 1350 766 c 0
 1250 766 1237 536 1237 493 c 0
 1237 454 1233 417 1233 380 c 0
1532 499 m 0
 1532 466 1528 438 1528 405 c 1
 1532 399 l 1
 1532 305 1518 185 1469 101 c 1
 1433 29 1354 26 1332 26 c 2
 1328 26 l 2
 1219 26 1182 307 1182 370 c 2
 1182 378 l 2
 1182 493 1184 819 1354 819 c 0
 1522 819 1532 591 1532 499 c 0
EndSplineSet
Refer: 299 37 N 1 0 0 1 -41 0 2
EndChar

StartChar: pi
Encoding: 960 960 303
Width: 731
VWidth: 0
GlyphClass: 2
Flags: HW
LayerCount: 2
Fore
SplineSet
644 -33 m 0
 657 -33 667 -24 667 -13 c 0
 667 -2 661 11 656 21 c 0
 620 86 586 162 586 236 c 2
 578 1294 l 1
 601 1292 624 1289 646 1289 c 0
 664 1289 691 1296 691 1316 c 0
 691 1339 672 1342 654 1342 c 2
 546 1340 l 1
 220 1348 l 1
 205 1348 l 2
 131 1348 88 1344 28 1306 c 0
 20 1301 12 1291 12 1281 c 0
 12 1273 22 1257 38 1257 c 0
 63 1257 105 1291 153 1291 c 2
 181 1291 l 1
 188 598 l 2
 189 492 201 51 201 18 c 0
 201 0 215 -8 232 -8 c 0
 252 -8 254 7 254 23 c 2
 254 62 l 2
 254 322 239 983 239 1245 c 2
 239 1294 l 1
 384 1293 l 2
 409 1293 484 1294 509 1294 c 2
 522 1294 l 1
 522 1061 520 851 520 673 c 0
 520 383 526 179 549 98 c 0
 562 51 603 -33 644 -33 c 0
EndSplineSet
EndChar

StartChar: plus
Encoding: 43 43 304
Width: 820
VWidth: 0
GlyphClass: 2
Flags: HW
PickledData: "(dp1
S'org.pippin.gimp.org.kernagic'
p2
(dp3
S'lstem'
p4
I0
sS'rstem'
p5
I0
ssS'com.fontlab.hintData'
p6
(dp7
S'vhints'
p8
((dp9
S'position'
p10
I315
sS'width'
p11
I86
s(dp12
g10
I319
sg11
I64
stp13
sS'hhints'
p14
((dp15
g10
I623
sg11
I55
stp16
ss."
HStem: 623 55<281.5 284 259.5 332>
VStem: 315 86 319 64
LayerCount: 2
Fore
SplineSet
362 385 m 2
 362 449 l 2
 362 484 366 518 366 555 c 0
 366 606 367 623 297 623 c 0
 266 623 238 612 207 612 c 0
 176 612 147 620 147 655 c 0
 147 673 150 684 170 684 c 0
 207 684 241 678 278 678 c 0
 290 678 362 678 362 694 c 0
 362 762 352 831 352 899 c 0
 352 930 360 944 393 944 c 0
 416 944 430 932 430 909 c 1
 422 889 l 1
 422 836 430 780 430 727 c 0
 430 686 450 678 487 678 c 0
 528 678 569 684 610 684 c 0
 635 684 674 680 674 647 c 0
 674 624 659 614 639 614 c 0
 598 614 557 621 514 621 c 2
 504 621 l 2
 450 621 430 619 430 553 c 0
 430 483 448 446 448 389 c 0
 448 366 425 356 405 356 c 0
 391 356 362 369 362 385 c 2
EndSplineSet
EndChar

StartChar: plusminus
Encoding: 177 177 305
Width: 800
VWidth: 0
GlyphClass: 2
Flags: HW
PickledData: "(dp1
S'org.pippin.gimp.org.kernagic'
p2
(dp3
S'lstem'
p4
I0
sS'rstem'
p5
I0
ssS'com.fontlab.hintData'
p6
(dp7
S'vhints'
p8
((dp9
S'position'
p10
I315
sS'width'
p11
I86
s(dp12
g10
I319
sg11
I64
stp13
sS'hhints'
p14
((dp15
g10
I217
sg11
I53
s(dp16
g10
I623
sg11
I55
stp17
ss."
HStem: 217 53 623 55<265.5 268 243.5 316>
VStem: 315 86 319 64
LayerCount: 2
Fore
SplineSet
346 385 m 2
 346 449 l 2
 346 484 350 518 350 555 c 0
 350 606 351 623 281 623 c 0
 250 623 222 612 191 612 c 0
 160 612 131 620 131 655 c 0
 131 673 134 684 154 684 c 0
 191 684 225 678 262 678 c 0
 274 678 346 678 346 694 c 0
 346 762 336 831 336 899 c 0
 336 930 344 944 377 944 c 0
 400 944 414 932 414 909 c 1
 406 889 l 1
 406 836 414 780 414 727 c 0
 414 686 434 678 471 678 c 0
 512 678 553 684 594 684 c 0
 619 684 658 680 658 647 c 0
 658 624 643 614 623 614 c 0
 582 614 541 621 498 621 c 2
 488 621 l 2
 434 621 414 619 414 553 c 0
 414 483 432 446 432 389 c 0
 432 366 409 356 389 356 c 0
 375 356 346 369 346 385 c 2
572 236 m 0
 572 226 311 217 219 217 c 0
 201 217 176 229 176 252 c 0
 176 262 443 270 527 270 c 0
 545 270 572 256 572 236 c 0
EndSplineSet
EndChar

StartChar: product
Encoding: 8719 8719 306
Width: 740
VWidth: 0
GlyphClass: 2
Flags: HW
LayerCount: 2
Fore
SplineSet
524 -20 m 0
 497 -20 495 -6 495 12 c 0
 495 28 497 43 497 59 c 0
 497 292 471 1266 459 1499 c 1
 446 1499 l 2
 421 1499 393 1498 368 1498 c 0
 319 1498 248 1497 223 1491 c 1
 223 1253 276 261 276 23 c 0
 276 7 275 -8 255 -8 c 0
 237 -8 223 1 223 20 c 0
 223 66 208 494 200 598 c 0
 177 909 163 1221 163 1532 c 0
 163 1546 176 1553 189 1553 c 0
 202 1553 473 1545 487 1545 c 0
 504 1545 522 1535 522 1518 c 0
 522 885 552 293 552 49 c 2
 552 20 l 2
 552 4 544 -20 524 -20 c 0
EndSplineSet
EndChar

StartChar: q
Encoding: 113 113 307
Width: 840
VWidth: 0
GlyphClass: 2
Flags: HW
PickledData: "(dp1
S'org.pippin.gimp.org.kernagic'
p2
(dp3
S'lstem'
p4
I0
sS'rstem'
p5
I0
ssS'com.fontlab.hintData'
p6
(dp7
S'vhints'
p8
((dp9
S'position'
p10
I94
sS'width'
p11
I60
s(dp12
g10
I516
sg11
I62
stp13
sS'hhints'
p14
((dp15
g10
I-434
sg11
I69
stp16
ss."
HStem: -434 69
VStem: 94 60 516 62
LayerCount: 2
Fore
SplineSet
239 664 m 2
 239 575 l 2
 239 374 248 -14 398 -14 c 0
 418 -14 438 -2 458 -2 c 0
 548 -2 601 436 601 514 c 2
 601 872 l 2
 601 1024 585 1315 376 1315 c 0
 243 1315 232 802 232 702 c 0
 232 690 239 676 239 664 c 2
470 -401 m 1
 470 -288 443 -179 423 -68 c 1
 286 -41 222 8 202 227 c 0
 186 387 179 547 179 707 c 2
 179 716 l 2
 179 870 181 1356 382 1368 c 1
 411 1356 441 1353 470 1341 c 0
 654 1255 663 991 663 817 c 2
 663 721 l 2
 663 586 628 29 519 -39 c 0
 507 -47 480 -52 480 -70 c 0
 480 -168 509 -269 529 -365 c 1
 556 -392 632 -359 632 -408 c 0
 632 -424 621 -434 605 -434 c 0
 572 -434 493 -426 470 -401 c 1
EndSplineSet
EndChar

StartChar: question
Encoding: 63 63 308
Width: 640
VWidth: 0
GlyphClass: 2
Flags: HW
PickledData: "(dp1
S'org.pippin.gimp.org.kernagic'
p2
(dp3
S'lstem'
p4
I0
sS'rstem'
p5
I0
ssS'com.fontlab.hintData'
p6
(dp7
S'vhints'
p8
((dp9
S'position'
p10
I94
sS'width'
p11
I51
s(dp12
g10
I168
sg11
I102
s(dp13
g10
I190
sg11
I46
s(dp14
g10
I313
sg11
I54
stp15
sS'hhints'
p16
((dp17
g10
I-8
sg11
I104
s(dp18
g10
I1533
sg11
I45
stp19
ss."
HStem: -8 104<300.5 322.5> 1533 45<278.5 310 310 332 260 333>
VStem: 94 51 168 102 190 46 313 54
LayerCount: 2
Fore
SplineSet
261 41 m 0
 261 68 287 96 314 96 c 0
 339 96 363 66 363 43 c 0
 363 6 339 -8 306 -8 c 0
 281 -8 261 18 261 41 c 0
202 1283 m 0
 193 1329 187 1373 187 1410 c 0
 187 1486 214 1578 306 1578 c 0
 358 1578 400 1565 417 1533 c 0
 446 1472 460 1373 460 1305 c 0
 460 982 329 854 329 357 c 0
 329 321 330 282 331 242 c 1
 331 246 318 236 306 236 c 0
 297 236 287 241 283 260 c 1
 283 445 294 638 322 819 c 0
 350 977 406 1136 406 1303 c 0
 406 1350 399 1533 333 1533 c 2
 310 1533 l 2
 247 1533 238 1464 238 1406 c 0
 238 1387 244 1340 253 1283 c 1
 253 1283 206 1264 202 1283 c 0
EndSplineSet
EndChar

StartChar: quotedbl
Encoding: 34 34 310
Width: 680
VWidth: 0
GlyphClass: 2
Flags: HW
PickledData: "(dp1
S'org.pippin.gimp.org.kernagic'
p2
(dp3
S'lstem'
p4
I0
sS'rstem'
p5
I0
ssS'com.fontlab.hintData'
p6
(dp7
S'vhints'
p8
((dp9
S'position'
p10
I211
sS'width'
p11
I70
s(dp12
g10
I418
sg11
I67
stp13
sS'hhints'
p14
((dp15
g10
I1262
sg11
I313
stp16
ss."
HStem: 1262 313
VStem: 211 70 418 67
LayerCount: 2
Fore
SplineSet
440 1257 m 0
 417 1292 414 1352 414 1409 c 0
 414 1505 414 1575 455 1575 c 0
 471 1575 481 1536 481 1497 c 0
 481 1436 461 1255 447 1255 c 0
 445 1255 442 1255 440 1257 c 0
203 1262 m 0
 207 1291 207 1335 207 1384 c 2
 207 1401 l 2
 207 1489 209 1575 229 1575 c 0
 258 1575 277 1536 277 1497 c 0
 277 1431 238 1257 211 1257 c 0
 209 1257 205 1260 203 1262 c 0
EndSplineSet
EndChar

StartChar: quotedblbase
Encoding: 8222 8222 311
Width: 720
VWidth: 0
GlyphClass: 2
Flags: HW
PickledData: "(dp1
S'org.pippin.gimp.org.kernagic'
p2
(dp3
S'lstem'
p4
I0
sS'rstem'
p5
I0
ssS'com.fontlab.hintData'
p6
(dp7
S'vhints'
p8
((dp9
S'position'
p10
I215
sS'width'
p11
I86
s(dp12
g10
I440
sg11
I86
stp13
sS'hhints'
p14
((dp15
g10
I-174
sg11
I334
stp16
ss."
HStem: -174 334<148 276.5>
VStem: 215 86 440 86
LayerCount: 2
Fore
SplineSet
353 -162 m 1
 357 -143 l 1
 398 -104 463 -57 463 6 c 1
 432 24 404 59 404 96 c 0
 404 135 447 160 482 160 c 0
 523 160 549 121 549 82 c 0
 549 10 467 -176 385 -178 c 1
 353 -162 l 1
148 -174 m 1
 123 -158 l 1
 150 -97 238 -72 238 6 c 1
 207 24 179 59 179 96 c 0
 179 135 221 160 256 160 c 0
 297 160 324 121 324 82 c 0
 324 4 238 -174 148 -174 c 1
EndSplineSet
EndChar

StartChar: quotedblleft
Encoding: 8220 8220 312
Width: 700
VWidth: 0
GlyphClass: 2
Flags: HW
PickledData: "(dp1
S'org.pippin.gimp.org.kernagic'
p2
(dp3
S'lstem'
p4
I0
sS'rstem'
p5
I0
ssS'com.fontlab.hintData'
p6
(dp7
S'vhints'
p8
((dp9
S'position'
p10
I100
sS'width'
p11
I86
s(dp12
g10
I313
sg11
I86
stp13
sS'hhints'
p14
((dp15
g10
I1217
sg11
I337
stp16
ss."
HStem: 1217 337<203.5 319 319 453.5>
VStem: 100 86 313 86
LayerCount: 2
Fore
SplineSet
565 1538 m 1
 561 1520 l 1
 520 1481 454 1433 454 1370 c 1
 485 1352 514 1317 514 1280 c 0
 514 1241 471 1217 436 1217 c 0
 397 1217 380 1243 368 1276 c 1
 372 1282 l 1
 368 1290 368 1299 368 1307 c 0
 368 1373 458 1552 532 1554 c 1
 565 1538 l 1
352 1538 m 1
 348 1520 l 1
 307 1481 241 1433 241 1370 c 1
 272 1352 301 1317 301 1280 c 0
 301 1241 258 1217 223 1217 c 0
 184 1217 167 1243 155 1276 c 1
 159 1282 l 1
 155 1290 155 1299 155 1307 c 0
 155 1373 245 1552 319 1554 c 1
 352 1538 l 1
EndSplineSet
EndChar

StartChar: quotedblright
Encoding: 8221 8221 313
Width: 720
VWidth: 0
GlyphClass: 2
Flags: HW
PickledData: "(dp1
S'org.pippin.gimp.org.kernagic'
p2
(dp3
S'lstem'
p4
I0
sS'rstem'
p5
I0
ssS'com.fontlab.hintData'
p6
(dp7
S'vhints'
p8
((dp9
S'position'
p10
I207
sS'width'
p11
I86
s(dp12
g10
I453
sg11
I86
stp13
sS'hhints'
p14
((dp15
g10
I1217
sg11
I337
stp16
ss."
HStem: 1217 337<180 295.5 258.5 426>
VStem: 207 86 453 86
LayerCount: 2
Fore
SplineSet
393 1233 m 1
 397 1251 l 1
 438 1290 504 1338 504 1401 c 1
 473 1419 444 1454 444 1491 c 0
 444 1530 487 1554 522 1554 c 0
 561 1554 578 1528 590 1495 c 1
 586 1489 l 1
 590 1481 590 1472 590 1464 c 0
 590 1398 500 1219 426 1217 c 1
 393 1233 l 1
147 1233 m 1
 151 1251 l 1
 192 1290 258 1338 258 1401 c 1
 227 1419 198 1454 198 1491 c 0
 198 1530 241 1554 276 1554 c 0
 315 1554 332 1528 344 1495 c 1
 340 1489 l 1
 344 1481 344 1472 344 1464 c 0
 344 1398 254 1219 180 1217 c 1
 147 1233 l 1
EndSplineSet
EndChar

StartChar: quoteleft
Encoding: 8216 8216 314
Width: 560
VWidth: 0
GlyphClass: 2
Flags: HW
PickledData: "(dp1
S'org.pippin.gimp.org.kernagic'
p2
(dp3
S'lstem'
p4
I0
sS'rstem'
p5
I0
ssS'com.fontlab.hintData'
p6
(dp7
S'vhints'
p8
((dp9
S'position'
p10
I100
sS'width'
p11
I86
stp12
sS'hhints'
p13
((dp14
g10
I1217
sg11
I337
stp15
ss."
HStem: 1217 337<235.5 351>
VStem: 100 86
LayerCount: 2
Fore
SplineSet
384 1538 m 1
 380 1520 l 1
 339 1481 273 1433 273 1370 c 1
 304 1352 333 1317 333 1280 c 0
 333 1241 290 1217 255 1217 c 0
 216 1217 199 1243 187 1276 c 1
 191 1282 l 1
 187 1290 187 1299 187 1307 c 0
 187 1373 277 1552 351 1554 c 1
 384 1538 l 1
EndSplineSet
EndChar

StartChar: quoteright
Encoding: 8217 8217 315
Width: 390
VWidth: 0
GlyphClass: 2
Flags: HW
PickledData: "(dp1
S'org.pippin.gimp.org.kernagic'
p2
(dp3
S'lstem'
p4
I0
sS'rstem'
p5
I0
ssS'com.fontlab.hintData'
p6
(dp7
S'vhints'
p8
((dp9
S'position'
p10
I207
sS'width'
p11
I86
stp12
sS'hhints'
p13
((dp14
g10
I1217
sg11
I337
stp15
ss."
HStem: 1217 337<132 247.5>
VStem: 207 86
LayerCount: 2
Fore
SplineSet
99 1233 m 1
 103 1251 l 1
 144 1290 210 1338 210 1401 c 1
 179 1419 150 1454 150 1491 c 0
 150 1530 193 1554 228 1554 c 0
 267 1554 284 1528 296 1495 c 1
 292 1489 l 1
 296 1481 296 1472 296 1464 c 0
 296 1398 206 1219 132 1217 c 1
 99 1233 l 1
EndSplineSet
EndChar

StartChar: quotesinglbase
Encoding: 8218 8218 316
Width: 560
VWidth: 0
GlyphClass: 2
Flags: HW
PickledData: "(dp1
S'org.pippin.gimp.org.kernagic'
p2
(dp3
S'lstem'
p4
I0
sS'rstem'
p5
I0
ssS'com.fontlab.hintData'
p6
(dp7
S'vhints'
p8
((dp9
S'position'
p10
I211
sS'width'
p11
I86
stp12
sS'hhints'
p13
((dp14
g10
I-178
sg11
I338
stp15
ss."
HStem: -178 338<196 311.5>
VStem: 211 86
LayerCount: 2
Fore
SplineSet
163 -162 m 1
 167 -143 l 1
 208 -104 274 -57 274 6 c 1
 243 24 215 59 215 96 c 0
 215 135 257 160 292 160 c 0
 331 160 348 133 360 100 c 1
 356 94 l 1
 360 86 360 78 360 70 c 0
 360 4 270 -176 196 -178 c 1
 163 -162 l 1
EndSplineSet
EndChar

StartChar: quotesingle
Encoding: 39 39 317
Width: 480
VWidth: 0
GlyphClass: 2
Flags: HW
PickledData: "(dp1
S'org.pippin.gimp.org.kernagic'
p2
(dp3
S'lstem'
p4
I0
sS'rstem'
p5
I0
ssS'com.fontlab.hintData'
p6
(dp7
S'vhints'
p8
((dp9
S'position'
p10
I211
sS'width'
p11
I70
stp12
sS'hhints'
p13
((dp14
g10
I1257
sg11
I318
stp15
ss."
HStem: 1257 318<227 232.5>
VStem: 211 70
LayerCount: 2
Fore
SplineSet
211 1262 m 0
 215 1291 215 1335 215 1384 c 2
 215 1401 l 2
 215 1489 217 1575 237 1575 c 0
 266 1575 285 1536 285 1497 c 0
 285 1431 246 1257 219 1257 c 0
 217 1257 213 1260 211 1262 c 0
EndSplineSet
EndChar

StartChar: r
Encoding: 114 114 318
Width: 660
VWidth: 0
GlyphClass: 2
Flags: HW
PickledData: "(dp1
S'org.pippin.gimp.org.kernagic'
p2
(dp3
S'lstem'
p4
I0
sS'rstem'
p5
I253
ssS'com.fontlab.hintData'
p6
(dp7
S'vhints'
p8
((dp9
S'position'
p10
I102
sS'width'
p11
I58
s(dp12
g10
I322
sg11
I55
stp13
sS'hhints'
p14
((dp15
g10
I-18
sg11
I21
s(dp16
g10
I709
sg11
I51
s(dp17
g10
I1313
sg11
I53
stp18
ss."
HStem: -18 21<227 257 227 227> 709 51<272 282 282 290> 1313 53<252 286.5 202.5 324.5>
VStem: 102 58 322 55
AnchorPoint: "top" 326 1356 basechar 0
LayerCount: 2
Fore
SplineSet
245 764 m 1
 249 760 l 1
 360 760 399 1016 399 1098 c 0
 399 1196 388 1313 261 1313 c 0
 243 1313 237 1272 237 1260 c 0
 237 1094 245 930 245 764 c 1
489 -25 m 0
 411 61 353 709 290 709 c 2
 282 709 l 2
 262 709 237 707 237 680 c 0
 237 530 247 381 255 231 c 0
 257 184 260 57 272 16 c 1
 257 -18 l 1
 227 -18 l 1
 212 -2 l 1
 196 428 179 858 179 1288 c 0
 179 1321 181 1366 224 1366 c 0
 349 1366 454 1304 454 1167 c 2
 454 1018 l 2
 454 922 347 751 347 741 c 0
 347 733 499 103 509 78 c 0
 519 51 542 23 542 -6 c 0
 542 -20 535 -35 519 -35 c 0
 515 -35 495 -27 489 -25 c 0
EndSplineSet
EndChar

StartChar: radical
Encoding: 8730 8730 320
Width: 800
VWidth: 0
GlyphClass: 2
Flags: HW
LayerCount: 2
Fore
SplineSet
355 41 m 1
 353 37 l 1
 355 33 l 1
 355 41 l 1
321 -36 m 1
 293 75 264 186 237 298 c 0
 228 336 182 489 182 509 c 0
 182 519 198 534 208 534 c 0
 237 534 250 464 286 325 c 2
 357 47 l 1
 431 453 l 2
 461 619 542 1010 587 1284 c 1
 614 1295 l 1
 622 1293 637 1284 637 1274 c 0
 637 1221 616 1151 606 1098 c 0
 581 975 546 852 528 729 c 0
 508 602 491 481 460 354 c 0
 442 279 438 193 419 119 c 0
 386 -9 390 -55 344 -55 c 1
 321 -36 l 1
EndSplineSet
EndChar

StartChar: registered
Encoding: 174 174 323
Width: 1300
VWidth: 0
GlyphClass: 2
Flags: HW
PickledData: "(dp1
S'org.pippin.gimp.org.kernagic'
p2
(dp3
S'lstem'
p4
I0
sS'rstem'
p5
I0
ssS'com.fontlab.hintData'
p6
(dp7
S'vhints'
p8
((dp9
S'position'
p10
I102
sS'width'
p11
I84
s(dp12
g10
I362
sg11
I76
s(dp13
g10
I387
sg11
I72
s(dp14
g10
I422
sg11
I82
s(dp15
g10
I692
sg11
I76
s(dp16
g10
I997
sg11
I68
stp17
sS'hhints'
p18
((dp19
g10
I-166
sg11
I68
s(dp20
g10
I913
sg11
I62
s(dp21
g10
I1548
sg11
I64
s(dp22
g10
I1855
sg11
I60
stp23
ss."
HStem: -166 68<567 575 567 736.5> 913 62<526 544.5> 1548 64<566.5 687.5> 1855 60<488.5 724.5 437.5 726>
VStem: 102 84 362 76 387 72 422 82 692 76 997 68
LayerCount: 2
Fore
SplineSet
499 1415 m 0
 499 1335 503 975 534 975 c 0
 581 975 719 1092 735 1137 c 0
 749 1180 753 1227 753 1272 c 0
 753 1364 753 1548 622 1548 c 0
 511 1548 499 1519 499 1415 c 0
532 168 m 0
 507 168 483 182 483 209 c 0
 483 297 483 385 475 473 c 0
 469 541 448 608 448 676 c 2
 448 1075 l 2
 448 1202 423 1321 423 1454 c 0
 423 1593 485 1612 616 1612 c 0
 809 1612 829 1420 829 1270 c 0
 829 1022 688 1032 688 969 c 0
 688 930 872 291 876 291 c 1
 876 289 l 1
 880 275 907 207 907 199 c 0
 907 187 878 172 868 168 c 1
 796 168 745 484 727 545 c 0
 688 668 637 940 614 940 c 0
 581 940 563 913 526 913 c 1
 524 874 520 836 520 797 c 0
 520 600 565 408 565 211 c 0
 565 186 561 168 532 168 c 0
507 -84 m 1
 527 -92 559 -98 575 -98 c 1
 593 -106 l 1
 1033 -106 1058 377 1058 707 c 0
 1058 988 1039 1350 935 1651 c 1
 950 1667 l 1
 940 1692 919 1721 892 1731 c 1
 835 1790 770 1855 682 1855 c 0
 295 1855 233 1333 233 1042 c 0
 233 901 247 757 247 616 c 0
 247 432 261 164 378 12 c 0
 425 -49 470 -47 507 -84 c 1
163 715 m 0
 163 805 165 895 165 985 c 0
 165 1323 208 1915 667 1915 c 0
 782 1915 899 1825 962 1735 c 1
 1011 1719 997 1663 1030 1632 c 1
 1030 1585 1050 1485 1058 1438 c 0
 1083 1270 1126 1086 1126 920 c 2
 1126 854 l 2
 1126 637 1126 146 970 -12 c 0
 884 -100 802 -166 671 -166 c 0
 194 -166 163 357 163 715 c 0
EndSplineSet
EndChar

StartChar: ring
Encoding: 730 730 324
Width: 600
VWidth: 0
GlyphClass: 4
Flags: HW
PickledData: "(dp1
S'org.pippin.gimp.org.kernagic'
p2
(dp3
S'lstem'
p4
I0
sS'rstem'
p5
I0
ssS'com.fontlab.hintData'
p6
(dp7
S'vhints'
p8
((dp9
S'position'
p10
I80
sS'width'
p11
I47
s(dp12
g10
I258
sg11
I53
stp13
sS'hhints'
p14
((dp15
g10
I1057
sg11
I39
s(dp16
g10
I1253
sg11
I39
stp17
ss."
HStem: 1057 39<259.5 293.5 259.5 324> 1253 39<289.5 328.5>
VStem: 80 47 258 53
AnchorPoint: "top" 302 805 mark 0
LayerCount: 2
Fore
SplineSet
234 1176 m 0
 234 1151 240 1096 279 1096 c 0
 308 1096 365 1120 365 1153 c 0
 365 1192 351 1253 306 1253 c 0
 273 1253 234 1213 234 1176 c 0
187 1165 m 0
 187 1226 245 1292 306 1292 c 0
 359 1292 418 1225 418 1174 c 0
 418 1094 361 1057 287 1057 c 0
 232 1057 187 1112 187 1165 c 0
EndSplineSet
EndChar

StartChar: s
Encoding: 115 115 325
Width: 660
VWidth: 0
GlyphClass: 2
Flags: HW
PickledData: "(dp1
S'org.pippin.gimp.org.kernagic'
p2
(dp3
S'lstem'
p4
I0
sS'rstem'
p5
I0
ssS'com.fontlab.hintData'
p6
(dp7
S'vhints'
p8
((dp9
S'position'
p10
I90
sS'width'
p11
I53
s(dp12
g10
I319
sg11
I11
s(dp13
g10
I336
sg11
I53
stp14
sS'hhints'
p15
((dp16
g10
I-20
sg11
I47
s(dp17
g10
I1317
sg11
I61
stp18
ss."
HStem: -20 47<255 329.5 250.5 342> 1317 61<304 354.5 282.5 357>
VStem: 90 53 319 11 336 53
AnchorPoint: "top" 346 1356 basechar 0
LayerCount: 2
Fore
SplineSet
406 1313 m 1
 406 1311 l 1
 408 1311 l 1
 408 1313 408 1313 406 1313 c 1
179 25 m 1
 189 41 l 1
 214 39 238 27 263 27 c 0
 396 27 425 258 425 356 c 0
 425 651 179 795 179 1098 c 0
 179 1188 224 1378 341 1378 c 0
 368 1378 419 1352 419 1321 c 0
 419 1309 400 1305 392 1305 c 0
 376 1305 365 1317 349 1317 c 0
 259 1317 232 1158 232 1090 c 0
 232 1022 253 962 271 899 c 1
 286 862 l 1
 397 661 478 578 478 332 c 0
 478 193 429 -20 255 -20 c 1
 245 -25 l 1
 220 -21 183 -4 179 25 c 1
EndSplineSet
EndChar

StartChar: section
Encoding: 167 167 331
Width: 660
VWidth: 0
GlyphClass: 2
Flags: HW
PickledData: "(dp1
S'org.pippin.gimp.org.kernagic'
p2
(dp3
S'lstem'
p4
I0
sS'rstem'
p5
I0
ssS'com.fontlab.hintData'
p6
(dp7
S'vhints'
p8
((dp9
S'position'
p10
I74
sS'width'
p11
I53
s(dp12
g10
I90
sg11
I53
s(dp13
g10
I319
sg11
I54
s(dp14
g10
I336
sg11
I53
stp15
sS'hhints'
p16
((dp17
g10
I-57
sg11
I61
s(dp18
g10
I1317
sg11
I61
stp19
ss."
HStem: -57 61<294.5 345 292 366.5> 1317 61<312 362.5 290.5 365>
VStem: 74 53 90 53 319 54 336 53
LayerCount: 2
Fore
SplineSet
433 520 m 0
 433 674 321 776 249 897 c 1
 229 848 224 793 224 760 c 0
 224 608 332 510 406 391 c 1
 426 438 433 485 433 520 c 0
486 537 m 0
 486 482 474 411 439 354 c 1
 457 315 470 272 470 223 c 0
 470 133 425 -57 308 -57 c 0
 281 -57 230 -31 230 0 c 0
 230 12 249 16 257 16 c 0
 273 16 284 4 300 4 c 0
 390 4 416 135 416 190 c 0
 416 237 407 287 384 332 c 0
 275 547 171 602 171 784 c 0
 171 835 181 906 216 961 c 1
 198 1002 187 1047 187 1098 c 0
 187 1188 232 1378 349 1378 c 0
 376 1378 427 1352 427 1321 c 0
 427 1309 408 1305 400 1305 c 0
 384 1305 373 1317 357 1317 c 0
 267 1317 240 1158 240 1090 c 0
 240 1043 250 993 275 948 c 0
 381 753 486 703 486 537 c 0
EndSplineSet
EndChar

StartChar: semicolon
Encoding: 59 59 332
Width: 560
VWidth: 0
GlyphClass: 2
Flags: HW
PickledData: "(dp1
S'org.pippin.gimp.org.kernagic'
p2
(dp3
S'lstem'
p4
I0
sS'rstem'
p5
I0
ssS'com.fontlab.hintData'
p6
(dp7
S'vhints'
p8
((dp9
S'position'
p10
I180
sS'width'
p11
I103
s(dp12
g10
I205
sg11
I86
stp13
sS'hhints'
p14
((dp15
g10
I-2
sg11
I21
s(dp16
g10
I975
sg11
I104
stp17
ss."
HStem: -2 21<212 212> 975 104<304.5 326.5>
VStem: 180 103 205 86
LayerCount: 2
Fore
SplineSet
179 14 m 1
 183 33 l 1
 224 72 290 119 290 182 c 1
 259 200 230 235 230 272 c 0
 230 311 273 336 308 336 c 0
 349 336 376 297 376 258 c 0
 376 186 294 0 212 -2 c 1
 179 14 l 1
265 1024 m 0
 265 1051 291 1079 318 1079 c 0
 343 1079 368 1049 368 1026 c 0
 368 989 343 975 310 975 c 0
 285 975 265 1001 265 1024 c 0
EndSplineSet
EndChar

StartChar: seven
Encoding: 55 55 333
Width: 600
VWidth: 0
GlyphClass: 2
Flags: HW
PickledData: "(dp1
S'org.pippin.gimp.org.kernagic'
p2
(dp3
S'lstem'
p4
I0
sS'rstem'
p5
I0
ssS'com.fontlab.hintData'
p6
(dp7
S'vhints'
p8
((dp9
S'position'
p10
I86
sS'width'
p11
I74
s(dp12
g10
I307
sg11
I43
stp13
sS'hhints'
p14
((dp15
g10
I-27
sg11
I21
s(dp16
g10
I1528
sg11
I39
stp17
ss."
HStem: -27 21<190 190> 1528 39
VStem: 86 74 307 43
LayerCount: 2
Fore
SplineSet
165 -4 m 1
 165 47 190 94 202 143 c 0
 284 493 306 856 351 1212 c 0
 363 1312 386 1414 386 1516 c 0
 386 1528 325 1528 315 1528 c 0
 274 1528 235 1522 194 1522 c 1
 163 1542 l 1
 181 1561 l 1
 253 1561 326 1567 398 1567 c 0
 418 1567 438 1548 444 1530 c 1
 428 1487 433 1440 429 1395 c 0
 417 1252 268 131 237 86 c 1
 239 80 239 74 239 70 c 0
 239 41 225 -25 190 -27 c 1
 165 -4 l 1
EndSplineSet
EndChar

StartChar: six
Encoding: 54 54 334
Width: 700
VWidth: 0
GlyphClass: 2
Flags: HW
PickledData: "(dp1
S'org.pippin.gimp.org.kernagic'
p2
(dp3
S'lstem'
p4
I0
sS'rstem'
p5
I0
ssS'com.fontlab.hintData'
p6
(dp7
S'vhints'
p8
((dp9
S'position'
p10
I100
sS'width'
p11
I54
s(dp12
g10
I383
sg11
I49
stp13
sS'hhints'
p14
((dp15
g10
I-29
sg11
I41
s(dp16
g10
I868
sg11
I45
s(dp17
g10
I1549
sg11
I20
stp18
ss."
HStem: -29 41<338 423 338 432.5> 868 45<294 374> 1549 20<278.5 380>
VStem: 100 54 383 49
LayerCount: 2
Fore
SplineSet
233 758 m 2
 233 728 l 2
 233 539 251 353 284 166 c 0
 294 100 290 12 386 12 c 0
 460 12 462 123 462 174 c 0
 462 291 454 868 294 868 c 1
 253 841 233 807 233 758 c 2
370 -29 m 0
 202 -29 226 258 210 369 c 0
 190 514 179 660 179 807 c 2
 179 816 l 2
 179 969 181 1569 376 1569 c 0
 384 1569 401 1560 401 1550 c 0
 401 1521 349 1513 331 1497 c 0
 257 1438 235 1003 233 897 c 1
 245 905 264 913 278 913 c 0
 509 913 511 334 511 170 c 0
 511 70 495 -29 370 -29 c 0
EndSplineSet
EndChar

StartChar: slash
Encoding: 47 47 335
Width: 680
VWidth: 0
GlyphClass: 2
Flags: HW
PickledData: "(dp1
S'org.pippin.gimp.org.kernagic'
p2
(dp3
S'lstem'
p4
I0
sS'rstem'
p5
I0
ssS'com.fontlab.hintData'
p6
(dp7
S'vhints'
p8
((dp9
S'position'
p10
I86
sS'width'
p11
I393
stp12
sS'hhints'
p13
((dp14
g10
I-6
sg11
I21
stp15
ss."
HStem: -6 21
VStem: 86 393
LayerCount: 2
Fore
SplineSet
548 1505 m 0
 548 1489 511 1337 507 1317 c 0
 433 977 354 641 276 299 c 2
 235 121 l 2
 225 78 218 -2 175 -6 c 1
 163 2 155 17 155 31 c 0
 155 129 200 268 227 387 c 0
 307 741 391 1096 483 1448 c 0
 487 1460 502 1532 518 1532 c 0
 534 1532 548 1523 548 1505 c 0
EndSplineSet
EndChar

StartChar: sterling
Encoding: 163 163 337
Width: 860
VWidth: 0
GlyphClass: 2
Flags: HW
PickledData: "(dp1
S'org.pippin.gimp.org.kernagic'
p2
(dp3
S'lstem'
p4
I0
sS'rstem'
p5
I0
ssS'com.fontlab.hintData'
p6
(dp7
S'vhints'
p8
((dp9
S'position'
p10
I123
sS'width'
p11
I51
s(dp12
g10
I272
sg11
I50
s(dp13
g10
I387
sg11
I66
stp14
sS'hhints'
p15
((dp16
g10
I49
sg11
I49
s(dp17
g10
I90
sg11
I53
s(dp18
g10
I887
sg11
I57
s(dp19
g10
I918
sg11
I59
s(dp20
g10
I1378
sg11
I21
s(dp21
g10
I1562
sg11
I44
stp22
ss."
HStem: 49 49<611.5 621.5 554 642.5> 90 53<307 346> 887 57<184 188 179 193> 918 59<430 470 427 477> 1378 21<458.5 494> 1562 44<287.5 357>
VStem: 123 51 272 50 387 66
LayerCount: 2
Fore
SplineSet
123 49 m 0
 123 90 213 115 242 135 c 0
 297 176 313 313 313 379 c 0
 313 553 240 721 201 889 c 0
 197 889 195 887 191 887 c 0
 177 887 162 897 162 915 c 0
 162 931 170 944 188 944 c 1
 188 1042 164 1137 164 1235 c 0
 164 1375 166 1606 341 1606 c 0
 444 1606 494 1454 494 1399 c 1
 475 1378 l 1
 442 1378 442 1402 428 1425 c 1
 428 1487 386 1562 328 1562 c 0
 247 1562 215 1354 215 1268 c 0
 215 1189 229 950 248 950 c 0
 320 950 391 977 463 977 c 0
 477 977 492 966 492 950 c 0
 492 934 487 918 467 918 c 0
 393 918 320 913 248 899 c 1
 303 773 363 541 363 375 c 0
 363 283 332 227 307 143 c 1
 407 143 504 98 604 98 c 0
 639 98 661 101 694 115 c 1
 723 94 l 1
 723 49 658 49 627 49 c 0
 596 49 564 55 533 55 c 1
 526 51 l 1
 481 78 346 90 346 90 c 1
 264 90 224 68 154 27 c 1
 144 29 123 37 123 49 c 0
EndSplineSet
EndChar

StartChar: t
Encoding: 116 116 339
Width: 700
VWidth: 0
GlyphClass: 2
Flags: HW
PickledData: "(dp1
S'org.pippin.gimp.org.kernagic'
p2
(dp3
S'lstem'
p4
I145
sS'rstem'
p5
I382
ssS'com.typemytype.robofont.layerData'
p6
(dp7
sS'com.fontlab.hintData'
p8
(dp9
S'vhints'
p10
((dp11
S'position'
p12
I295
sS'width'
p13
I2
s(dp14
g12
I299
sg13
I66
stp15
sS'hhints'
p16
((dp17
g12
I1298
sg13
I43
stp18
ss."
HStem: 1298 43<376 483>
VStem: 295 2 299 66
AnchorPoint: "top" 337 1356 basechar 0
LayerCount: 2
Fore
SplineSet
344 29 m 1
 344 78 340 129 340 178 c 0
 340 203 344 225 344 250 c 0
 344 266 342 283 336 299 c 1
 336 633 298 964 294 1298 c 1
 130 1298 82 1303 82 1337 c 1
 88 1353 105 1360 121 1360 c 0
 215 1360 383 1341 477 1341 c 0
 489 1341 552 1343 564 1343 c 0
 582 1343 601 1340 601 1317 c 0
 601 1297 574 1290 556 1290 c 0
 519 1290 418 1298 381 1298 c 0
 371 1298 371 1294 371 1253 c 0
 371 852 419 452 419 51 c 0
 419 31 387 12 367 12 c 1
 344 29 l 1
EndSplineSet
EndChar

StartChar: tbar
Encoding: 359 359 340
Width: 720
VWidth: 0
GlyphClass: 2
Flags: HW
PickledData: "(dp1
S'org.pippin.gimp.org.kernagic'
p2
(dp3
S'lstem'
p4
I0
sS'rstem'
p5
I0
ssS'com.fontlab.hintData'
p6
(dp7
S'vhints'
p8
((dp9
S'position'
p10
I244
sS'width'
p11
I53
s(dp12
g10
I299
sg11
I66
stp13
sS'hhints'
p14
((dp15
g10
I680
sg11
I78
s(dp16
g10
I1298
sg11
I43
stp17
ss."
HStem: 680 78 1298 43<374 462>
VStem: 244 53 299 66
LayerCount: 2
Fore
SplineSet
370 29 m 1
 370 78 366 129 366 178 c 0
 366 203 370 225 370 250 c 0
 370 266 368 283 362 299 c 1
 362 429 355 558 346 687 c 1
 297 682 252 680 223 680 c 0
 205 680 180 692 180 715 c 0
 180 732 257 747 341 758 c 1
 328 938 313 1118 311 1298 c 1
 256 1298 149 1300 139 1337 c 1
 145 1353 162 1360 178 1360 c 0
 272 1360 362 1341 456 1341 c 0
 468 1341 481 1343 493 1343 c 0
 511 1343 530 1340 530 1317 c 0
 530 1297 503 1284 485 1284 c 0
 448 1284 411 1298 374 1298 c 1
 364 1286 l 1
 368 1278 l 1
 364 1270 364 1261 364 1253 c 0
 364 1090 376 927 389 764 c 1
 446 770 500 774 530 774 c 0
 548 774 575 759 575 739 c 0
 575 721 487 704 395 693 c 1
 413 479 432 265 432 51 c 0
 432 31 413 12 393 12 c 1
 370 29 l 1
EndSplineSet
EndChar

StartChar: thorn
Encoding: 254 254 343
Width: 660
VWidth: 0
GlyphClass: 2
Flags: HW
PickledData: "(dp1
S'org.pippin.gimp.org.kernagic'
p2
(dp3
S'lstem'
p4
I0
sS'rstem'
p5
I0
ssS'com.fontlab.hintData'
p6
(dp7
S'vhints'
p8
((dp9
S'position'
p10
I102
sS'width'
p11
I70
s(dp12
g10
I131
sg11
I51
s(dp13
g10
I340
sg11
I70
s(dp14
g10
I359
sg11
I63
stp15
sS'hhints'
p16
((dp17
g10
I-23
sg11
I80
s(dp18
g10
I668
sg11
I71
s(dp19
g10
I1313
sg11
I69
stp20
ss."
HStem: -23 80<243 296 243 308.5> 668 71<259 274 274 333.5 259 334.5> 1313 69<214.5 336>
VStem: 102 70 131 51 340 70 359 63
LayerCount: 2
Fore
SplineSet
251 766 m 1
 253 758 257 747 259 739 c 1
 274 739 l 2
 393 739 409 903 409 1012 c 0
 409 1061 405 1096 403 1139 c 1
 399 1143 l 1
 395 1202 376 1313 296 1313 c 0
 257 1313 251 1144 251 1044 c 0
 251 970 253 967 253 934 c 0
 253 887 251 840 251 791 c 2
 251 766 l 1
253 248 m 1
 243 230 241 191 241 150 c 0
 241 113 243 77 243 57 c 1
 349 57 427 181 427 279 c 0
 427 281 428 299 428 325 c 0
 428 428 412 668 257 668 c 1
 251 576 247 483 247 389 c 2
 247 342 l 2
 247 310 248 277 253 248 c 1
173 20 m 0
 171 40 171 61 171 84 c 0
 171 227 192 373 192 516 c 0
 192 577 188 639 188 698 c 0
 188 862 200 1024 200 1188 c 0
 200 1227 200 1266 198 1307 c 1
 190 1317 l 1
 190 1329 l 2
 190 1358 196 1382 233 1382 c 0
 260 1382 415 1344 417 1315 c 1
 417 1315 415 1311 415 1309 c 0
 468 1225 479 1149 479 1038 c 0
 479 954 473 869 446 795 c 1
 448 795 l 1
 434 762 406 729 388 698 c 1
 474 630 485 495 489 399 c 2
 491 346 l 1
 491 317 l 2
 491 145 405 -23 212 -23 c 0
 187 -23 173 -3 173 20 c 0
EndSplineSet
EndChar

StartChar: three
Encoding: 51 51 344
Width: 680
VWidth: 0
GlyphClass: 2
Flags: HW
PickledData: "(dp1
S'org.pippin.gimp.org.kernagic'
p2
(dp3
S'lstem'
p4
I0
sS'rstem'
p5
I0
ssS'com.fontlab.hintData'
p6
(dp7
S'vhints'
p8
((dp9
S'position'
p10
I377
sS'width'
p11
I55
s(dp12
g10
I455
sg11
I55
stp13
sS'hhints'
p14
((dp15
g10
I-2
sg11
I39
s(dp16
g10
I1374
sg11
I21
s(dp17
g10
I1491
sg11
I49
stp18
ss."
HStem: -2 39<315.5 383.5 314 428> 1374 21<118 150.5> 1491 49<221 284.5 221 321.5>
VStem: 377 55 455 55
LayerCount: 2
Fore
SplineSet
210 74 m 1
 226 84 l 1
 259 82 285 53 314 37 c 1
 453 37 470 191 470 297 c 0
 470 485 465 697 330 844 c 1
 324 844 318 842 310 842 c 0
 298 842 283 844 271 850 c 1
 271 858 l 1
 261 868 l 1
 263 893 392 983 392 1130 c 0
 392 1214 382 1491 261 1491 c 0
 161 1491 175 1374 126 1374 c 0
 110 1374 93 1387 91 1403 c 1
 128 1479 175 1540 267 1540 c 0
 302 1540 339 1518 359 1491 c 1
 365 1489 l 1
 435 1387 447 1223 447 1102 c 0
 447 1061 430 1022 410 987 c 1
 394 975 363 912 343 889 c 1
 484 834 480 631 509 508 c 0
 525 438 525 441 525 367 c 0
 525 236 519 -2 337 -2 c 0
 294 -2 210 21 210 74 c 1
EndSplineSet
EndChar

StartChar: threequarters
Encoding: 190 190 345
Width: 1480
VWidth: 0
GlyphClass: 2
Flags: HW
PickledData: "(dp1
S'org.pippin.gimp.org.kernagic'
p2
(dp3
S'lstem'
p4
I0
sS'rstem'
p5
I0
ssS'com.fontlab.hintData'
p6
(dp7
S'vhints'
p8
((dp9
S'position'
p10
I377
sS'width'
p11
I55
s(dp12
g10
I455
sg11
I55
s(dp13
g10
I1249
sg11
I58
s(dp14
g10
I1260
sg11
I47
s(dp15
g10
I1280
sg11
I51
s(dp16
g10
I1399
sg11
I57
s(dp17
g10
I1415
sg11
I53
s(dp18
g10
I1442
sg11
I47
s(dp19
g10
I1450
sg11
I63
stp20
sS'hhints'
p21
((dp22
g10
I-25
sg11
I21
s(dp23
g10
I-2
sg11
I39
s(dp24
g10
I518
sg11
I45
s(dp25
g10
I1374
sg11
I21
s(dp26
g10
I1491
sg11
I49
s(dp27
g10
I1539
sg11
I20
stp28
ss."
HStem: -25 21<1300 1300> -2 39<119.5 187.5 118 232> 518 45<1136 1144.5> 1374 21<-73 -41.5> 1491 49<26.5 88.5 26.5 125.5> 1539 20<1107 1123>
VStem: 377 55 455 55 1249 58 1260 47 1280 51 1399 57 1415 53 1442 47 1450 63
LayerCount: 2
Fore
SplineSet
1269 61 m 1
 1267 66 l 1
 1273 91 1275 114 1275 139 c 0
 1275 209 1261 278 1261 348 c 0
 1261 379 1265 409 1265 440 c 0
 1265 460 1264 520 1244 530 c 1
 1203 530 1165 518 1124 518 c 0
 1091 518 1093 523 1068 541 c 1
 1068 547 l 2
 1068 570 1075 592 1079 612 c 1
 1060 653 l 1
 1060 688 1079 719 1079 754 c 0
 1079 887 1099 1022 1099 1155 c 2
 1099 1481 l 2
 1099 1497 1091 1516 1091 1532 c 0
 1091 1548 1099 1559 1115 1559 c 0
 1131 1559 1152 1550 1152 1530 c 0
 1152 1475 1144 1421 1144 1366 c 0
 1144 1343 1146 1319 1150 1296 c 1
 1146 1290 l 1
 1148 1272 1150 1253 1150 1233 c 0
 1150 1061 1126 889 1126 717 c 0
 1126 697 1140 677 1140 657 c 0
 1140 637 1126 622 1126 602 c 0
 1126 588 1126 563 1146 563 c 0
 1169 563 1231 572 1249 582 c 1
 1249 729 1240 877 1234 1024 c 0
 1232 1079 1218 1133 1218 1188 c 0
 1218 1206 1243 1212 1257 1212 c 1
 1275 1190 l 1
 1275 1094 1287 997 1287 901 c 0
 1287 860 1294 596 1308 582 c 1
 1333 582 1357 590 1384 590 c 0
 1398 590 1423 587 1423 567 c 0
 1423 514 1308 576 1308 498 c 0
 1308 451 1316 177 1326 152 c 1
 1324 144 1324 131 1324 117 c 0
 1324 99 1326 78 1332 68 c 1
 1326 43 l 1
 1332 29 l 1
 1332 0 l 1
 1300 -25 l 1
 1269 -12 l 1
 1269 61 l 1
888 1505 m 0
 888 1489 851 1337 847 1317 c 0
 773 977 694 641 616 299 c 2
 575 121 l 2
 565 78 558 -2 515 -6 c 1
 503 2 495 17 495 31 c 0
 495 129 540 268 567 387 c 0
 647 741 731 1096 823 1448 c 0
 827 1460 841 1532 857 1532 c 0
 873 1532 888 1523 888 1505 c 0
14 74 m 1
 30 84 l 1
 63 82 89 53 118 37 c 1
 257 37 274 191 274 297 c 0
 274 485 269 697 134 844 c 1
 128 844 122 842 114 842 c 0
 102 842 87 844 75 850 c 1
 75 858 l 1
 65 868 l 1
 67 893 196 983 196 1130 c 0
 196 1214 186 1491 65 1491 c 0
 -30 1491 -18 1374 -65 1374 c 0
 -81 1374 -98 1387 -100 1403 c 1
 -63 1479 -18 1540 71 1540 c 0
 106 1540 143 1518 163 1491 c 1
 169 1489 l 1
 239 1387 251 1223 251 1102 c 0
 251 1061 234 1022 214 987 c 1
 198 975 167 912 147 889 c 1
 288 834 284 631 313 508 c 0
 329 438 329 441 329 367 c 0
 329 236 323 -2 141 -2 c 0
 98 -2 14 21 14 74 c 1
EndSplineSet
EndChar

StartChar: tilde
Encoding: 732 732 346
Width: 800
VWidth: 0
GlyphClass: 4
Flags: HW
PickledData: "(dp1
S'org.pippin.gimp.org.kernagic'
p2
(dp3
S'lstem'
p4
I0
sS'rstem'
p5
I0
ssS'com.fontlab.hintData'
p6
(dp7
S'vhints'
p8
((dp9
S'position'
p10
I111
sS'width'
p11
I51
s(dp12
g10
I487
sg11
I56
stp13
sS'hhints'
p14
((dp15
g10
I1022
sg11
I54
s(dp16
g10
I1149
sg11
I48
stp17
ss."
HStem: 1022 54<481 517 481 530.5> 1149 48<286.5 306>
VStem: 111 51 487 56
AnchorPoint: "top" 412 805 mark 0
LayerCount: 2
Fore
SplineSet
179 1055 m 0
 179 1147 238 1197 298 1197 c 0
 329 1197 361 1183 385 1155 c 1
 404 1116 460 1076 502 1076 c 0
 532 1076 555 1096 555 1149 c 0
 555 1163 545 1174 543 1188 c 1
 547 1196 556 1200 564 1200 c 0
 599 1200 611 1159 611 1130 c 0
 611 1073 559 1022 502 1022 c 0
 422 1022 367 1088 320 1143 c 1
 306 1149 l 1
 267 1149 230 1125 230 1094 c 0
 230 1080 236 1065 240 1051 c 1
 218 1020 l 1
 202 1020 179 1037 179 1055 c 0
EndSplineSet
EndChar

